<svg id="Layer_1" data-name="Layer 1" xmlns="http://www.w3.org/2000/svg" viewBox="0 0 72.89 72.9"><defs><style>.cls-1{fill:#803cd6;}.cls-2{fill:none;stroke:#803cd6;stroke-linecap:round;stroke-miterlimit:10;stroke-width:2.15px;}</style></defs><title>about_icon</title><path class="cls-1" d="M14.11,49.47A36.45,36.45,0,1,1,50.35,85.92,36.46,36.46,0,0,1,14.11,49.47Zm2.85,0A33.59,33.59,0,1,0,50.63,15.89,33.57,33.57,0,0,0,17,49.44Z" transform="translate(-14.11 -13.02)"/><path class="cls-1" d="M53.55,67.42h3v1.43H44.62V67.43h3c0-.16,0-.29,0-.42q0-10.95,0-21.89c0-.32-.08-.43-.42-.42-.84,0-1.69,0-2.57,0V43.32h8.93Z" transform="translate(-14.11 -13.02)"/><path class="cls-1" d="M46.5,34.83A4.09,4.09,0,1,1,50.58,39,4.11,4.11,0,0,1,46.5,34.83Z" transform="translate(-14.11 -13.02)"/><path class="cls-2" d="M30.75,30.24a27.2,27.2,0,0,1,10.19-6.41" transform="translate(-14.11 -13.02)"/><path class="cls-2" d="M37.24,73.52a27.21,27.21,0,0,1-11-37.36" transform="translate(-14.11 -13.02)"/></svg>