<svg id="Layer_1" data-name="Layer 1" xmlns="http://www.w3.org/2000/svg" viewBox="0 0 61.1 61.1"><defs><style>.cls-1{fill:none;stroke:#000;stroke-miterlimit:10;stroke-width:2.1px;}</style></defs><title>back_icon</title><circle class="cls-1" cx="30.55" cy="30.55" r="29.5"/><path d="M53.67,51.32C51,49,48.27,46.74,45.58,44.45c-.75-.64-2.69-2.46-3.44-3.1v4.21c2.26,1.93,4.51,3.85,6.78,5.77a.71.71,0,0,1,0,1.21c-1.9,1.59-3.78,3.19-5.66,4.8l-1.13,1V62.5c1.57-1.32,4.31-3.84,5.88-5.17,1.88-1.6,3.76-3.21,5.66-4.8A.71.71,0,0,0,53.67,51.32Z" transform="translate(-16.52 -20.95)"/></svg>