<svg id="Layer_1" data-name="Layer 1" xmlns="http://www.w3.org/2000/svg" viewBox="0 0 100 100"><defs><style>.cls-1{font-size:8.17px;font-family:Arial-BoldMT, Arial;font-weight:700;letter-spacing:0.1em;}</style></defs><title>bank-info_icon</title><path d="M76.64,38.05,52.3,20.25a1.85,1.85,0,0,0-1.62,0L26.36,38.05a1.13,1.13,0,0,0,1.29,1.86L51.5,22.46,75.34,39.92a1.13,1.13,0,1,0,1.29-1.86Z"/><path d="M67.64,38.05,52.39,26.68a2.4,2.4,0,0,0-1.78,0L35.35,38.05a1.13,1.13,0,1,0,1.29,1.86L51.5,28.84,66.35,39.92a1.13,1.13,0,1,0,1.29-1.86Z"/><rect x="20.41" y="73.17" width="62.02" height="2.25" rx="1.13" ry="1.13"/><rect x="54.43" y="59.25" width="27.15" height="2.27" rx="0.82" ry="0.82" transform="translate(128.39 -7.62) rotate(90)"/><rect x="60.88" y="59.25" width="27.15" height="2.27" rx="0.82" ry="0.82" transform="translate(134.84 -14.08) rotate(90)"/><rect x="14.56" y="59.25" width="27.15" height="2.27" rx="0.82" ry="0.82" transform="translate(88.51 32.25) rotate(90)"/><rect x="21.01" y="59.25" width="27.15" height="2.27" rx="0.82" ry="0.82" transform="translate(94.97 25.8) rotate(90)"/><rect x="15.91" y="79.69" width="71.01" height="2.26" rx="1.13" ry="1.13"/><rect x="20.49" y="44.95" width="62.02" height="2.25" rx="1.13" ry="1.13" transform="translate(102.99 92.16) rotate(-180)"/><rect x="15.99" y="38.43" width="71.01" height="2.26" rx="1.13" ry="1.13" transform="translate(102.99 79.12) rotate(-180)"/><text class="cls-1" transform="translate(37.97 63.45)">BANK</text></svg>