<svg id="Layer_1" data-name="Layer 1" xmlns="http://www.w3.org/2000/svg" viewBox="0 0 100 72"><defs><style>.cls-1{fill:#ffd83b;}.cls-2{fill:#005395;}</style></defs><title>Untitled-3</title><path class="cls-1" d="M24.28,27.9A22.59,22.59,0,0,0,26.06,26q3.75-4.21,7.47-8.44c1-1.08,1.89-2.17,2.86-3.23a9,9,0,0,1,6.79-3.15c14.5,0,29,0,43.5,0a4,4,0,0,1,4.07,4.07c0,2.67,0,5.34,0,8a3.91,3.91,0,0,1-4.09,4H75.44c-.16-.21,0-.34.12-.47.66-.82,1.36-1.59,2.06-2.37L81,20.57c.06-.07.17-.14.13-.25s-.19-.09-.29-.1h-.21q-11.57,0-23.14,0a1.68,1.68,0,0,0-1.4.58Q54,23.21,51.85,25.6l-3.18,3.56c-1.66,1.87-3.33,3.72-5,5.62a1.6,1.6,0,0,1-1.32.64q-11.8,0-23.6,0h-.42c-.18,0-.37,0-.46-.22s0-.31.14-.45a12.52,12.52,0,0,1,.84-1C20.48,32,22,30.18,23.62,28.41A1.76,1.76,0,0,1,24.28,27.9Z"/><path class="cls-2" d="M24.28,27.9c-.71,1-1.55,1.8-2.33,2.69-1.24,1.42-2.49,2.83-3.74,4.24-.07.08-.2.14-.13.28s.17.07.27.07h.29q11.89,0,23.77,0a1.3,1.3,0,0,0,1.08-.49c2-2.23,3.95-4.45,5.92-6.68q3.42-3.85,6.83-7.72a1,1,0,0,1,.82-.31H81.7a10.09,10.09,0,0,1-1.15,1.37c-1.67,1.92-3.35,3.82-5,5.73a1,1,0,0,0-.09.14c-4.06,4.62-8.09,9.26-12.19,13.83A8.57,8.57,0,0,1,56.72,44Q34.9,44,13.08,44a3.89,3.89,0,0,1-4-4q0-4,0-8.09a3.89,3.89,0,0,1,3.13-3.92,2.14,2.14,0,0,1,.42-.05Z"/><path class="cls-2" d="M28,57.11c0-1.3,0-2.6,0-3.9,0-.4.14-.56.54-.55s.89,0,1.34,0c.28,0,.49,0,.51.4s.2.13.3.07a4.15,4.15,0,0,1,2.44-.59,2.37,2.37,0,0,1,2.42,2.07,6.66,6.66,0,0,1,.13,1.29c0,1.72,0,3.44,0,5.15,0,.39-.16.56-.55.55s-.95,0-1.42,0-.56-.08-.56-.56c0-1.59,0-3.18,0-4.78,0-.18,0-.36,0-.54-.06-.84-.41-1.14-1.26-1.06a3.46,3.46,0,0,0-1.14.39c-.22.1-.18.29-.18.47q0,2.72,0,5.45c0,.57-.06.63-.62.63h-1.3c-.53,0-.61-.08-.61-.6Q28,59.06,28,57.11Z"/><path class="cls-2" d="M53.61,57.13q0-1.95,0-3.9c0-.49.06-.55.56-.55h1.38c.22,0,.42.06.42.3s.14.27.35.15a4,4,0,0,1,2.94-.51A2.16,2.16,0,0,1,61,54.14,5.47,5.47,0,0,1,61.27,56q0,2.54,0,5.07c0,.49-.09.58-.59.58s-1,0-1.43,0-.52-.16-.52-.53c0-1.58,0-3.16,0-4.74,0-.18,0-.36,0-.54,0-.92-.44-1.25-1.36-1.12a4.1,4.1,0,0,0-.87.29.52.52,0,0,0-.36.58c0,1.79,0,3.58,0,5.37,0,.64-.06.69-.69.7-.43,0-.87,0-1.3,0s-.55-.15-.55-.54C53.62,59.76,53.61,58.44,53.61,57.13Z"/><path class="cls-2" d="M86.58,57.15c0-.74,0-1.48,0-2.22,0-.29-.1-.4-.37-.43s-.36-.06-.54-.09c-.63-.11-.67-.15-.68-.77q0-.13,0-.25c0-.67,0-.72.71-.72.87,0,.87,0,.87-.86,0-.64,0-.67.65-.79l1.44-.25c.3-.05.45.06.44.38s0,.73,0,1.09.07.47.42.43a7.5,7.5,0,0,1,.8,0,.34.34,0,0,1,.38.39q0,.57,0,1.13a.34.34,0,0,1-.39.39H89.4c-.19,0-.28.08-.28.28q0,2.26,0,4.52c0,.32.18.45.48.45h.71c.29,0,.41.13.4.41s0,.45,0,.67c0,.65,0,.68-.65.77a6.35,6.35,0,0,1-1.79,0,1.71,1.71,0,0,1-1.57-1.4,5.69,5.69,0,0,1-.15-1.37C86.58,58.33,86.58,57.74,86.58,57.15Z"/><path class="cls-2" d="M63.92,57.23c0-.77,0-1.54,0-2.31,0-.26-.08-.39-.34-.41l-.16,0c-1.26-.2-1.06-.08-1.07-1.43a.34.34,0,0,1,.36-.38h.38c1,0,.82.11.83-.81,0-.72,0-.72.71-.85l1.2-.21c.55-.09.62,0,.62.51,0,.32,0,.64,0,1s.08.41.38.4.53,0,.8,0,.42.12.41.41,0,.73,0,1.09a.37.37,0,0,1-.41.41c-.28,0-.56,0-.84,0s-.34.1-.34.35q0,2.16,0,4.32c0,.4.16.58.57.59,1,0,1,0,1,1.06,0,.67,0,.7-.68.78a6.69,6.69,0,0,1-1.63,0A1.8,1.8,0,0,1,64,60.12a7.37,7.37,0,0,1-.08-1.46C63.92,58.18,63.93,57.71,63.92,57.23Z"/><path class="cls-2" d="M37.37,57.17a7.22,7.22,0,0,1,.06-1.8,3.27,3.27,0,0,1,3.06-2.8,8.28,8.28,0,0,1,2.46.19.47.47,0,0,1,.44.55c0,.31,0,.61,0,.92,0,.56-.07.61-.65.56s-1-.07-1.51-.08A1.11,1.11,0,0,0,40,55.77a8.28,8.28,0,0,0,0,2.75,1.14,1.14,0,0,0,1.31,1.07c.53,0,1.06,0,1.59-.09.38,0,.55.08.53.48s0,.7,0,1a.42.42,0,0,1-.36.48,7.32,7.32,0,0,1-2.95.15,3.29,3.29,0,0,1-2.7-3.11C37.34,58.09,37.37,57.63,37.37,57.17Z"/><path class="cls-2" d="M78,57.14a8,8,0,0,1,.07-1.84,3.28,3.28,0,0,1,3.11-2.74,8.68,8.68,0,0,1,2.37.19.49.49,0,0,1,.45.58c0,.31,0,.61,0,.92,0,.53-.07.58-.59.54s-1.06-.08-1.59-.08a1.09,1.09,0,0,0-1.23,1,8.48,8.48,0,0,0,0,2.83,1.12,1.12,0,0,0,1.28,1c.56,0,1.11,0,1.67-.09.33,0,.47.1.46.43s0,.75,0,1.13a.4.4,0,0,1-.34.45,7.07,7.07,0,0,1-3,.14A3.27,3.27,0,0,1,78,58.52C78,58.06,78,57.6,78,57.14Z"/><path class="cls-2" d="M17.61,57.47a2.19,2.19,0,0,0-.92-1.5c-.26-.19-.36-.3,0-.51a1.81,1.81,0,0,0,.63-.77,3.12,3.12,0,0,0-1.73-4.4,5.42,5.42,0,0,0-.89-.24,16.06,16.06,0,0,0-4.59,0c-.88.09-1.06.31-1.06,1.18q0,2.3,0,4.61c0,1.56,0,3.13,0,4.69,0,.67.17.93.75,1a13.85,13.85,0,0,0,5.2,0C17.08,61,17.91,59.59,17.61,57.47ZM12,52.08a7.44,7.44,0,0,1,2.08.12c.72.18.94.53.92,1.37a1.07,1.07,0,0,1-1,1.14,13.21,13.21,0,0,1-2,0c-.22,0-.24-.15-.24-.31,0-.35,0-.7,0-1s0-.67,0-1S11.76,52.09,12,52.08Zm2,7.36a10.21,10.21,0,0,1-2,.09c-.21,0-.26-.11-.26-.29,0-.38,0-.75,0-1.13s0-.75,0-1.13.07-.33.31-.32c.59,0,1.17,0,1.76,0A1.41,1.41,0,0,1,14,59.44Z"/><path class="cls-2" d="M52,56.41a3.58,3.58,0,0,0-2.78-3.75,5.27,5.27,0,0,0-1.62-.1,3.45,3.45,0,0,0-3.33,3,10,10,0,0,0,0,3.13A3.51,3.51,0,0,0,44.69,60a3.55,3.55,0,0,0,3.17,1.79A3.6,3.6,0,0,0,52,58.38c0-.42,0-.84,0-1.25C52,56.89,52,56.65,52,56.41ZM49.35,58.6a1.18,1.18,0,0,1-1.23,1,1.26,1.26,0,0,1-1.28-1,5.47,5.47,0,0,1-.12-1.5,5.26,5.26,0,0,1,.12-1.41,1.23,1.23,0,0,1,1.29-1,1.15,1.15,0,0,1,1.23,1A6.75,6.75,0,0,1,49.35,58.6Z"/><path class="cls-2" d="M26.15,55.15a2.62,2.62,0,0,0-2.21-2.45,8.94,8.94,0,0,0-3.7.09c-.67.13-.68.14-.68.81,0,.24,0,.48,0,.71s.16.49.5.46c.82-.06,1.64-.11,2.47-.1s1.1.29,1.15,1.1c0,.37-.08.52-.48.51a7.32,7.32,0,0,0-2.65.31A2.1,2.1,0,0,0,19,58.36a4,4,0,0,0,.05,1.58,2.16,2.16,0,0,0,1.64,1.68,3.64,3.64,0,0,0,3.09-.56c0,.53.27.56.61.55h1.13c.58,0,.66-.07.66-.64,0-1,0-2,0-2.93A25.72,25.72,0,0,0,26.15,55.15ZM23.7,58.28a2.94,2.94,0,0,0,0,.42c0,.88-.07,1-1,1.11l-.17,0c-.69.06-1-.14-1.09-.61-.09-.92.18-1.32,1-1.39.25,0,.5,0,.75,0S23.76,57.88,23.7,58.28Z"/><path class="cls-2" d="M76.36,55.53A2.7,2.7,0,0,0,74,52.67a9.54,9.54,0,0,0-3.95.2.41.41,0,0,0-.34.46c0,.34,0,.67,0,1s.14.46.46.43.92-.06,1.38-.08a5.87,5.87,0,0,1,1.67.06c.5.13.7.55.6,1.26-.07.49-.47.24-.7.25a7.71,7.71,0,0,0-2.55.39,2.14,2.14,0,0,0-1.4,2.09,2.59,2.59,0,0,0,1.22,2.69,1.92,1.92,0,0,0,.43.17,3.61,3.61,0,0,0,2.72-.27c.2-.11.41-.33.52.11,0,.16.24.17.4.17H75.8c.49,0,.56-.07.56-.55,0-.95,0-1.9,0-2.85S76.37,56.42,76.36,55.53Zm-2.47,3.16c0,.9,0,1-.95,1.11l-.17,0c-.72.07-1.08-.14-1.13-.66-.08-.86.21-1.27,1-1.34l.38,0C74,57.82,73.87,57.68,73.89,58.69Z"/></svg>