<svg id="Layer_1" data-name="Layer 1" xmlns="http://www.w3.org/2000/svg" viewBox="0 0 100 100"><title>Business-info_icon</title><path d="M33.58,50.19a4.88,4.88,0,0,1-4.81-4.8,4.86,4.86,0,0,1,9.71,0A4.89,4.89,0,0,1,33.58,50.19Zm0-1.37a3.52,3.52,0,0,0,3.57-3.45,3.53,3.53,0,1,0-7.06-.09A3.53,3.53,0,0,0,33.57,48.83Z"/><path d="M76,33.87q-24.79,0-49.58,0c-2.18,0-3.07,1.14-3.07,3.74q0,13.58,0,27.15c0,3.32.78,4.23,3.61,4.23H51.25q12.33,0,24.65,0c2.39,0,3.28-1.06,3.28-3.83q0-13.73,0-27.47C79.18,35,78.3,33.87,76,33.87ZM77.67,64c0,2.52-.84,3.49-3.1,3.49H28.32c-2.68,0-3.42-.84-3.42-3.86q0-12.38,0-24.76c0-2.38.84-3.41,2.91-3.41q23.45,0,46.89,0c2.14,0,3,1,3,3.49Q77.67,51.43,77.67,64Z"/><rect x="45.9" y="59.86" width="27.21" height="1.49" rx="0.75" ry="0.75"/><rect x="58.77" y="55.5" width="14.35" height="1.49" rx="0.75" ry="0.75"/><rect x="64.7" y="44.84" width="8.41" height="1.49" rx="0.75" ry="0.75"/><rect x="51.11" y="44.84" width="11.38" height="1.49" rx="0.75" ry="0.75"/></svg>