<?xml version="1.0" encoding="utf-8"?>
<!-- Generator: Adobe Illustrator 16.0.0, SVG Export Plug-In . SVG Version: 6.00 Build 0)  -->
<!DOCTYPE svg PUBLIC "-//W3C//DTD SVG 1.1//EN" "http://www.w3.org/Graphics/SVG/1.1/DTD/svg11.dtd">
<svg version="1.1" id="Layer_1" xmlns="http://www.w3.org/2000/svg" xmlns:xlink="http://www.w3.org/1999/xlink" x="0px" y="0px"
	 width="837.048px" height="536.014px" viewBox="534.638 342.362 837.048 536.014"
	 enable-background="new 534.638 342.362 837.048 536.014" xml:space="preserve">
<g>
	<path fill="#1080BF" d="M572.538,342.362h761.249c20.575,0,37.899,17.327,37.899,37.901v460.214
		c0,20.574-17.324,37.898-37.899,37.898H572.538c-20.574,0-37.899-17.324-37.899-37.898V381.345
		C534.638,359.689,551.963,342.362,572.538,342.362z"/>
	<g enable-background="new    ">
		<path fill="#FFFFFF" d="M597.562,753.772l4.331,7.581c1.083,2.163,2.166,4.33,3.249,6.496l0,0
			c1.082-2.166,2.165-4.333,3.248-6.496l4.331-7.581h10.829l-11.912,19.49l14.077,20.574h-11.911l-5.415-7.579
			c-1.083-2.166-2.166-4.332-3.248-6.497l0,0c-1.084,2.165-2.167,4.331-3.249,6.497l-4.331,7.579h-10.829l14.077-20.574
			l-12.994-19.49H597.562z"/>
		<path fill="#FFFFFF" d="M638.711,753.772l4.332,7.581c1.082,2.163,2.166,4.33,3.248,6.496l0,0
			c1.083-2.166,2.166-4.333,3.249-6.496l4.331-7.581h10.829l-11.912,19.49l14.078,20.574h-11.913l-5.414-7.579
			c-1.083-2.166-2.166-4.332-3.249-6.497l0,0c-1.083,2.165-2.166,4.331-3.248,6.497l-4.332,7.579h-10.829l14.078-20.574
			l-12.995-19.49H638.711z"/>
		<path fill="#FFFFFF" d="M678.776,753.772l4.332,7.581c1.083,2.163,2.166,4.33,3.249,6.496l0,0
			c1.083-2.166,2.165-4.333,3.247-6.496l4.332-7.581h10.829l-11.911,19.49l14.077,20.574H695.02l-4.332-8.662
			c-1.083-2.166-2.166-4.332-3.248-6.497l0,0c-1.083,2.165-2.166,4.331-3.249,6.497l-4.332,7.58h-10.828l14.077-20.574
			l-12.995-19.491h8.663L678.776,753.772L678.776,753.772z"/>
		<path fill="#FFFFFF" d="M719.925,753.772l4.332,7.581c1.083,2.163,2.166,4.33,3.249,6.496l0,0
			c1.083-2.166,2.166-4.333,3.248-6.496l4.331-7.581h10.829l-11.911,19.49l14.077,20.574h-11.911l-5.415-7.579
			c-1.083-2.166-2.166-4.332-3.248-6.497l0,0c-1.083,2.165-2.167,4.331-3.249,6.497l-4.332,7.579h-10.829l14.078-20.574
			l-12.994-19.49H719.925z"/>
		<path fill="#FFFFFF" d="M794.643,753.772l4.332,7.581c1.083,2.163,2.166,4.33,3.248,6.496l0,0
			c1.083-2.166,2.166-4.333,3.249-6.496l4.332-7.581h10.829l-11.912,19.49l14.078,20.574h-11.912l-5.415-7.579
			c-1.083-2.166-2.166-4.332-3.249-6.497l0,0c-1.083,2.165-2.166,4.331-3.248,6.497l-4.332,7.579h-10.829l14.078-20.574
			l-12.995-19.49H794.643z"/>
		<path fill="#FFFFFF" d="M834.708,753.772l4.332,7.581c1.083,2.163,2.166,4.33,3.249,6.496l0,0
			c1.082-2.166,2.165-4.333,3.248-6.496l4.332-7.581h10.828l-10.828,19.49l14.076,20.574h-11.911l-5.414-7.579
			c-1.083-2.166-2.166-4.332-3.249-6.497l0,0c-1.082,2.165-2.166,4.331-3.248,6.497l-4.331,7.579h-10.829l14.077-20.574
			l-12.994-19.49H834.708z"/>
		<path fill="#FFFFFF" d="M875.857,753.772l4.331,7.581c1.083,2.163,2.167,4.33,3.249,6.496l0,0
			c1.083-2.166,2.166-4.333,3.248-6.496l4.332-7.581h10.829l-11.912,19.49l14.077,20.574H892.1l-5.415-7.579
			c-1.082-2.166-2.166-4.332-3.248-6.497l0,0c-1.083,2.165-2.166,4.331-3.249,6.497l-5.414,7.579h-10.829l14.077-20.574
			l-12.995-19.49H875.857z"/>
		<path fill="#FFFFFF" d="M917.006,753.772l4.331,7.581c1.083,2.163,2.167,4.33,3.249,6.496l0,0
			c1.083-2.166,2.167-4.333,3.248-6.496l4.331-7.581h10.829l-11.912,19.49l14.078,20.574h-11.911l-5.415-7.579
			c-1.083-2.166-2.166-4.332-3.248-6.497l0,0c-1.082,2.165-2.167,4.331-3.249,6.497l-4.331,7.579h-10.829l14.078-20.574
			l-12.994-19.49H917.006z"/>
		<path fill="#FFFFFF" d="M991.723,753.772l4.33,7.581c1.083,2.163,2.168,4.33,3.25,6.496l0,0c1.082-2.166,2.166-4.333,3.247-6.496
			l4.331-7.581h10.83l-11.912,19.49l14.076,20.574h-11.91l-5.415-7.579c-1.081-2.166-2.165-4.332-3.247-6.497l0,0
			c-1.083,2.165-2.167,4.331-3.25,6.497l-4.33,7.579h-10.829l12.994-20.574l-12.994-19.49H991.723z"/>
		<path fill="#FFFFFF" d="M1031.79,753.772l4.331,7.581c1.082,2.163,2.165,4.33,3.248,6.496l0,0
			c1.083-2.166,2.167-4.333,3.248-6.496l4.331-7.581h10.829l-11.911,19.49l14.076,20.574h-11.91l-5.415-7.579
			c-1.083-2.166-2.166-4.332-3.248-6.497l0,0c-1.083,2.165-2.166,4.331-3.248,6.497l-4.331,7.579h-10.829l14.077-20.574
			l-12.994-19.49H1031.79z"/>
		<path fill="#FFFFFF" d="M1072.938,753.772l4.332,7.581c1.082,2.163,2.163,4.33,3.248,6.496l0,0
			c1.082-2.166,2.166-4.333,3.247-6.496l4.332-7.581h10.828l-11.911,19.49l14.077,20.574h-11.912l-5.414-7.579
			c-1.082-2.166-2.165-4.332-3.247-6.497l0,0c-1.085,2.165-2.166,4.331-3.248,6.497l-4.332,7.579h-10.829l14.077-20.574
			l-12.995-19.49H1072.938z"/>
		<path fill="#FFFFFF" d="M1113.003,753.772l4.331,7.581c1.083,2.163,2.168,4.33,3.248,6.496l0,0
			c1.083-2.166,2.167-4.333,3.248-6.496l4.332-7.581h10.828l-10.828,19.49l14.078,20.574h-11.912l-5.414-7.579
			c-1.084-2.166-2.167-4.332-3.249-6.497l0,0c-1.083,2.165-2.163,4.331-3.248,6.497l-5.414,7.579h-10.829l14.077-20.574
			l-14.077-19.49H1113.003z"/>
	</g>
	<rect x="702.284" y="828.568" fill="#FFFFFF" width="606.4" height="5.414"/>
	<rect x="534.638" y="396.506" fill="#FFFFFF" width="837.048" height="103.955"/>
	<g>
		<path fill="#F69D1B" d="M1258.582,570.648c-12.054,0-23.114,4.259-31.759,11.354c11.195,9.188,18.341,23.133,18.341,38.749
			c0,15.613-7.146,29.56-18.341,38.747c8.645,7.096,19.705,11.353,31.759,11.353c27.672,0,50.104-22.43,50.104-50.1
			C1308.686,593.08,1286.253,570.648,1258.582,570.648z"/>
		<path fill="#EA001B" d="M1208.481,620.75c0-15.615,7.146-29.56,18.342-38.748c-8.645-7.095-19.706-11.354-31.761-11.354
			c-27.672,0-50.103,22.432-50.103,50.103s22.433,50.104,50.103,50.104c12.055,0,23.116-4.261,31.761-11.355
			C1215.626,650.311,1208.481,636.365,1208.481,620.75z"/>
		<path fill="#FF5F00" d="M1245.163,620.75c0-15.615-7.145-29.56-18.34-38.748c-11.197,9.188-18.342,23.133-18.342,38.748
			c0,15.614,7.145,29.561,18.342,38.748C1238.018,650.311,1245.163,636.365,1245.163,620.75z"/>
	</g>
	<polygon id="polygon9_1_" fill="#1A1F71" points="708.952,670.854 686.672,670.854 700.605,584.685 722.883,584.685 	"/>
	<path id="path11_1_" fill="#1A1F71" d="M789.718,585.503c-4.392-1.737-11.364-3.664-19.98-3.664
		c-22.009,0-37.499,11.732-37.601,28.508c-0.176,12.375,11.099,19.249,19.535,23.374c8.616,4.212,11.544,6.969,11.544,10.724
		c-0.08,5.775-6.961,8.438-13.38,8.438c-8.887,0-13.663-1.369-20.9-4.582l-2.937-1.371l-3.116,19.337
		c5.23,2.377,14.857,4.491,24.846,4.584c23.386,0,38.603-11.547,38.782-29.422c0.082-9.816-5.868-17.331-18.703-23.471
		c-7.791-3.944-12.562-6.598-12.562-10.633c0.089-3.672,4.028-7.421,12.832-7.421c7.238-0.189,12.562,1.552,16.594,3.299
		l2.016,0.908L789.718,585.503L789.718,585.503z"/>
	<path id="path13_1_" fill="#1A1F71" d="M820.23,640.327c1.834-4.953,8.894-24.107,8.894-24.107
		c-0.087,0.185,1.839-5.046,2.937-8.252l1.549,7.426c0,0,4.224,20.626,5.144,24.934C835.266,640.327,824.634,640.327,820.23,640.327
		L820.23,640.327z M847.729,584.685h-17.231c-5.309,0-9.353,1.561-11.64,7.146l-33.099,79.023h23.375c0,0,3.852-10.634,4.682-12.927
		c2.564,0,25.308,0,28.601,0c0.642,3.029,2.665,12.927,2.665,12.927h20.623L847.729,584.685L847.729,584.685L847.729,584.685z"/>
	<path fill="#1A1F71" d="M665.686,584.772l-21.821,58.758l-2.388-11.914c0-0.002-0.001-0.004-0.001-0.006l-7.789-39.591
		c-1.281-5.506-5.223-7.061-10.083-7.247h-35.851l-0.361,1.742c8.745,2.238,16.565,5.461,23.417,9.468l19.856,74.873h23.562
		l35.024-86.082L665.686,584.772L665.686,584.772z"/>
	<g>
		<path fill="#FFFFFF" d="M1177.371,794.783v-34.106h-6.223v-7.571h14.676v41.678H1177.371L1177.371,794.783z"/>
		<path fill="#FFFFFF" d="M1198.033,794.196v-6.049c1.019-0.898,2.583-2.257,4.695-4.078c2.113-1.82,3.699-3.2,4.757-4.14
			c1.056-0.938,2.356-2.18,3.902-3.728c1.546-1.546,2.689-2.845,3.436-3.903c1.916-2.739,2.876-5.166,2.876-7.278
			c0-4.146-1.918-6.223-5.755-6.223c-1.876,0-3.345,0.628-4.4,1.879c-1.058,1.253-1.604,2.975-1.644,5.165h-7.985
			c0.04-4.579,1.38-8.061,4.021-10.448c2.643-2.387,6.097-3.581,10.363-3.581c4.264,0,7.609,1.214,10.035,3.64
			c2.427,2.428,3.641,5.479,3.641,9.158c0,2.739-0.705,5.281-2.112,7.629c-0.704,1.255-1.392,2.359-2.056,3.318
			c-0.665,0.959-1.614,2.064-2.846,3.315c-1.233,1.255-2.203,2.231-2.907,2.937c-0.705,0.703-1.771,1.692-3.199,2.964
			c-1.428,1.272-2.416,2.163-2.964,2.672h17.083v6.751H1198.033L1198.033,794.196z"/>
		<path fill="#FFFFFF" d="M1240.27,754.249c2.601-2.133,6.006-3.199,10.213-3.199s7.504,1.066,9.892,3.199s3.581,4.823,3.581,8.071
			c0,2.505-0.646,4.608-1.938,6.311c-1.291,1.703-2.739,2.829-4.344,3.375v0.236c4.696,1.604,7.045,5.146,7.045,10.623
			c0,3.64-1.254,6.575-3.758,8.807c-2.503,2.231-5.948,3.347-10.33,3.347c-4.385,0-7.965-1.115-10.742-3.347
			c-2.78-2.231-4.227-5.497-4.346-9.803h7.983c0.079,1.917,0.735,3.454,1.967,4.607c1.232,1.154,2.886,1.731,4.96,1.731
			c2.075,0,3.65-0.559,4.728-1.672c1.075-1.117,1.613-2.71,1.613-4.784s-0.733-3.611-2.202-4.609
			c-1.467-0.998-3.786-1.498-6.954-1.498h-1.702v-6.749h1.702c5.555,0,8.334-1.856,8.334-5.577c0-1.603-0.509-2.875-1.526-3.814
			c-1.018-0.94-2.465-1.409-4.344-1.409c-1.878,0-3.289,0.527-4.226,1.584c-0.942,1.057-1.49,2.23-1.645,3.522h-8.043
			C1236.306,759.366,1237.667,756.381,1240.27,754.249z"/>
		<path fill="#FFFFFF" d="M1295.243,794.783v-8.336h-20.485v-6.458l19.137-27.472h9.569v26.768h5.164v7.162h-5.164v8.336H1295.243
			L1295.243,794.783z M1295.773,779.285V761.44l-11.74,17.845H1295.773z"/>
	</g>
</g>
</svg>
