<svg id="Layer_1" data-name="Layer 1" xmlns="http://www.w3.org/2000/svg" viewBox="0 0 100 48"><defs><style>.cls-1,.cls-3{fill:#18288a;}.cls-2{fill:#ffbf33;}.cls-3{font-size:28.86px;stroke:#18288a;stroke-miterlimit:10;stroke-width:1.68px;font-family:Square721BT-Roman, Square721 BT;letter-spacing:0.01em;}.cls-4{letter-spacing:-0.05em;}.cls-5{letter-spacing:0.05em;}</style></defs><title>Untitled-3</title><path class="cls-1" d="M59.51,36l.15-.16a1.09,1.09,0,0,1,1.16-.23.76.76,0,0,1,.53.75c0,.71,0,1.43,0,2.15a.22.22,0,0,1,0,.05h-.67c-.1,0-.08-.08-.08-.13,0-.42,0-.85,0-1.27,0-.23,0-.45,0-.68A.38.38,0,0,0,60,36.2a.63.63,0,0,0-.42.67c0,.52,0,1,0,1.56,0,.14,0,.19-.18.18a3.63,3.63,0,0,0-.47,0c-.1,0-.13,0-.13-.13q0-.61,0-1.21c0-.21,0-.43,0-.64a.41.41,0,0,0-.25-.43.57.57,0,0,0-.57.16.75.75,0,0,0-.16.51q0,.79,0,1.57c0,.13,0,.17-.16.16a3.25,3.25,0,0,0-.47,0c-.13,0-.14,0-.14-.15,0-.41,0-.82,0-1.23s0-1,0-1.56h.7V36l0,0a1.16,1.16,0,0,1,.88-.44A.9.9,0,0,1,59.51,36Z"/><path class="cls-1" d="M33,36.12v.67H31v1.12h2.25v.68H30.16V34.53h3v.67H31v.92Z"/><path class="cls-1" d="M9.29,37.28l.79-.08,0,.17a.78.78,0,0,0,.77.61,1,1,0,0,0,.62-.12.5.5,0,0,0,.26-.49.41.41,0,0,0-.33-.35c-.29-.09-.59-.16-.88-.25a1.76,1.76,0,0,1-.81-.41,1.06,1.06,0,0,1,.32-1.73,2.16,2.16,0,0,1,1.72,0,1.09,1.09,0,0,1,.67,1.07h-.81a.6.6,0,0,0-.4-.5,1.07,1.07,0,0,0-.9.09.31.31,0,0,0,.05.55A3.78,3.78,0,0,0,11,36c.3.1.62.16.91.28a1.07,1.07,0,0,1,.72,1.06,1.11,1.11,0,0,1-.68,1.12,2.23,2.23,0,0,1-1.9,0A1.39,1.39,0,0,1,9.29,37.28Z"/><path class="cls-1" d="M54.81,37.73l.2-.61c.15-.46.3-.92.45-1.37,0,0,.06-.09.09-.09h.74l-.3.83-.88,2.42-.09.23a1,1,0,0,1-1.12.65c-.35,0-.35,0-.4-.37,0-.09,0-.17,0-.25h.35a.62.62,0,0,0,.57-.55.38.38,0,0,0,0-.13l-1-2.68-.06-.15H54s.09.06.1.1c.21.6.41,1.21.62,1.82Z"/><path class="cls-1" d="M18.09,38.6h-.67c-.1,0-.08-.07-.08-.13,0-.37,0-.74,0-1.11s0-.45,0-.67-.17-.49-.41-.51a.59.59,0,0,0-.66.45,2.82,2.82,0,0,0-.05.5c0,.46,0,.91,0,1.37,0,0,0,.05,0,.1h-.71s-.06-.08-.06-.13c0-.65,0-1.29,0-1.94,0-.28,0-.57,0-.86h.72v.4l.22-.2a1.17,1.17,0,0,1,1.23-.19.71.71,0,0,1,.49.67C18.11,37.08,18.09,37.83,18.09,38.6Z"/><path class="cls-1" d="M68.55,38.6h-.68c-.11,0-.09-.08-.09-.14,0-.48,0-1,0-1.44,0-.11,0-.21,0-.32s-.06-.42-.3-.5a.58.58,0,0,0-.63.16.88.88,0,0,0-.19.66c0,.46,0,.93,0,1.39,0,.05,0,.1,0,.16H65.9V35.66h.7V36l0,0a1.78,1.78,0,0,1,.13-.15,1.2,1.2,0,0,1,1.36-.2.74.74,0,0,1,.43.66C68.56,37.1,68.55,37.84,68.55,38.6Z"/><path class="cls-1" d="M74.21,36.36l-.67.12s-.07,0-.09-.06a.45.45,0,0,0-.44-.27,2.54,2.54,0,0,0-.44,0,.2.2,0,0,0-.19.2c0,.11.08.17.17.19l.84.23.44.16a.81.81,0,0,1,.27,1.26,1.21,1.21,0,0,1-.86.43,1.92,1.92,0,0,1-1.15-.17,1.07,1.07,0,0,1-.55-.72l.76-.12c.14.44.5.55,1,.41a.26.26,0,0,0,.21-.29c0-.15-.13-.18-.24-.21l-1-.28a.8.8,0,0,1-.54-.45.83.83,0,0,1,.48-1.12,2,2,0,0,1,1.47,0A.9.9,0,0,1,74.21,36.36Z"/><path class="cls-1" d="M34.23,35.66H35s0,.1,0,.14q0,.78,0,1.56c0,.05,0,.1,0,.15,0,.36.17.55.47.55a.59.59,0,0,0,.62-.54c0-.35,0-.7,0-1.06s0-.54,0-.81h.77v2.93h-.71v-.42l-.12.12a1.19,1.19,0,0,1-1.39.25.82.82,0,0,1-.44-.76c0-.69,0-1.38,0-2.08A.19.19,0,0,1,34.23,35.66Z"/><path class="cls-1" d="M71,36.26h-.52a.65.65,0,0,0,0,.09c0,.48,0,1,0,1.43,0,.18.11.25.29.22L71,38l.07.59a1.3,1.3,0,0,1-1.09,0,.54.54,0,0,1-.27-.5c0-.54,0-1.08,0-1.61,0,0,0-.1,0-.16h-.34v-.61h.34c0-.17,0-.32,0-.47a.18.18,0,0,1,.1-.19l.67-.38v1H71Z"/><path class="cls-1" d="M23.73,38.6H23s-.06,0-.08-.08,0-.05,0-.08c0-1.25,0-2.5,0-3.75,0-.14,0-.17.17-.17s.4,0,.6,0Z"/><path class="cls-1" d="M82.23,35.66V36c.18-.21.34-.42.64-.43a1,1,0,0,1,.55.15l-.23.66a2.24,2.24,0,0,0-.3-.1.39.39,0,0,0-.48.26,2,2,0,0,0-.1.54c0,.44,0,.88,0,1.32,0,.05,0,.11,0,.18h-.7s-.07-.09-.07-.13c0-.7,0-1.4,0-2.1v-.69Z"/><path class="cls-1" d="M39.62,36.4l-.14-.07a.44.44,0,0,0-.67.31,4.18,4.18,0,0,0-.09.78c0,.33,0,.67,0,1,0,.05,0,.1,0,.16H38V35.66h.71V36h0l.11-.15a.73.73,0,0,1,1-.18.11.11,0,0,1,0,.09C39.77,36,39.69,36.19,39.62,36.4Z"/><path class="cls-1" d="M13.59,38.6V35.66h.76s0,.08,0,.12c0,.89,0,1.77,0,2.66,0,.13,0,.16-.16.15Z"/><path class="cls-1" d="M14.34,34.39h-.75v-.7h.75Z"/><path class="cls-1" d="M21.88,35.66h-.72v.4L21.1,36a1.14,1.14,0,0,0-1.89.24,1.91,1.91,0,0,0,0,1.75,1.09,1.09,0,0,0,1.81.26l.07-.07c0,.23,0,.45,0,.67a.33.33,0,0,1-.27.32,2.47,2.47,0,0,1-.52,0A.29.29,0,0,1,20,39a.11.11,0,0,0-.07-.07l-.82-.1s0,.07,0,.1a.84.84,0,0,0,.68.82,2.8,2.8,0,0,0,1.09.05,1,1,0,0,0,.91-.7,1.83,1.83,0,0,0,.07-.47c0-.94,0-1.89,0-2.83A1,1,0,0,0,21.88,35.66ZM21,37.56a.64.64,0,0,1-.64.4.61.61,0,0,1-.54-.49c0-.13,0-.27-.07-.44a3.28,3.28,0,0,1,.1-.46.56.56,0,0,1,.53-.4.58.58,0,0,1,.6.38A1.3,1.3,0,0,1,21,37.56Z"/><path class="cls-1" d="M80.71,38.32l-1.46-3.65a.19.19,0,0,0-.22-.15c-.19,0-.39,0-.58,0a.14.14,0,0,0-.16.11l-1.51,3.89a.34.34,0,0,0,0,.09h.73a.13.13,0,0,0,.15-.11c.08-.24.17-.47.25-.71a.16.16,0,0,1,.18-.13h1.37a.16.16,0,0,1,.18.13c.08.23.17.46.26.69,0,0,.06.11.1.12h.84ZM78.2,37l.55-1.52L79.31,37Z"/><path class="cls-1" d="M48,34.54l-1.71,0h-.18v4.07h.8c0-.06,0-.11,0-.16,0-.4,0-.81,0-1.21,0-.13,0-.18.17-.17.3,0,.59,0,.89,0a1.25,1.25,0,0,0,0-2.5Zm-.07,1.79c-.31,0-.62,0-.93,0,0,0-.08,0-.08-.07,0-.36,0-.72,0-1.12.36,0,.7,0,1,.07a.49.49,0,0,1,.41.56A.5.5,0,0,1,47.95,36.32Z"/><path class="cls-1" d="M89.88,37.48c0-.39,0-.79,0-1.18a.58.58,0,0,0-.37-.56,2.63,2.63,0,0,0-.66-.15,1.73,1.73,0,0,0-.9.12,1,1,0,0,0-.55.71l.69.13a.47.47,0,0,1,.39-.36,1.43,1.43,0,0,1,.35,0,.33.33,0,0,1,.31.39.17.17,0,0,1-.09.13c-.15.05-.31.08-.47.12a6.9,6.9,0,0,0-.79.21.74.74,0,0,0-.48.75.78.78,0,0,0,.46.76,1.2,1.2,0,0,0,1.18-.08l.25-.18a1.87,1.87,0,0,0,.07.22s.06.08.09.08h.71A2.26,2.26,0,0,1,89.88,37.48Zm-.77.18a.59.59,0,0,1-.89.35.35.35,0,0,1,.11-.62c.25-.08.52-.14.79-.21A3.08,3.08,0,0,1,89.1,37.66Z"/><path class="cls-1" d="M52.58,37.34c0-.28,0-.56,0-.84a.75.75,0,0,0-.5-.81,2.1,2.1,0,0,0-1.46,0,.94.94,0,0,0-.54.71l.68.12a.63.63,0,0,1,.84-.33.36.36,0,0,1,.23.38c0,.15-.13.11-.21.15l-.12,0c-.34.08-.68.15-1,.26a.84.84,0,0,0-.28,1.34,1,1,0,0,0,1.07.24,3.71,3.71,0,0,0,.61-.29.94.94,0,0,0,.06.18.17.17,0,0,0,.11.09h.69A2.52,2.52,0,0,1,52.58,37.34Zm-1.22.76a.43.43,0,0,1-.59-.39.33.33,0,0,1,.23-.3l.2-.06.62-.14C51.86,37.73,51.77,38,51.36,38.09Z"/><path class="cls-1" d="M41.8,35.58a1.47,1.47,0,0,0-1.5,1.51,1.45,1.45,0,0,0,1.54,1.57,1.54,1.54,0,0,0,0-3.08Zm.7,1.92a.69.69,0,0,1-1.35,0,3,3,0,0,1-.06-.32,1.09,1.09,0,0,1,.2-.7.65.65,0,0,1,.63-.24.69.69,0,0,1,.57.51A1.29,1.29,0,0,1,42.5,37.5Z"/><path class="cls-1" d="M26.55,37.67c-.19.38-.4.49-.72.38a.64.64,0,0,1-.41-.7h1.95c0-.24,0-.47-.08-.69A1.28,1.28,0,0,0,26,35.58a1.3,1.3,0,0,0-1.32,1,2.13,2.13,0,0,0,0,.94,1.24,1.24,0,0,0,.88,1.07,1.71,1.71,0,0,0,1,0,1.18,1.18,0,0,0,.81-.81l-.69-.12Zm-.49-1.49a.61.61,0,0,1,.51.7H25.49s-.08-.06-.08-.1A.59.59,0,0,1,26.06,36.18Z"/><path class="cls-1" d="M85,38a.65.65,0,0,1-.41-.71h1.95c0-.24,0-.46-.08-.68a1.27,1.27,0,0,0-1.25-1.08,1.28,1.28,0,0,0-1.34.89,2,2,0,0,0,0,1.29,1.16,1.16,0,0,0,.67.77,1.65,1.65,0,0,0,1.27,0,1.18,1.18,0,0,0,.67-.76l-.76-.13C85.57,38,85.36,38.16,85,38Zm.24-1.87a.61.61,0,0,1,.5.69H84.7s-.07-.07-.06-.1A.59.59,0,0,1,85.28,36.18Z"/><path class="cls-1" d="M64.11,37.76a.47.47,0,0,1-.35.31.64.64,0,0,1-.74-.72H65c0-.18,0-.33,0-.49a1.35,1.35,0,0,0-2.58-.5,2,2,0,0,0-.11,1.16,1.25,1.25,0,0,0,.88,1.07,1.69,1.69,0,0,0,1,0,1.17,1.17,0,0,0,.81-.81l-.71-.12S64.13,37.72,64.11,37.76Zm-.79-1.51a.53.53,0,0,1,.59,0,.65.65,0,0,1,.27.6H63.09s-.07,0-.07-.06A.62.62,0,0,1,63.33,36.25Z"/><path class="cls-2" d="M48.87,16.08l-.35.74-.94,2a.28.28,0,0,1-.29.19H35.65c-.13,0-.18,0-.18.17,0,.45,0,.91,0,1.36,0,.15,0,.29,0,.44s0,.27.29.27H46.43a1,1,0,0,1,0,.13l-.94,2-.34.74a.15.15,0,0,1-.16.1H36.82l-.18,0a8,8,0,0,0,3.66,3.17,7.89,7.89,0,0,0,4.77.49,8.15,8.15,0,0,0,4.24-2.33c0,.05,0,.09,0,.13,0,1.08,0,2.17,0,3.25a.21.21,0,0,1-.11.21c-.38.21-.76.45-1.15.64a13.24,13.24,0,0,1-1.25.53,7.62,7.62,0,0,1-1,.29c-.49.1-1,.19-1.48.26a9.35,9.35,0,0,1-2,0,10.87,10.87,0,0,1-1.2-.15,8.28,8.28,0,0,1-1.63-.42c-.51-.21-1-.4-1.52-.63a9.8,9.8,0,0,1-1.94-1.23,10.54,10.54,0,0,1-2.37-2.62c-.31-.49-.55-1-.81-1.53a.22.22,0,0,0-.23-.13H29l.29-.64L30,21.92c.09-.2.18-.4.28-.59a.19.19,0,0,1,.14-.07h1.37c.21,0,.19,0,.17-.21s0-.54,0-.81,0-.72,0-1.09c0-.12-.05-.14-.15-.14h-3a2.3,2.3,0,0,1,.08-.23L30,16.51a2.78,2.78,0,0,0,.13-.3c0-.11.11-.13.21-.13h2.26a.15.15,0,0,0,.16-.11,11.78,11.78,0,0,1,.92-1.75,10.91,10.91,0,0,1,1.66-2,11.07,11.07,0,0,1,1.77-1.36A10.94,10.94,0,0,1,38.77,10c.4-.16.83-.29,1.24-.42s.69-.18,1-.26a2.77,2.77,0,0,1,.37-.06l.84-.07c.36,0,.73-.05,1.09,0a11.14,11.14,0,0,1,1.19.1,11.3,11.3,0,0,1,1.31.23c.49.13,1,.29,1.45.46a9.25,9.25,0,0,1,1.64.81,10.83,10.83,0,0,1,1.78,1.32c.13.12,0,.21,0,.29-.25.55-.51,1.1-.76,1.65-.09.19-.18.39-.27.58s-.08,0-.12,0c-.31-.31-.62-.63-.95-.91a7.19,7.19,0,0,0-2-1.22,10.87,10.87,0,0,0-1.35-.41,7.26,7.26,0,0,0-2.39-.16c-.32,0-.64.11-1,.15a6.09,6.09,0,0,0-1.51.47,6.8,6.8,0,0,0-1.79,1.07,10.45,10.45,0,0,0-1.13,1.08c-.34.39-.61.84-.92,1.27-.07.1,0,.14.08.14H48.87Z"/><text class="cls-3" transform="translate(8 29.77) scale(1.03 0.94)"><tspan xml:space="preserve">S  </tspan><tspan class="cls-4" x="41.38" y="0">P</tspan><tspan class="cls-5" x="58.82" y="0">A</tspan></text></svg>