<svg id="svg" version="1.1" width="400" height="303" viewBox="0 0 400 303" xmlns="http://www.w3.org/2000/svg" xmlns:xlink="http://www.w3.org/1999/xlink" ><g id="svgg"><path id="path0" d="M0.000 151.515 L 0.000 303.030 200.000 303.030 L 400.000 303.030 400.000 151.515 L 400.000 0.000 200.000 0.000 L 0.000 0.000 0.000 151.515 M118.204 57.392 C 118.942 57.624,120.467 58.100,121.593 58.451 C 122.718 58.801,123.878 59.210,124.168 59.359 C 124.459 59.508,125.447 59.989,126.364 60.427 C 131.115 62.699,135.390 67.076,138.458 72.810 C 138.973 73.772,139.394 74.745,139.394 74.972 C 139.394 75.199,139.598 75.776,139.847 76.253 C 140.096 76.731,140.300 77.615,140.301 78.219 C 140.302 78.824,140.508 79.897,140.758 80.606 C 141.089 81.544,141.212 83.205,141.212 86.720 C 141.212 94.108,141.076 94.242,133.611 94.242 C 129.173 94.242,128.611 94.183,127.687 93.612 L 126.667 92.981 126.671 88.687 C 126.674 84.578,126.134 80.566,125.420 79.394 C 125.267 79.144,124.995 78.564,124.814 78.106 C 124.634 77.648,124.363 77.273,124.213 77.273 C 124.062 77.273,123.939 77.113,123.939 76.918 C 123.939 76.277,121.040 73.772,119.386 72.983 C 115.316 71.044,111.610 71.086,107.273 73.119 C 104.861 74.249,101.212 78.575,101.212 80.304 C 101.212 80.596,101.008 81.325,100.758 81.923 C 100.416 82.740,100.303 84.249,100.303 87.986 L 100.303 92.961 99.470 93.526 C 98.731 94.026,98.002 94.091,93.081 94.091 L 87.526 94.091 86.642 93.101 L 85.758 92.112 85.765 86.889 C 85.769 84.017,85.915 81.121,86.089 80.455 C 86.264 79.788,86.529 78.572,86.678 77.753 C 86.827 76.933,87.090 76.122,87.262 75.950 C 87.435 75.777,87.576 75.420,87.576 75.155 C 87.576 74.890,87.848 74.139,88.182 73.485 C 88.515 72.831,88.788 72.116,88.788 71.896 C 88.788 71.676,88.980 71.422,89.215 71.332 C 89.450 71.242,89.725 70.837,89.827 70.433 C 89.928 70.028,90.145 69.697,90.309 69.697 C 90.472 69.697,90.606 69.549,90.606 69.369 C 90.606 69.189,91.117 68.412,91.742 67.642 C 94.294 64.500,97.714 61.724,100.758 60.322 C 101.591 59.939,102.511 59.504,102.801 59.356 C 103.092 59.209,104.251 58.801,105.377 58.449 C 106.503 58.098,107.970 57.633,108.636 57.414 C 110.308 56.867,116.489 56.853,118.204 57.392 M146.793 103.548 C 147.953 103.890,149.693 104.697,150.577 105.303 C 151.446 105.898,154.242 108.849,154.242 109.170 C 154.242 109.350,154.426 109.713,154.651 109.976 C 156.174 111.760,156.178 111.822,156.283 137.002 C 156.347 152.330,156.275 160.800,156.076 161.324 L 155.770 162.129 132.506 162.034 C 108.357 161.936,107.211 161.877,106.001 160.668 C 105.801 160.467,105.465 160.303,105.256 160.303 C 103.971 160.303,99.101 155.774,98.688 154.195 C 98.292 152.683,97.593 152.727,122.007 152.727 L 144.848 152.727 144.835 147.197 C 144.828 144.155,144.699 141.121,144.549 140.455 C 144.400 139.788,144.126 138.561,143.943 137.727 C 143.759 136.894,143.410 135.850,143.168 135.408 C 142.926 134.965,142.727 134.397,142.727 134.144 C 142.727 133.739,142.229 132.584,141.462 131.212 C 141.322 130.962,141.040 130.417,140.835 130.000 C 140.629 129.583,140.290 129.062,140.079 128.842 C 139.869 128.622,139.697 128.247,139.697 128.009 C 139.697 127.771,139.556 127.576,139.384 127.576 C 139.213 127.576,138.985 127.337,138.880 127.045 C 138.677 126.485,132.658 120.303,132.315 120.303 C 132.205 120.303,131.469 119.854,130.679 119.305 C 129.182 118.266,125.512 116.365,124.995 116.362 C 124.831 116.361,124.343 116.175,123.911 115.950 C 123.479 115.724,122.593 115.443,121.942 115.325 C 121.290 115.206,120.173 114.914,119.459 114.676 C 117.658 114.075,109.312 114.075,107.511 114.676 C 106.796 114.914,105.667 115.205,105.000 115.321 C 104.333 115.438,103.652 115.635,103.485 115.760 C 103.318 115.885,102.841 116.082,102.424 116.200 C 101.152 116.558,97.809 118.251,96.291 119.305 C 95.501 119.854,94.771 120.303,94.670 120.303 C 94.137 120.303,87.273 127.700,87.273 128.274 C 87.273 128.373,86.873 129.046,86.386 129.769 C 85.898 130.492,85.407 131.448,85.295 131.893 C 85.183 132.338,84.901 132.861,84.667 133.055 C 84.434 133.249,84.242 133.677,84.242 134.006 C 84.242 134.334,84.053 134.965,83.821 135.408 C 81.801 139.268,81.796 151.520,83.814 155.555 C 84.049 156.027,84.242 156.596,84.242 156.819 C 84.242 157.172,86.021 160.795,87.068 162.576 C 87.788 163.801,90.789 167.457,91.968 168.545 C 94.687 171.056,95.625 171.818,95.994 171.818 C 96.208 171.818,96.456 172.010,96.547 172.245 C 96.637 172.480,97.042 172.756,97.446 172.857 C 97.851 172.959,98.182 173.176,98.182 173.339 C 98.182 173.503,98.436 173.636,98.747 173.636 C 99.058 173.636,99.659 173.909,100.083 174.242 C 100.506 174.576,101.122 174.848,101.450 174.848 C 101.778 174.848,102.217 175.053,102.424 175.303 C 102.632 175.553,103.139 175.758,103.552 175.758 C 103.965 175.758,104.732 175.956,105.257 176.198 C 107.728 177.337,112.772 177.576,134.312 177.576 C 157.772 177.576,156.335 177.422,155.550 179.848 C 155.280 180.682,154.876 181.579,154.651 181.842 C 154.426 182.105,154.242 182.484,154.242 182.685 C 154.242 182.885,154.038 183.128,153.788 183.224 C 153.538 183.320,153.333 183.513,153.333 183.653 C 153.333 184.273,149.775 187.273,149.039 187.273 C 148.808 187.273,148.283 187.511,147.870 187.803 C 147.168 188.300,145.039 188.333,113.636 188.333 L 80.152 188.333 78.362 187.469 C 76.337 186.490,73.109 183.451,72.360 181.818 C 70.622 178.026,70.758 181.084,70.758 145.606 C 70.758 110.737,70.691 112.435,72.153 110.000 C 72.303 109.750,72.549 109.264,72.699 108.921 C 73.024 108.177,76.209 105.210,77.101 104.820 C 77.446 104.670,77.932 104.418,78.182 104.261 C 80.011 103.110,80.264 103.102,113.485 103.151 C 136.767 103.185,145.933 103.294,146.793 103.548 M200.758 113.767 C 202.258 113.984,203.962 114.335,204.545 114.548 C 205.129 114.760,206.152 115.132,206.818 115.374 C 209.313 116.279,213.919 118.834,214.192 119.464 C 214.247 119.592,214.454 119.697,214.651 119.697 C 215.092 119.697,219.238 123.662,220.466 125.258 C 220.960 125.900,221.506 126.582,221.680 126.773 C 222.288 127.441,224.242 130.840,224.242 131.228 C 224.242 131.443,224.424 131.834,224.645 132.097 C 225.142 132.688,226.364 135.921,226.364 136.647 C 226.364 136.940,226.600 137.644,226.890 138.211 C 227.341 139.095,227.416 140.171,227.416 145.758 C 227.416 151.344,227.341 152.420,226.890 153.304 C 226.600 153.871,226.364 154.519,226.364 154.742 C 226.364 155.440,225.145 158.709,224.379 160.067 C 223.976 160.780,223.523 161.636,223.372 161.970 C 221.825 165.388,214.172 173.333,212.427 173.333 C 212.259 173.333,212.121 173.456,212.121 173.607 C 212.121 173.757,211.746 174.034,211.288 174.221 C 210.830 174.409,209.705 174.965,208.788 175.458 C 207.871 175.950,206.966 176.356,206.777 176.359 C 206.588 176.361,206.042 176.567,205.565 176.816 C 205.088 177.065,204.407 177.270,204.053 177.271 C 203.699 177.272,202.830 177.477,202.121 177.727 C 201.074 178.097,198.921 178.182,190.601 178.182 L 180.369 178.182 180.179 178.936 C 180.075 179.351,179.998 186.953,180.007 195.830 L 180.023 211.970 179.372 212.500 C 178.241 213.421,164.462 213.294,163.805 212.357 C 162.777 210.890,163.197 140.088,164.247 137.727 C 164.396 137.394,164.651 136.644,164.816 136.061 C 166.917 128.601,173.414 120.641,180.152 117.273 C 180.985 116.856,181.736 116.424,181.821 116.312 C 181.906 116.200,182.383 116.009,182.882 115.888 C 183.380 115.766,184.057 115.483,184.386 115.258 C 184.714 115.033,185.303 114.848,185.693 114.848 C 186.084 114.848,186.701 114.682,187.065 114.479 C 188.833 113.491,196.196 113.109,200.758 113.767 M285.474 113.647 C 286.030 113.944,286.061 114.357,286.061 121.533 L 286.061 129.106 285.283 129.401 C 284.816 129.579,278.495 129.698,269.450 129.699 C 252.809 129.701,252.636 129.718,251.230 131.492 C 250.065 132.964,250.023 134.218,251.092 135.621 C 252.284 137.184,252.998 137.269,265.000 137.277 C 273.149 137.283,276.484 137.394,278.182 137.716 C 280.778 138.210,283.333 139.048,283.333 139.406 C 283.333 139.539,283.742 139.739,284.242 139.848 C 284.742 139.958,285.152 140.164,285.152 140.307 C 285.152 140.449,285.442 140.657,285.797 140.770 C 286.920 141.127,291.004 145.517,291.933 147.366 C 292.413 148.322,292.925 149.177,293.070 149.267 C 293.215 149.356,293.333 149.735,293.333 150.109 C 293.333 150.482,293.487 150.942,293.675 151.130 C 294.527 151.982,295.127 157.877,294.640 160.606 C 293.121 169.117,288.004 175.027,279.848 177.691 C 277.901 178.327,216.818 178.311,216.818 177.674 C 216.818 177.317,218.895 175.758,219.371 175.758 C 220.485 175.758,226.239 169.197,227.743 166.212 C 227.995 165.712,228.469 164.894,228.797 164.394 C 229.124 163.894,229.538 163.121,229.717 162.676 C 230.245 161.363,230.129 161.370,253.678 161.212 L 276.295 161.061 277.057 160.299 C 278.323 159.032,278.274 156.427,276.959 155.141 L 276.040 154.242 264.156 154.235 C 256.929 154.231,251.798 154.104,251.061 153.913 C 250.394 153.739,249.276 153.475,248.576 153.326 C 247.876 153.176,247.057 152.923,246.757 152.764 C 246.458 152.604,245.609 152.179,244.872 151.820 C 242.360 150.596,239.497 148.093,237.184 145.097 C 233.572 140.419,232.705 130.666,235.442 125.510 C 235.591 125.230,235.797 124.795,235.899 124.545 C 236.794 122.353,239.992 118.709,242.576 116.938 C 243.976 115.979,244.653 115.619,247.348 114.405 C 247.890 114.161,249.152 113.836,250.152 113.684 C 252.768 113.285,284.736 113.252,285.474 113.647 M116.116 128.524 C 116.397 128.669,117.058 128.788,117.585 128.788 C 118.112 128.788,118.905 128.977,119.347 129.208 C 119.790 129.439,120.492 129.787,120.909 129.981 C 122.489 130.715,123.333 131.255,123.333 131.532 C 123.333 131.689,123.473 131.818,123.643 131.818 C 124.027 131.818,127.273 135.035,127.273 135.416 C 127.273 135.568,127.459 135.764,127.687 135.852 C 128.159 136.033,128.495 137.372,128.192 137.862 C 128.052 138.089,123.529 138.164,113.314 138.109 L 98.636 138.030 98.703 137.123 C 98.740 136.625,98.979 136.064,99.234 135.878 C 99.489 135.692,99.697 135.397,99.697 135.222 C 99.697 134.658,103.827 131.083,105.345 130.332 C 106.155 129.932,107.180 129.421,107.623 129.196 C 108.065 128.972,108.747 128.782,109.138 128.775 C 109.529 128.767,110.530 128.570,111.364 128.337 C 112.874 127.914,115.109 128.002,116.116 128.524 M192.879 130.194 C 192.212 130.265,191.258 130.508,190.758 130.735 C 190.258 130.961,189.168 131.460,188.337 131.843 C 186.228 132.814,182.774 136.356,181.860 138.485 C 181.467 139.402,180.939 140.629,180.688 141.212 C 180.192 142.366,179.707 158.792,180.121 160.441 L 180.329 161.270 189.786 161.156 C 198.859 161.047,199.304 161.015,200.758 160.351 C 203.463 159.117,204.346 158.645,204.847 158.163 C 205.118 157.903,205.608 157.494,205.936 157.254 C 206.718 156.682,208.788 154.115,208.788 153.718 C 208.788 153.547,208.992 153.238,209.242 153.030 C 209.492 152.823,209.698 152.431,209.699 152.160 C 209.700 151.889,209.934 151.258,210.220 150.758 C 210.850 149.655,211.007 141.917,210.414 141.183 C 210.225 140.949,209.976 140.316,209.860 139.776 C 209.745 139.236,209.528 138.719,209.379 138.627 C 209.229 138.535,208.885 137.992,208.614 137.421 C 208.188 136.522,205.757 133.826,204.505 132.864 C 201.802 130.786,197.213 129.732,192.879 130.194 M207.214 194.848 C 207.884 196.066,207.268 197.273,205.977 197.273 C 204.202 197.273,203.671 195.951,204.913 194.628 C 205.737 193.751,206.660 193.840,207.214 194.848 M211.844 194.572 C 212.943 195.670,212.210 197.263,210.606 197.263 C 208.927 197.263,208.418 196.025,209.593 194.799 C 210.575 193.774,211.003 193.730,211.844 194.572 M203.952 198.973 C 204.133 199.448,204.075 200.095,203.777 200.939 C 203.533 201.631,203.333 202.697,203.333 203.308 C 203.333 203.918,203.126 205.214,202.873 206.186 C 202.163 208.911,202.810 209.850,205.394 209.846 C 208.296 209.842,208.951 208.831,209.809 203.030 C 210.270 199.911,210.919 198.316,211.847 198.021 C 213.454 197.511,213.895 199.652,212.975 203.485 C 212.815 204.152,212.556 205.447,212.401 206.364 C 211.293 212.887,204.236 215.651,200.382 211.070 C 199.558 210.091,199.489 204.580,200.272 202.273 C 200.442 201.773,200.689 200.754,200.821 200.009 C 201.185 197.949,203.297 197.250,203.952 198.973 M282.440 198.653 C 283.522 199.805,282.797 201.061,281.049 201.061 C 279.886 201.061,279.846 201.026,279.756 199.953 C 279.599 198.073,281.177 197.308,282.440 198.653 M218.808 198.661 C 219.138 199.059,219.124 199.447,218.726 200.934 C 218.198 202.905,218.501 203.269,219.831 202.263 C 221.235 201.201,224.292 202.258,225.484 204.218 C 228.170 208.635,222.551 214.940,217.851 212.782 C 216.690 212.248,216.453 212.224,216.037 212.599 C 213.731 214.678,213.447 211.079,215.323 203.565 C 215.562 202.609,215.758 201.310,215.758 200.678 C 215.758 198.572,217.680 197.301,218.808 198.661 M235.995 202.378 C 236.059 202.570,236.261 202.727,236.445 202.727 C 237.500 202.727,238.182 204.042,238.182 206.076 C 238.182 208.695,238.100 208.749,233.946 208.853 C 230.344 208.943,229.416 209.328,231.255 209.970 C 231.986 210.224,232.689 210.222,234.018 209.960 C 236.992 209.375,237.805 211.313,235.103 212.549 C 227.518 216.022,223.687 206.080,231.216 202.460 C 232.688 201.752,235.769 201.700,235.995 202.378 M247.980 202.550 C 248.653 203.276,248.665 203.277,249.405 202.708 C 251.263 201.280,252.008 201.965,252.716 205.754 C 253.236 208.531,253.269 208.530,254.658 205.679 C 257.098 200.676,258.892 200.730,259.280 205.819 C 259.514 208.884,259.736 208.815,261.448 205.148 C 262.563 202.759,263.285 202.042,264.443 202.174 C 265.533 202.299,265.786 203.628,264.946 204.817 C 264.639 205.251,263.776 206.803,263.028 208.267 C 261.038 212.156,261.014 212.194,260.248 212.619 C 258.573 213.548,257.008 212.292,256.939 209.964 C 256.883 208.061,256.511 207.233,256.239 208.409 C 256.115 208.951,255.902 209.394,255.766 209.394 C 255.631 209.394,255.432 209.747,255.324 210.177 C 254.791 212.299,252.244 213.818,251.242 212.612 C 250.760 212.031,250.014 209.042,249.802 206.839 C 249.705 205.828,249.418 204.670,249.166 204.267 L 248.707 203.534 248.283 204.343 C 247.898 205.078,247.699 205.152,246.098 205.152 C 243.699 205.152,242.861 206.361,242.252 210.699 C 241.981 212.628,241.021 213.372,239.818 212.584 C 239.180 212.165,239.068 211.915,239.231 211.261 C 239.341 210.817,239.552 209.568,239.699 208.485 C 240.445 203.015,241.518 201.033,242.954 202.470 C 243.217 202.732,243.549 202.696,244.303 202.325 C 245.785 201.594,247.173 201.679,247.980 202.550 M274.546 202.460 C 276.678 203.571,277.595 206.396,276.342 207.989 C 275.736 208.760,275.603 208.788,272.591 208.788 C 270.276 208.788,269.377 208.898,269.114 209.214 C 268.510 209.942,270.622 210.462,272.286 209.996 C 274.157 209.472,275.152 209.777,275.152 210.873 C 275.152 212.709,269.733 214.069,268.006 212.666 C 265.888 210.945,265.758 210.695,265.758 208.346 C 265.758 203.699,270.644 200.426,274.546 202.460 M291.293 202.587 C 292.578 203.460,292.523 203.338,292.117 204.406 C 291.792 205.260,291.587 205.278,288.636 204.707 C 287.995 204.583,287.508 204.704,286.984 205.116 L 286.240 205.702 287.670 205.916 C 292.701 206.671,293.783 210.579,289.546 212.694 C 286.722 214.105,282.574 212.933,282.789 210.786 C 282.916 209.522,284.088 209.243,285.774 210.078 C 286.736 210.554,287.222 210.634,287.832 210.420 C 289.315 209.898,288.958 209.284,286.816 208.670 C 285.512 208.297,284.624 207.841,284.233 207.343 C 281.693 204.114,287.643 200.106,291.293 202.587 M315.094 202.405 C 315.154 202.582,315.370 202.727,315.574 202.727 C 317.064 202.727,317.871 207.376,316.818 209.895 C 316.568 210.494,316.364 211.194,316.364 211.453 C 316.364 212.104,315.468 213.030,314.839 213.030 C 313.690 213.030,313.521 212.298,313.916 209.038 C 314.380 205.212,313.984 204.604,311.452 205.250 C 310.548 205.481,309.397 207.606,309.391 209.054 C 309.379 211.907,308.291 213.453,306.781 212.765 C 305.985 212.403,305.829 211.256,306.345 209.567 C 306.502 209.055,306.758 207.668,306.916 206.484 C 307.376 203.018,308.906 200.900,309.848 202.424 C 310.126 202.874,311.278 202.774,311.970 202.240 C 312.641 201.721,314.907 201.841,315.094 202.405 M326.836 202.263 C 327.516 202.778,328.667 202.866,328.939 202.424 C 329.974 200.751,331.558 203.006,330.811 205.090 C 330.530 205.874,330.297 207.061,330.294 207.727 C 330.291 208.394,330.145 209.485,329.969 210.152 C 329.793 210.818,329.534 212.092,329.393 212.982 C 328.929 215.902,326.192 218.159,323.096 218.175 C 319.998 218.191,317.071 215.269,318.790 213.877 C 319.571 213.244,320.504 213.391,321.212 214.256 C 322.333 215.626,325.567 215.195,325.910 213.631 C 326.019 213.134,326.257 212.727,326.438 212.727 C 326.619 212.727,326.698 212.657,326.612 212.572 C 326.527 212.486,325.929 212.637,325.283 212.907 C 323.894 213.487,321.783 213.342,321.057 212.615 C 320.785 212.343,320.447 212.121,320.306 212.121 C 319.621 212.121,318.788 210.021,318.788 208.294 C 318.788 204.236,324.141 200.225,326.836 202.263 M281.873 202.878 C 282.133 203.449,282.128 203.935,281.850 204.861 C 281.648 205.536,281.372 207.070,281.236 208.271 C 280.908 211.175,280.118 212.848,279.015 212.975 C 277.620 213.135,277.381 210.352,278.474 206.669 C 278.647 206.086,278.788 205.103,278.788 204.484 C 278.788 202.438,281.120 201.225,281.873 202.878 M297.249 202.683 C 297.448 203.056,297.442 204.229,297.231 206.177 C 296.827 209.895,297.276 210.520,299.854 209.827 C 300.674 209.607,301.818 206.758,301.818 204.937 C 301.818 203.345,302.671 202.121,303.780 202.121 C 305.181 202.121,305.514 203.442,304.697 205.758 C 304.447 206.466,304.242 207.608,304.241 208.296 C 304.236 211.558,303.032 213.432,301.430 212.669 C 300.538 212.243,300.286 212.228,299.797 212.570 C 299.226 212.970,298.055 213.165,296.753 213.076 C 294.318 212.910,293.240 209.080,294.387 204.676 C 295.042 202.159,296.446 201.182,297.249 202.683 M232.144 205.114 C 230.569 205.554,231.101 206.061,233.139 206.061 C 235.295 206.061,235.865 205.739,234.673 205.196 C 233.843 204.817,233.272 204.799,232.144 205.114 M270.361 205.258 C 268.965 205.764,269.460 206.061,271.699 206.061 C 273.758 206.061,274.452 205.634,273.180 205.151 C 272.191 204.775,271.636 204.796,270.361 205.258 M323.788 205.121 C 322.271 205.777,321.381 208.775,322.401 209.794 C 323.061 210.455,325.418 210.174,326.257 209.335 C 328.442 207.150,326.552 203.925,323.788 205.121 M219.052 205.530 C 216.839 207.361,217.345 210.152,219.872 210.057 C 222.074 209.975,223.502 207.947,222.750 205.970 C 222.401 205.050,219.981 204.762,219.052 205.530 " stroke="none" fill="#ffffff" fill-rule="evenodd"></path><path id="path1" d="M189.091 114.697 C 188.508 114.922,187.689 115.117,187.273 115.130 C 186.856 115.144,186.125 115.359,185.647 115.608 C 185.170 115.857,184.641 116.061,184.472 116.061 C 182.257 116.061,174.845 121.310,171.637 125.152 C 167.906 129.618,166.701 132.043,164.708 139.091 C 164.292 140.563,164.246 144.912,164.315 176.364 L 164.394 211.970 171.305 212.051 C 175.105 212.096,178.417 212.020,178.663 211.882 C 179.050 211.665,179.109 209.383,179.096 195.099 C 179.082 180.025,179.126 178.530,179.586 178.147 C 179.984 177.817,182.255 177.687,190.273 177.539 C 199.651 177.365,203.536 177.049,204.380 176.392 C 204.554 176.256,205.106 176.052,205.606 175.940 C 206.430 175.756,207.898 175.156,209.091 174.516 C 209.341 174.382,210.130 173.978,210.844 173.619 C 211.558 173.260,212.308 172.810,212.510 172.619 C 212.713 172.429,213.429 171.900,214.101 171.444 C 216.718 169.668,220.904 165.045,222.406 162.273 C 222.766 161.606,223.180 160.856,223.325 160.606 C 223.895 159.621,224.848 157.542,224.848 157.283 C 224.848 157.132,225.010 156.625,225.208 156.156 C 227.743 150.136,227.385 140.023,224.395 133.182 C 224.177 132.682,223.919 132.068,223.824 131.818 C 223.728 131.568,223.306 130.818,222.887 130.152 C 222.468 129.485,222.032 128.735,221.919 128.485 C 221.251 127.012,215.083 120.303,214.398 120.303 C 214.309 120.303,213.557 119.826,212.727 119.242 C 211.897 118.659,211.097 118.182,210.949 118.182 C 210.801 118.182,210.511 117.977,210.303 117.727 C 210.096 117.477,209.680 117.273,209.378 117.273 C 209.077 117.273,208.651 117.102,208.431 116.894 C 208.073 116.555,207.070 116.205,202.081 114.673 C 200.183 114.091,190.619 114.108,189.091 114.697 M248.636 114.755 C 246.908 115.401,244.447 116.476,244.091 116.740 C 239.294 120.298,237.132 122.868,235.851 126.536 C 234.500 130.402,234.085 133.294,234.548 135.614 C 234.747 136.610,235.022 138.057,235.159 138.830 C 235.295 139.603,235.554 140.490,235.734 140.800 C 235.913 141.110,236.203 141.705,236.377 142.121 C 237.861 145.678,241.693 149.517,245.530 151.292 C 246.155 151.582,247.110 152.024,247.652 152.275 C 249.396 153.085,252.959 153.314,263.904 153.324 C 275.544 153.334,276.499 153.444,277.737 154.915 C 279.651 157.190,279.134 159.942,276.514 161.425 L 275.303 162.111 253.258 162.116 C 229.183 162.122,230.000 162.063,230.000 163.788 C 230.000 164.038,229.894 164.242,229.763 164.242 C 229.633 164.242,229.363 164.617,229.163 165.076 C 227.557 168.759,223.927 173.149,220.064 176.079 C 219.016 176.875,218.266 177.571,218.397 177.626 C 218.529 177.682,232.000 177.650,248.333 177.556 C 278.408 177.383,279.561 177.337,281.667 176.236 C 282.167 175.975,282.689 175.760,282.827 175.759 C 283.057 175.758,285.976 173.918,286.908 173.187 C 289.528 171.132,292.052 167.248,293.348 163.275 C 294.182 160.717,294.110 153.557,293.233 151.970 C 292.957 151.470,292.730 150.892,292.729 150.686 C 292.713 147.383,285.729 140.799,280.280 138.950 L 278.030 138.186 265.803 138.184 C 255.404 138.182,253.429 138.112,252.589 137.713 C 248.964 135.993,248.767 131.779,252.209 129.565 C 253.156 128.956,253.614 128.937,269.167 128.844 L 285.152 128.749 285.152 121.496 L 285.152 114.242 267.500 114.272 C 252.626 114.297,249.658 114.373,248.636 114.755 M199.141 129.660 C 208.305 131.589,214.667 143.693,210.707 151.667 C 208.557 155.997,206.686 158.076,203.246 159.956 C 199.108 162.217,180.905 163.364,179.563 161.448 C 178.422 159.819,179.141 142.703,180.477 139.697 C 181.150 138.184,182.185 136.273,182.559 135.854 C 185.699 132.339,188.852 130.304,192.098 129.697 C 193.002 129.528,193.819 129.312,193.914 129.217 C 194.154 128.978,197.077 129.225,199.141 129.660 M205.354 195.354 C 204.852 195.855,205.173 196.667,205.874 196.667 C 206.556 196.667,207.151 195.737,206.735 195.321 C 206.501 195.087,205.599 195.108,205.354 195.354 M210.202 195.354 C 209.755 195.801,210.014 196.667,210.595 196.667 C 211.204 196.667,211.951 195.688,211.605 195.343 C 211.353 195.091,210.458 195.098,210.202 195.354 M201.508 199.868 C 201.345 200.296,201.206 201.216,201.199 201.914 C 201.192 202.611,200.989 203.727,200.749 204.394 C 198.863 209.627,201.612 213.194,206.699 212.114 C 210.363 211.337,211.839 208.458,212.640 200.530 C 212.782 199.129,211.729 198.234,211.393 199.470 C 210.991 200.947,210.302 204.346,210.149 205.606 C 209.558 210.493,205.208 212.770,202.533 209.591 C 201.703 208.605,201.656 206.581,202.405 204.108 C 203.021 202.073,203.233 199.420,202.793 199.251 C 202.045 198.964,201.808 199.078,201.508 199.868 M216.885 199.522 C 216.610 199.797,216.346 200.861,216.223 202.187 C 216.111 203.401,215.892 204.804,215.738 205.304 C 215.583 205.805,215.327 207.169,215.168 208.335 C 215.009 209.501,214.788 210.761,214.677 211.136 C 214.467 211.845,215.789 212.200,216.194 211.544 C 216.287 211.394,217.063 211.536,217.917 211.861 C 222.167 213.475,225.370 210.753,225.182 205.687 C 225.100 203.460,221.513 202.037,219.159 203.297 C 218.075 203.877,217.817 203.454,217.929 201.279 C 218.036 199.188,217.731 198.675,216.885 199.522 M280.303 199.848 C 280.303 200.735,281.619 200.957,281.938 200.124 C 282.201 199.440,281.898 199.091,281.043 199.091 C 280.456 199.091,280.303 199.247,280.303 199.848 M231.720 203.097 C 226.969 204.356,226.611 211.620,231.269 212.257 C 233.170 212.517,235.579 211.816,235.703 210.966 C 235.815 210.195,235.344 210.128,234.242 210.758 C 232.496 211.756,229.697 210.734,229.697 209.099 C 229.697 207.971,230.030 207.879,234.095 207.879 C 237.931 207.879,238.160 207.739,237.746 205.655 C 237.270 203.256,234.906 202.253,231.720 203.097 M245.341 202.942 C 245.223 203.060,244.280 203.162,243.245 203.169 L 241.364 203.182 241.175 204.727 C 241.071 205.576,240.845 206.735,240.672 207.302 C 239.975 209.585,239.936 211.818,240.593 211.818 C 241.393 211.818,241.706 211.120,241.896 208.913 C 242.155 205.906,244.378 203.355,246.000 204.204 C 246.588 204.512,247.879 204.124,247.879 203.639 C 247.879 203.054,245.800 202.483,245.341 202.942 M270.448 203.009 C 265.786 204.127,264.690 210.932,268.979 212.132 C 271.352 212.797,275.063 211.608,273.984 210.530 C 273.815 210.361,273.341 210.440,272.777 210.732 C 270.567 211.875,267.030 210.206,268.090 208.519 C 268.337 208.127,269.139 208.000,272.153 207.879 L 275.909 207.727 275.904 206.034 C 275.895 203.275,273.915 202.177,270.448 203.009 M286.514 203.129 C 283.249 204.406,283.681 207.879,287.104 207.879 C 287.843 207.879,288.462 208.137,289.111 208.717 L 290.049 209.556 289.281 210.384 C 288.395 211.340,286.307 211.540,285.285 210.767 C 284.359 210.067,283.270 210.166,283.388 210.941 C 283.606 212.380,286.779 213.025,289.031 212.089 C 292.198 210.773,292.137 207.585,288.936 207.105 C 286.280 206.707,285.224 205.439,286.615 204.318 C 287.210 203.839,289.762 203.823,290.235 204.296 C 290.509 204.569,290.740 204.518,291.227 204.078 L 291.862 203.503 290.855 203.138 C 289.577 202.675,287.686 202.671,286.514 203.129 M312.273 203.112 C 310.742 203.444,310.024 203.460,309.170 203.182 C 308.404 202.933,308.476 202.785,307.774 206.061 C 306.890 210.186,306.823 211.818,307.540 211.818 C 308.222 211.818,308.783 210.338,308.786 208.531 C 308.792 205.206,312.404 202.772,314.337 204.789 C 315.296 205.790,315.393 207.061,314.674 209.173 C 313.977 211.218,314.314 212.547,315.361 211.882 C 315.694 211.671,316.220 209.386,316.585 206.566 C 316.914 204.021,315.033 202.514,312.273 203.112 M323.333 203.081 C 321.937 203.476,320.671 204.691,319.965 206.313 C 318.217 210.331,321.207 213.468,325.382 211.995 C 328.037 211.059,327.780 214.101,325.088 215.483 C 323.455 216.321,322.361 216.224,321.198 215.138 C 320.108 214.120,319.290 214.070,319.154 215.014 C 318.863 217.038,324.034 218.020,326.411 216.392 C 327.648 215.545,328.787 213.578,328.796 212.273 C 328.799 211.773,328.942 210.818,329.112 210.152 C 330.303 205.497,330.282 202.696,329.062 203.349 C 328.726 203.529,328.030 203.469,327.076 203.180 C 325.407 202.673,324.832 202.658,323.333 203.081 M250.212 203.223 C 249.931 203.503,250.242 206.086,250.788 208.010 C 251.021 208.831,251.212 210.009,251.212 210.626 C 251.212 211.552,251.331 211.768,251.894 211.864 C 252.755 212.012,253.939 211.841,253.939 211.569 C 253.939 211.456,254.490 210.312,255.163 209.028 C 256.673 206.146,257.063 206.193,257.749 209.345 C 258.027 210.622,258.361 211.783,258.491 211.925 C 258.965 212.441,260.550 211.805,260.882 210.966 C 261.059 210.518,261.342 209.913,261.511 209.621 C 261.971 208.827,262.301 208.199,263.224 206.364 C 263.684 205.447,264.252 204.467,264.484 204.186 C 264.985 203.581,264.733 203.030,263.956 203.030 C 263.328 203.030,262.871 203.680,261.826 206.061 C 260.203 209.759,258.788 210.532,258.788 207.720 C 258.788 202.667,257.224 201.808,255.360 205.837 C 253.764 209.289,253.801 209.231,253.086 209.338 C 252.322 209.452,252.190 209.043,251.883 205.606 C 251.670 203.215,251.072 202.363,250.212 203.223 M279.883 203.722 C 279.652 204.092,279.370 205.280,279.258 206.364 C 279.145 207.447,278.848 209.047,278.597 209.920 C 278.346 210.793,278.227 211.645,278.331 211.814 C 278.690 212.395,279.681 212.145,279.819 211.439 C 281.186 204.473,281.305 203.434,280.757 203.223 C 280.486 203.119,280.135 203.320,279.883 203.722 M295.327 203.692 C 295.178 204.394,294.972 205.885,294.658 208.524 C 294.333 211.269,295.856 212.557,298.729 211.964 C 299.345 211.837,300.527 211.718,301.357 211.700 L 302.865 211.667 303.103 210.455 C 303.923 206.278,304.246 203.519,303.950 203.223 C 303.345 202.617,302.701 203.801,302.308 206.240 C 301.853 209.071,301.539 209.647,299.954 210.559 C 297.417 212.019,294.891 209.131,296.332 206.419 C 296.974 205.211,296.862 203.188,296.147 203.086 C 295.651 203.016,295.437 203.174,295.327 203.692 M222.869 205.010 C 225.811 207.953,220.737 213.108,217.717 210.244 C 216.142 208.751,216.986 205.798,219.343 204.554 C 220.947 203.706,221.656 203.798,222.869 205.010 M235.262 204.567 C 236.040 205.180,236.346 206.454,235.796 206.794 C 235.285 207.110,230.616 207.101,230.298 206.783 C 228.798 205.283,233.503 203.184,235.262 204.567 M273.744 204.683 C 275.355 206.176,274.679 207.028,271.792 207.144 C 269.216 207.247,268.508 206.983,268.698 205.992 C 269.029 204.260,272.356 203.397,273.744 204.683 M327.152 204.970 C 328.346 206.164,328.454 207.076,327.596 208.724 C 325.437 212.871,319.699 211.136,321.342 206.833 C 322.412 204.032,325.290 203.108,327.152 204.970 " stroke="none" fill="#71706f" fill-rule="evenodd"></path><path id="path2" d="M108.608 58.614 C 108.093 58.838,107.070 59.114,106.336 59.227 C 105.601 59.339,104.591 59.617,104.091 59.844 C 98.690 62.294,96.359 63.869,93.721 66.849 C 92.850 67.832,91.952 68.841,91.724 69.091 C 91.497 69.341,91.219 69.750,91.107 70.000 C 90.994 70.250,90.633 70.864,90.303 71.364 C 89.973 71.864,89.623 72.477,89.524 72.727 C 89.426 72.977,89.083 73.742,88.763 74.427 C 88.444 75.112,88.182 75.879,88.182 76.133 C 88.182 76.386,87.958 77.121,87.684 77.766 C 87.139 79.053,86.865 92.109,87.373 92.624 C 87.862 93.119,98.264 93.114,98.939 92.617 C 99.499 92.206,99.557 91.724,99.699 86.313 C 99.801 82.419,99.979 80.251,100.229 79.848 C 100.436 79.515,100.748 78.902,100.922 78.485 C 101.601 76.859,103.097 74.991,105.025 73.362 C 107.827 70.996,115.538 69.731,117.879 71.253 C 118.295 71.524,119.011 71.833,119.470 71.939 C 119.928 72.046,120.303 72.267,120.303 72.430 C 120.303 72.594,120.522 72.727,120.789 72.727 C 121.422 72.727,125.455 76.760,125.455 77.393 C 125.455 77.660,125.580 77.879,125.733 77.879 C 125.887 77.879,126.109 78.322,126.227 78.864 C 126.345 79.405,126.628 80.117,126.857 80.446 C 127.171 80.898,127.273 82.358,127.273 86.431 C 127.273 93.589,126.774 93.099,133.934 92.973 C 136.910 92.921,139.458 92.764,139.597 92.624 C 140.119 92.095,139.850 79.031,139.295 77.970 C 139.016 77.436,138.788 76.731,138.788 76.403 C 138.788 76.075,138.583 75.387,138.333 74.873 C 138.083 74.360,137.699 73.564,137.479 73.106 C 136.689 71.458,135.592 69.618,134.848 68.694 C 133.455 66.964,129.652 63.333,129.233 63.333 C 129.005 63.333,128.709 63.156,128.576 62.939 C 128.371 62.604,127.378 62.027,124.567 60.606 C 123.421 60.027,121.574 59.397,120.455 59.204 C 119.788 59.090,118.804 58.813,118.267 58.589 C 116.938 58.034,109.898 58.052,108.608 58.614 M78.412 105.274 C 75.965 106.527,73.958 108.525,72.820 110.843 L 71.970 112.576 71.970 145.758 L 71.970 178.939 72.827 180.686 C 73.636 182.334,76.618 185.758,77.244 185.758 C 77.403 185.758,77.713 185.930,77.933 186.142 C 79.418 187.567,79.643 187.576,113.606 187.576 C 147.496 187.576,147.607 187.571,149.017 186.174 C 149.226 185.967,149.669 185.711,150.002 185.605 C 150.334 185.500,150.606 185.287,150.606 185.131 C 150.606 184.976,150.761 184.848,150.950 184.848 C 151.937 184.848,155.126 179.645,154.746 178.656 C 154.584 178.232,152.143 178.182,131.563 178.182 C 111.891 178.182,108.375 178.116,107.273 177.727 C 106.564 177.477,105.678 177.273,105.303 177.273 C 104.713 177.273,103.250 176.745,101.061 175.744 C 100.727 175.592,100.114 175.326,99.697 175.153 C 99.280 174.981,98.530 174.570,98.030 174.241 C 97.530 173.912,96.917 173.546,96.667 173.427 C 93.214 171.784,87.333 165.472,85.145 161.061 C 84.732 160.227,84.302 159.476,84.191 159.391 C 84.079 159.306,83.888 158.829,83.767 158.330 C 83.645 157.832,83.362 157.155,83.137 156.827 C 82.911 156.498,82.727 155.934,82.727 155.573 C 82.727 155.213,82.524 154.527,82.275 154.050 C 82.026 153.572,81.823 152.773,81.825 152.273 C 81.827 151.773,81.596 150.027,81.313 148.393 C 80.829 145.604,80.829 145.259,81.308 142.761 C 81.589 141.297,81.823 139.566,81.829 138.913 C 81.835 138.261,82.035 137.386,82.273 136.970 C 82.511 136.553,82.711 135.966,82.717 135.665 C 82.743 134.342,86.064 127.916,87.496 126.418 C 87.707 126.198,87.879 125.898,87.879 125.751 C 87.879 125.330,93.671 119.697,94.105 119.697 C 94.319 119.697,94.540 119.592,94.596 119.464 C 94.956 118.632,100.149 115.898,103.939 114.544 C 108.611 112.876,118.718 112.808,122.319 114.421 C 122.844 114.656,123.504 114.848,123.787 114.848 C 124.069 114.848,124.662 115.033,125.105 115.257 C 125.547 115.482,127.102 116.263,128.561 116.993 C 130.019 117.722,131.212 118.424,131.212 118.553 C 131.212 118.682,131.421 118.788,131.676 118.788 C 131.931 118.788,132.219 118.992,132.315 119.242 C 132.411 119.492,132.668 119.697,132.886 119.697 C 133.418 119.697,139.394 125.653,139.394 126.184 C 139.394 126.414,139.598 126.680,139.848 126.776 C 140.098 126.872,140.303 127.153,140.303 127.400 C 140.303 127.647,140.475 127.958,140.685 128.091 C 140.895 128.224,141.458 129.120,141.937 130.082 C 142.415 131.044,142.925 131.904,143.070 131.994 C 143.215 132.084,143.338 132.456,143.343 132.821 C 143.348 133.186,143.553 133.750,143.798 134.073 C 144.042 134.397,144.242 134.921,144.242 135.239 C 144.242 135.557,144.440 136.247,144.682 136.772 C 145.719 139.024,146.596 152.313,145.763 153.147 C 145.523 153.387,138.860 153.529,122.792 153.636 C 96.688 153.811,98.541 153.534,101.895 156.762 C 103.793 158.590,104.285 158.910,107.424 160.360 L 108.939 161.061 131.692 161.152 C 151.251 161.231,154.496 161.182,154.809 160.805 C 155.087 160.471,155.152 154.757,155.086 136.623 L 155.000 112.879 154.318 111.456 C 153.943 110.673,153.636 109.889,153.636 109.714 C 153.636 109.538,153.496 109.394,153.324 109.394 C 153.152 109.394,152.924 109.166,152.817 108.887 C 152.454 107.941,149.726 105.684,148.485 105.303 C 148.068 105.175,147.458 104.884,147.130 104.656 C 146.633 104.313,140.916 104.242,113.479 104.242 L 80.426 104.242 78.412 105.274 M109.257 129.674 C 109.162 129.827,108.642 130.048,108.103 130.163 C 107.563 130.279,106.971 130.494,106.786 130.642 C 106.602 130.789,105.804 131.254,105.013 131.675 C 102.978 132.757,99.573 136.304,100.035 136.861 C 100.323 137.207,102.661 137.265,113.600 137.200 L 126.818 137.121 126.745 136.436 C 126.628 135.333,123.409 132.329,121.309 131.362 C 120.778 131.118,120.259 130.780,120.154 130.611 C 120.050 130.441,119.734 130.302,119.452 130.301 C 119.170 130.300,118.549 130.096,118.071 129.847 C 117.083 129.331,109.560 129.184,109.257 129.674 " stroke="none" fill="#c8036f" fill-rule="evenodd"></path><path id="path3" d="M109.848 57.625 C 97.738 59.899,88.925 68.182,86.800 79.287 C 86.336 81.712,86.184 91.975,86.602 92.633 C 87.297 93.726,97.209 94.155,99.106 93.174 L 100.000 92.712 100.002 88.401 C 100.004 83.145,100.293 81.246,101.472 78.745 C 105.455 70.295,116.780 68.593,123.161 75.484 C 126.094 78.652,126.697 80.581,126.938 87.560 C 127.166 94.169,126.589 93.679,134.005 93.566 C 140.881 93.462,140.422 93.856,140.556 87.945 C 140.751 79.371,139.562 74.572,135.928 69.270 C 130.433 61.251,118.623 55.977,109.848 57.625 M118.267 58.589 C 118.804 58.813,119.788 59.090,120.455 59.204 C 121.574 59.397,123.421 60.027,124.567 60.606 C 127.378 62.027,128.371 62.604,128.576 62.939 C 128.709 63.156,129.005 63.333,129.233 63.333 C 129.652 63.333,133.455 66.964,134.848 68.694 C 135.592 69.618,136.689 71.458,137.479 73.106 C 137.699 73.564,138.083 74.360,138.333 74.873 C 138.583 75.387,138.788 76.075,138.788 76.403 C 138.788 76.731,139.016 77.436,139.295 77.970 C 139.850 79.031,140.119 92.095,139.597 92.624 C 139.458 92.764,136.910 92.921,133.934 92.973 C 126.774 93.099,127.273 93.589,127.273 86.431 C 127.273 82.358,127.171 80.898,126.857 80.446 C 126.628 80.117,126.345 79.405,126.227 78.864 C 126.109 78.322,125.887 77.879,125.733 77.879 C 125.580 77.879,125.455 77.660,125.455 77.393 C 125.455 76.760,121.422 72.727,120.789 72.727 C 120.522 72.727,120.303 72.594,120.303 72.430 C 120.303 72.267,119.928 72.046,119.470 71.939 C 119.011 71.833,118.295 71.524,117.879 71.253 C 115.538 69.731,107.827 70.996,105.025 73.362 C 103.097 74.991,101.601 76.859,100.922 78.485 C 100.748 78.902,100.436 79.515,100.229 79.848 C 99.979 80.251,99.801 82.419,99.699 86.313 C 99.557 91.724,99.499 92.206,98.939 92.617 C 98.264 93.114,87.862 93.119,87.373 92.624 C 86.865 92.109,87.139 79.053,87.684 77.766 C 87.958 77.121,88.182 76.386,88.182 76.133 C 88.182 75.879,88.444 75.112,88.763 74.427 C 89.083 73.742,89.426 72.977,89.524 72.727 C 89.623 72.477,89.973 71.864,90.303 71.364 C 90.633 70.864,90.994 70.250,91.107 70.000 C 91.219 69.750,91.497 69.341,91.724 69.091 C 91.952 68.841,92.850 67.832,93.721 66.849 C 96.359 63.869,98.690 62.294,104.091 59.844 C 104.591 59.617,105.601 59.339,106.336 59.227 C 107.070 59.114,108.093 58.838,108.608 58.614 C 109.898 58.052,116.938 58.034,118.267 58.589 M81.212 103.749 C 76.864 104.540,73.054 107.861,71.717 112.027 C 71.011 114.224,70.944 176.823,71.645 179.132 C 72.679 182.540,75.181 185.450,78.453 187.051 L 80.455 188.030 112.879 188.116 L 145.303 188.202 147.265 187.544 C 151.064 186.271,154.577 182.699,155.310 179.364 C 155.638 177.868,155.944 177.889,133.182 177.880 C 110.997 177.872,106.704 177.652,104.327 176.398 C 104.030 176.242,103.106 175.875,102.273 175.583 C 94.610 172.897,86.926 165.173,83.918 157.134 C 81.073 149.528,81.369 137.638,84.535 132.424 C 84.687 132.174,85.232 131.142,85.747 130.129 C 90.136 121.505,100.475 114.734,110.398 113.985 C 118.391 113.382,124.307 114.842,130.909 119.047 C 140.919 125.424,145.891 136.153,145.394 150.303 L 145.303 152.879 122.273 153.030 L 99.242 153.182 99.152 153.960 C 99.009 155.191,102.594 158.643,105.466 160.038 C 109.209 161.857,109.159 161.854,133.485 161.756 L 155.606 161.667 155.697 138.182 C 155.798 112.479,155.811 112.706,154.031 109.648 C 152.147 106.411,148.954 104.247,145.200 103.665 C 142.104 103.184,83.898 103.261,81.212 103.749 M147.130 104.656 C 147.458 104.884,148.068 105.175,148.485 105.303 C 149.726 105.684,152.454 107.941,152.817 108.887 C 152.924 109.166,153.152 109.394,153.324 109.394 C 153.496 109.394,153.636 109.538,153.636 109.714 C 153.636 109.889,153.943 110.673,154.318 111.456 L 155.000 112.879 155.086 136.623 C 155.152 154.757,155.087 160.471,154.809 160.805 C 154.496 161.182,151.251 161.231,131.692 161.152 L 108.939 161.061 107.424 160.360 C 104.285 158.910,103.793 158.590,101.895 156.762 C 98.541 153.534,96.688 153.811,122.792 153.636 C 138.860 153.529,145.523 153.387,145.763 153.147 C 146.596 152.313,145.719 139.024,144.682 136.772 C 144.440 136.247,144.242 135.557,144.242 135.239 C 144.242 134.921,144.042 134.397,143.798 134.073 C 143.553 133.750,143.348 133.186,143.343 132.821 C 143.338 132.456,143.215 132.084,143.070 131.994 C 142.925 131.904,142.415 131.044,141.937 130.082 C 141.458 129.120,140.895 128.224,140.685 128.091 C 140.475 127.958,140.303 127.647,140.303 127.400 C 140.303 127.153,140.098 126.872,139.848 126.776 C 139.598 126.680,139.394 126.414,139.394 126.184 C 139.394 125.653,133.418 119.697,132.886 119.697 C 132.668 119.697,132.411 119.492,132.315 119.242 C 132.219 118.992,131.931 118.788,131.676 118.788 C 131.421 118.788,131.212 118.682,131.212 118.553 C 131.212 118.424,130.019 117.722,128.561 116.993 C 127.102 116.263,125.547 115.482,125.105 115.257 C 124.662 115.033,124.069 114.848,123.787 114.848 C 123.504 114.848,122.844 114.656,122.319 114.421 C 118.718 112.808,108.611 112.876,103.939 114.544 C 100.149 115.898,94.956 118.632,94.596 119.464 C 94.540 119.592,94.319 119.697,94.105 119.697 C 93.671 119.697,87.879 125.330,87.879 125.751 C 87.879 125.898,87.707 126.198,87.496 126.418 C 86.064 127.916,82.743 134.342,82.717 135.665 C 82.711 135.966,82.511 136.553,82.273 136.970 C 82.035 137.386,81.835 138.261,81.829 138.913 C 81.823 139.566,81.589 141.297,81.308 142.761 C 80.829 145.259,80.829 145.604,81.313 148.393 C 81.596 150.027,81.827 151.773,81.825 152.273 C 81.823 152.773,82.026 153.572,82.275 154.050 C 82.524 154.527,82.727 155.213,82.727 155.573 C 82.727 155.934,82.911 156.498,83.137 156.827 C 83.362 157.155,83.645 157.832,83.767 158.330 C 83.888 158.829,84.079 159.306,84.191 159.391 C 84.302 159.476,84.732 160.227,85.145 161.061 C 87.333 165.472,93.214 171.784,96.667 173.427 C 96.917 173.546,97.530 173.912,98.030 174.241 C 98.530 174.570,99.280 174.981,99.697 175.153 C 100.114 175.326,100.727 175.592,101.061 175.744 C 103.250 176.745,104.713 177.273,105.303 177.273 C 105.678 177.273,106.564 177.477,107.273 177.727 C 108.375 178.116,111.891 178.182,131.563 178.182 C 152.143 178.182,154.584 178.232,154.746 178.656 C 155.126 179.645,151.937 184.848,150.950 184.848 C 150.761 184.848,150.606 184.976,150.606 185.131 C 150.606 185.287,150.334 185.500,150.002 185.605 C 149.669 185.711,149.226 185.967,149.017 186.174 C 147.607 187.571,147.496 187.576,113.606 187.576 C 79.643 187.576,79.418 187.567,77.933 186.142 C 77.713 185.930,77.403 185.758,77.244 185.758 C 76.618 185.758,73.636 182.334,72.827 180.686 L 71.970 178.939 71.970 145.758 L 71.970 112.576 72.820 110.843 C 73.958 108.525,75.965 106.527,78.412 105.274 L 80.426 104.242 113.479 104.242 C 140.916 104.242,146.633 104.313,147.130 104.656 M109.394 129.048 C 105.849 129.813,99.091 135.100,99.091 137.108 L 99.091 137.879 113.485 137.879 L 127.879 137.879 127.879 137.100 C 127.879 135.933,123.418 131.617,121.061 130.502 C 120.061 130.030,118.970 129.496,118.636 129.316 C 117.913 128.925,110.905 128.723,109.394 129.048 M118.071 129.847 C 118.549 130.096,119.170 130.300,119.452 130.301 C 119.734 130.302,120.050 130.441,120.154 130.611 C 120.259 130.780,120.778 131.118,121.309 131.362 C 123.409 132.329,126.628 135.333,126.745 136.436 L 126.818 137.121 113.600 137.200 C 102.661 137.265,100.323 137.207,100.035 136.861 C 99.573 136.304,102.978 132.757,105.013 131.675 C 105.804 131.254,106.602 130.789,106.786 130.642 C 106.971 130.494,107.563 130.279,108.103 130.163 C 108.642 130.048,109.162 129.827,109.257 129.674 C 109.560 129.184,117.083 129.331,118.071 129.847 " stroke="none" fill="#dd66a8" fill-rule="evenodd"></path><path id="path4" d="M108.636 57.414 C 107.970 57.633,106.503 58.098,105.377 58.449 C 104.251 58.801,103.092 59.209,102.801 59.356 C 102.511 59.504,101.591 59.939,100.758 60.322 C 97.714 61.724,94.294 64.500,91.742 67.642 C 91.117 68.412,90.606 69.189,90.606 69.369 C 90.606 69.549,90.472 69.697,90.309 69.697 C 90.145 69.697,89.928 70.028,89.827 70.433 C 89.725 70.837,89.450 71.242,89.215 71.332 C 88.980 71.422,88.788 71.676,88.788 71.896 C 88.788 72.116,88.515 72.831,88.182 73.485 C 87.848 74.139,87.576 74.890,87.576 75.155 C 87.576 75.420,87.435 75.777,87.262 75.950 C 87.090 76.122,86.827 76.933,86.678 77.753 C 86.529 78.572,86.264 79.788,86.089 80.455 C 85.915 81.121,85.769 84.017,85.765 86.889 L 85.758 92.112 86.642 93.101 L 87.526 94.091 93.081 94.091 C 98.002 94.091,98.731 94.026,99.470 93.526 L 100.303 92.961 100.236 88.071 L 100.168 83.182 100.076 87.951 L 99.985 92.720 99.098 93.178 C 97.209 94.155,87.295 93.722,86.602 92.633 C 86.184 91.975,86.336 81.712,86.800 79.287 C 88.948 68.063,97.826 59.809,110.131 57.596 C 122.445 55.382,137.524 65.829,139.987 78.282 L 140.237 79.545 140.268 78.333 C 140.285 77.667,140.096 76.731,139.847 76.253 C 139.598 75.776,139.394 75.199,139.394 74.972 C 139.394 74.745,138.973 73.772,138.458 72.810 C 135.390 67.076,131.115 62.699,126.364 60.427 C 125.447 59.989,124.459 59.508,124.168 59.359 C 123.878 59.210,122.718 58.801,121.593 58.451 C 120.467 58.100,118.942 57.624,118.204 57.392 C 116.489 56.853,110.308 56.867,108.636 57.414 M109.344 71.828 C 105.834 72.964,100.222 78.202,101.328 79.308 C 101.408 79.388,101.770 78.870,102.133 78.158 C 105.125 72.293,112.988 69.935,119.386 72.983 C 121.040 73.772,123.939 76.277,123.939 76.918 C 123.939 77.113,124.062 77.273,124.213 77.273 C 124.363 77.273,124.634 77.648,124.814 78.106 C 124.995 78.564,125.271 79.144,125.429 79.394 C 125.586 79.644,125.892 80.735,126.110 81.818 C 126.365 83.090,126.544 83.525,126.615 83.047 C 127.632 76.178,117.080 69.324,109.344 71.828 M100.676 80.576 C 100.118 82.116,100.206 83.158,100.782 81.829 C 101.032 81.252,101.195 80.502,101.144 80.163 C 101.069 79.675,100.971 79.762,100.676 80.576 M140.455 86.052 C 140.455 94.157,141.053 93.459,134.005 93.566 C 126.691 93.677,127.165 94.019,126.957 88.477 L 126.793 84.091 126.730 88.536 L 126.667 92.981 127.687 93.612 C 128.611 94.183,129.173 94.242,133.611 94.242 C 141.104 94.242,141.224 94.121,141.189 86.606 C 141.175 83.644,141.024 81.274,140.810 80.686 C 140.518 79.881,140.455 80.839,140.455 86.052 M80.000 103.539 C 79.250 103.779,78.432 104.104,78.182 104.261 C 77.932 104.418,77.446 104.670,77.101 104.820 C 76.209 105.210,73.024 108.177,72.699 108.921 C 72.549 109.264,72.303 109.750,72.153 110.000 C 70.691 112.435,70.758 110.724,70.758 145.748 C 70.758 176.639,70.786 178.381,71.305 179.242 C 71.778 180.027,71.820 180.048,71.614 179.394 C 71.068 177.660,71.151 113.919,71.702 112.121 C 73.045 107.740,77.025 104.383,81.725 103.666 C 84.744 103.205,142.232 103.204,145.200 103.665 C 148.954 104.247,152.147 106.411,154.031 109.648 C 155.811 112.706,155.798 112.479,155.697 138.182 L 155.606 161.667 132.879 161.667 C 120.379 161.667,109.606 161.558,108.939 161.426 L 107.727 161.185 108.747 161.653 C 109.638 162.062,112.671 162.121,132.770 162.121 L 155.773 162.121 156.077 161.321 C 156.274 160.801,156.347 152.259,156.283 137.002 C 156.178 111.822,156.174 111.760,154.651 109.976 C 154.426 109.713,154.242 109.350,154.242 109.170 C 154.242 107.900,149.556 104.363,146.793 103.548 C 144.842 102.973,81.800 102.964,80.000 103.539 M190.303 113.755 C 188.886 113.950,187.429 114.275,187.065 114.479 C 186.701 114.682,186.084 114.848,185.693 114.848 C 185.303 114.848,184.714 115.033,184.386 115.258 C 184.057 115.483,183.380 115.766,182.882 115.888 C 182.383 116.009,181.906 116.200,181.821 116.312 C 181.736 116.424,180.985 116.856,180.152 117.273 C 173.414 120.641,166.917 128.601,164.816 136.061 C 164.651 136.644,164.396 137.394,164.247 137.727 C 163.197 140.088,162.777 210.890,163.805 212.357 C 164.462 213.294,178.241 213.421,179.372 212.500 L 180.023 211.970 180.007 195.830 C 179.998 186.953,180.075 179.351,180.179 178.936 L 180.369 178.182 190.601 178.182 C 198.921 178.182,201.074 178.097,202.121 177.727 C 202.830 177.477,203.699 177.272,204.053 177.271 C 204.407 177.270,205.088 177.065,205.565 176.816 C 206.042 176.567,206.588 176.361,206.777 176.359 C 206.966 176.356,207.871 175.950,208.788 175.458 C 209.705 174.965,210.830 174.409,211.288 174.221 C 211.746 174.034,212.121 173.757,212.121 173.607 C 212.121 173.456,212.259 173.333,212.427 173.333 C 214.172 173.333,221.825 165.388,223.372 161.970 C 223.523 161.636,223.976 160.780,224.379 160.067 C 225.145 158.709,226.364 155.440,226.364 154.742 C 226.364 154.519,226.600 153.871,226.890 153.304 C 227.341 152.420,227.416 151.344,227.416 145.758 C 227.416 140.171,227.341 139.095,226.890 138.211 C 226.600 137.644,226.364 136.940,226.364 136.647 C 226.364 135.921,225.142 132.688,224.645 132.097 C 224.424 131.834,224.242 131.443,224.242 131.228 C 224.242 130.840,222.288 127.441,221.680 126.773 C 221.506 126.582,220.960 125.900,220.466 125.258 C 219.238 123.662,215.092 119.697,214.651 119.697 C 214.454 119.697,214.247 119.592,214.192 119.464 C 213.919 118.834,209.313 116.279,206.818 115.374 C 206.152 115.132,205.129 114.760,204.545 114.548 C 201.596 113.472,195.027 113.107,190.303 113.755 M250.152 113.684 C 249.152 113.836,247.890 114.161,247.348 114.405 C 244.653 115.619,243.976 115.979,242.576 116.938 C 239.992 118.709,236.794 122.353,235.899 124.545 C 235.797 124.795,235.591 125.230,235.442 125.510 C 232.705 130.666,233.572 140.419,237.184 145.097 C 239.497 148.093,242.360 150.596,244.872 151.820 C 245.609 152.179,246.458 152.604,246.757 152.764 C 247.057 152.923,247.876 153.176,248.576 153.326 C 249.276 153.475,250.394 153.739,251.061 153.913 C 251.798 154.104,256.929 154.231,264.156 154.235 L 276.040 154.242 276.959 155.141 C 278.274 156.427,278.323 159.032,277.057 160.299 L 276.295 161.061 253.678 161.212 C 230.129 161.370,230.245 161.363,229.717 162.676 C 229.538 163.121,229.124 163.894,228.797 164.394 C 228.469 164.894,227.995 165.712,227.743 166.212 C 226.239 169.197,220.485 175.758,219.371 175.758 C 218.895 175.758,216.818 177.317,216.818 177.674 C 216.818 178.311,277.901 178.327,279.848 177.691 C 288.004 175.027,293.121 169.117,294.640 160.606 C 295.127 157.877,294.527 151.982,293.675 151.130 C 293.487 150.942,293.333 150.482,293.333 150.109 C 293.333 149.735,293.215 149.356,293.070 149.267 C 292.925 149.177,292.413 148.322,291.933 147.366 C 291.004 145.517,286.920 141.127,285.797 140.770 C 285.442 140.657,285.152 140.449,285.152 140.307 C 285.152 140.164,284.742 139.958,284.242 139.848 C 283.742 139.739,283.333 139.539,283.333 139.406 C 283.333 139.048,280.778 138.210,278.182 137.716 C 276.484 137.394,273.149 137.283,265.000 137.277 C 252.998 137.269,252.284 137.184,251.092 135.621 C 250.023 134.218,250.065 132.964,251.230 131.492 C 252.636 129.718,252.809 129.701,269.450 129.699 C 278.495 129.698,284.816 129.579,285.283 129.401 L 286.061 129.106 286.061 121.533 C 286.061 114.357,286.030 113.944,285.474 113.647 C 284.736 113.252,252.768 113.285,250.152 113.684 M110.909 113.961 C 109.286 114.084,110.022 114.142,113.485 114.164 C 116.152 114.181,118.197 114.148,118.030 114.090 C 117.399 113.873,113.090 113.795,110.909 113.961 M106.212 114.537 C 105.879 114.676,104.652 115.085,103.485 115.445 C 96.310 117.661,88.908 123.816,85.728 130.211 C 85.203 131.268,84.653 132.206,84.507 132.296 C 84.362 132.386,84.242 132.673,84.242 132.934 C 84.242 133.671,85.049 132.874,85.295 131.893 C 85.407 131.448,85.898 130.492,86.386 129.769 C 86.873 129.046,87.273 128.373,87.273 128.274 C 87.273 127.700,94.137 120.303,94.670 120.303 C 94.771 120.303,95.501 119.854,96.291 119.305 C 97.788 118.266,101.458 116.365,101.975 116.362 C 102.139 116.361,102.637 116.170,103.081 115.938 C 103.526 115.706,104.423 115.426,105.075 115.316 C 107.051 114.982,108.875 114.267,107.727 114.276 C 107.227 114.280,106.545 114.397,106.212 114.537 M119.522 114.692 C 120.175 114.925,121.243 115.206,121.895 115.316 C 122.547 115.426,123.444 115.706,123.888 115.938 C 124.333 116.170,124.831 116.361,124.995 116.362 C 125.512 116.365,129.182 118.266,130.679 119.305 C 131.469 119.854,132.205 120.303,132.315 120.303 C 132.658 120.303,138.677 126.485,138.880 127.045 C 138.985 127.337,139.213 127.576,139.384 127.576 C 139.556 127.576,139.697 127.771,139.697 128.009 C 139.697 128.247,139.869 128.622,140.079 128.842 C 140.290 129.062,140.629 129.583,140.835 130.000 C 141.040 130.417,141.322 130.962,141.462 131.212 C 142.229 132.584,142.727 133.739,142.727 134.144 C 142.727 134.397,142.926 134.965,143.168 135.408 C 143.410 135.850,143.759 136.894,143.943 137.727 C 144.126 138.561,144.400 139.788,144.549 140.455 C 144.699 141.121,144.828 144.155,144.835 147.197 L 144.848 152.727 122.007 152.727 C 97.593 152.727,98.292 152.683,98.688 154.195 C 99.105 155.792,103.973 160.303,105.279 160.303 C 105.502 160.303,105.853 160.508,106.061 160.758 C 106.268 161.008,106.728 161.210,107.083 161.208 C 107.457 161.206,106.781 160.730,105.467 160.072 C 102.584 158.627,99.011 155.169,99.152 153.960 L 99.242 153.182 122.273 153.030 L 145.303 152.879 145.394 150.303 C 145.808 138.516,142.961 130.274,136.065 123.299 C 131.909 119.094,127.776 116.692,121.307 114.721 C 119.288 114.107,117.810 114.083,119.522 114.692 M202.081 114.673 C 207.070 116.205,208.073 116.555,208.431 116.894 C 208.651 117.102,209.077 117.273,209.378 117.273 C 209.680 117.273,210.096 117.477,210.303 117.727 C 210.511 117.977,210.801 118.182,210.949 118.182 C 211.097 118.182,211.897 118.659,212.727 119.242 C 213.557 119.826,214.309 120.303,214.398 120.303 C 215.083 120.303,221.251 127.012,221.919 128.485 C 222.032 128.735,222.468 129.485,222.887 130.152 C 223.306 130.818,223.728 131.568,223.824 131.818 C 223.919 132.068,224.177 132.682,224.395 133.182 C 227.385 140.023,227.743 150.136,225.208 156.156 C 225.010 156.625,224.848 157.132,224.848 157.283 C 224.848 157.542,223.895 159.621,223.325 160.606 C 223.180 160.856,222.766 161.606,222.406 162.273 C 220.904 165.045,216.718 169.668,214.101 171.444 C 213.429 171.900,212.713 172.429,212.510 172.619 C 212.308 172.810,211.558 173.260,210.844 173.619 C 210.130 173.978,209.341 174.382,209.091 174.516 C 207.898 175.156,206.430 175.756,205.606 175.940 C 205.106 176.052,204.554 176.256,204.380 176.392 C 203.536 177.049,199.651 177.365,190.273 177.539 C 182.255 177.687,179.984 177.817,179.586 178.147 C 179.126 178.530,179.082 180.025,179.096 195.099 C 179.109 209.383,179.050 211.665,178.663 211.882 C 178.417 212.020,175.105 212.096,171.305 212.051 L 164.394 211.970 164.315 176.364 C 164.246 144.912,164.292 140.563,164.708 139.091 C 166.701 132.043,167.906 129.618,171.637 125.152 C 174.845 121.310,182.257 116.061,184.472 116.061 C 184.641 116.061,185.170 115.857,185.647 115.608 C 186.125 115.359,186.856 115.144,187.273 115.130 C 187.689 115.117,188.508 114.922,189.091 114.697 C 190.619 114.108,200.183 114.091,202.081 114.673 M285.152 121.496 L 285.152 128.749 269.167 128.844 C 253.614 128.937,253.156 128.956,252.209 129.565 C 248.767 131.779,248.964 135.993,252.589 137.713 C 253.429 138.112,255.404 138.182,265.803 138.184 L 278.030 138.186 280.280 138.950 C 285.729 140.799,292.713 147.383,292.729 150.686 C 292.730 150.892,292.957 151.470,293.233 151.970 C 294.110 153.557,294.182 160.717,293.348 163.275 C 292.052 167.248,289.528 171.132,286.908 173.187 C 285.976 173.918,283.057 175.758,282.827 175.759 C 282.689 175.760,282.167 175.975,281.667 176.236 C 279.561 177.337,278.408 177.383,248.333 177.556 C 232.000 177.650,218.529 177.682,218.397 177.626 C 218.266 177.571,219.016 176.875,220.064 176.079 C 223.927 173.149,227.557 168.759,229.163 165.076 C 229.363 164.617,229.633 164.242,229.763 164.242 C 229.894 164.242,230.000 164.038,230.000 163.788 C 230.000 162.063,229.183 162.122,253.258 162.116 L 275.303 162.111 276.514 161.425 C 279.134 159.942,279.651 157.190,277.737 154.915 C 276.499 153.444,275.544 153.334,263.904 153.324 C 252.959 153.314,249.396 153.085,247.652 152.275 C 247.110 152.024,246.155 151.582,245.530 151.292 C 241.693 149.517,237.861 145.678,236.377 142.121 C 236.203 141.705,235.913 141.110,235.734 140.800 C 235.554 140.490,235.295 139.603,235.159 138.830 C 235.022 138.057,234.747 136.610,234.548 135.614 C 234.085 133.294,234.500 130.402,235.851 126.536 C 237.132 122.868,239.294 120.298,244.091 116.740 C 244.258 116.616,245.076 116.221,245.909 115.862 C 249.712 114.221,248.591 114.303,267.500 114.272 L 285.152 114.242 285.152 121.496 M111.364 128.337 C 110.530 128.570,109.529 128.767,109.138 128.775 C 108.747 128.782,108.065 128.972,107.623 129.196 C 107.180 129.421,106.155 129.932,105.345 130.332 C 103.827 131.083,99.697 134.658,99.697 135.222 C 99.697 135.397,99.489 135.692,99.234 135.878 C 98.979 136.064,98.740 136.625,98.703 137.123 L 98.636 138.030 113.314 138.109 C 123.529 138.164,128.052 138.089,128.192 137.862 C 128.495 137.372,128.159 136.033,127.687 135.852 C 127.459 135.764,127.273 135.568,127.273 135.416 C 127.273 135.035,124.027 131.818,123.643 131.818 C 123.473 131.818,123.333 131.689,123.333 131.532 C 123.333 131.255,122.489 130.715,120.909 129.981 C 120.492 129.787,119.790 129.439,119.347 129.208 C 118.905 128.977,118.087 128.806,117.529 128.829 C 116.730 128.862,116.676 128.896,117.273 128.993 C 120.702 129.549,127.879 135.035,127.879 137.100 L 127.879 137.879 113.485 137.879 L 99.091 137.879 99.091 137.108 C 99.091 135.774,103.580 131.574,106.515 130.161 C 108.835 129.045,109.100 128.989,112.690 128.849 C 116.372 128.706,116.941 128.426,114.242 128.085 C 113.452 127.985,112.242 128.091,111.364 128.337 M193.914 129.217 C 193.819 129.312,193.002 129.528,192.098 129.697 C 188.852 130.304,185.699 132.339,182.559 135.854 C 182.185 136.273,181.150 138.184,180.477 139.697 C 179.141 142.703,178.422 159.819,179.563 161.448 C 180.905 163.364,199.108 162.217,203.246 159.956 C 206.686 158.076,208.557 155.997,210.707 151.667 C 213.959 145.119,210.065 134.824,202.929 131.102 C 200.349 129.756,194.581 128.550,193.914 129.217 M200.817 130.934 C 202.391 131.596,203.846 132.357,204.505 132.864 C 205.757 133.826,208.188 136.522,208.614 137.421 C 208.885 137.992,209.229 138.535,209.379 138.627 C 209.528 138.719,209.745 139.236,209.860 139.776 C 209.976 140.316,210.225 140.949,210.414 141.183 C 211.007 141.917,210.850 149.655,210.220 150.758 C 209.934 151.258,209.700 151.889,209.699 152.160 C 209.698 152.431,209.492 152.823,209.242 153.030 C 208.992 153.238,208.788 153.547,208.788 153.718 C 208.788 154.115,206.718 156.682,205.936 157.254 C 205.608 157.494,205.118 157.903,204.847 158.163 C 204.346 158.645,203.463 159.117,200.758 160.351 C 199.304 161.015,198.859 161.047,189.786 161.156 L 180.329 161.270 180.121 160.441 C 179.707 158.792,180.192 142.366,180.688 141.212 C 180.939 140.629,181.467 139.402,181.860 138.485 C 182.774 136.356,186.228 132.814,188.337 131.843 C 189.168 131.460,190.258 130.961,190.758 130.735 C 192.749 129.832,198.463 129.945,200.817 130.934 M83.717 134.570 C 83.512 135.118,83.399 135.621,83.466 135.688 C 83.682 135.904,84.284 134.529,84.186 134.044 C 84.130 133.767,83.938 133.983,83.717 134.570 M82.583 138.182 C 79.485 149.936,84.871 164.221,95.261 171.803 C 98.057 173.844,103.366 176.438,102.424 175.303 C 102.217 175.053,101.778 174.848,101.450 174.848 C 101.122 174.848,100.506 174.576,100.083 174.242 C 99.659 173.909,99.058 173.636,98.747 173.636 C 98.436 173.636,98.182 173.503,98.182 173.339 C 98.182 173.176,97.851 172.959,97.446 172.857 C 97.042 172.756,96.637 172.480,96.547 172.245 C 96.456 172.010,96.208 171.818,95.994 171.818 C 95.625 171.818,94.687 171.056,91.968 168.545 C 90.789 167.457,87.788 163.801,87.068 162.576 C 86.021 160.795,84.242 157.172,84.242 156.819 C 84.242 156.596,84.049 156.027,83.814 155.555 C 82.219 152.366,81.697 142.503,82.924 138.742 C 83.177 137.967,83.338 137.013,83.283 136.621 C 83.218 136.168,82.964 136.735,82.583 138.182 M103.485 175.977 C 103.818 176.059,104.240 176.247,104.423 176.394 C 105.917 177.604,111.116 177.872,133.182 177.880 C 155.944 177.889,155.638 177.868,155.310 179.364 C 154.577 182.699,151.064 186.271,147.265 187.544 L 145.303 188.202 112.879 188.116 L 80.455 188.030 78.453 187.051 C 76.215 185.956,73.578 183.461,72.516 181.431 C 72.147 180.728,71.839 180.322,71.832 180.531 C 71.776 182.068,75.607 186.138,78.359 187.467 L 80.152 188.333 113.636 188.333 C 145.039 188.333,147.168 188.300,147.870 187.803 C 148.283 187.511,148.808 187.273,149.039 187.273 C 149.775 187.273,153.333 184.273,153.333 183.653 C 153.333 183.513,153.538 183.320,153.788 183.224 C 154.038 183.128,154.242 182.885,154.242 182.685 C 154.242 182.484,154.426 182.105,154.651 181.842 C 154.876 181.579,155.280 180.682,155.550 179.848 C 156.335 177.422,157.772 177.576,134.312 177.576 C 112.772 177.576,107.728 177.337,105.257 176.198 C 104.732 175.956,103.982 175.773,103.591 175.793 C 102.969 175.823,102.955 175.847,103.485 175.977 M204.913 194.628 C 203.671 195.951,204.202 197.273,205.977 197.273 C 207.268 197.273,207.884 196.066,207.214 194.848 C 206.660 193.840,205.737 193.751,204.913 194.628 M209.593 194.799 C 208.418 196.025,208.927 197.263,210.606 197.263 C 212.210 197.263,212.943 195.670,211.844 194.572 C 211.003 193.730,210.575 193.774,209.593 194.799 M206.735 195.321 C 207.151 195.737,206.556 196.667,205.874 196.667 C 205.173 196.667,204.852 195.855,205.354 195.354 C 205.599 195.108,206.501 195.087,206.735 195.321 M211.605 195.343 C 211.951 195.688,211.204 196.667,210.595 196.667 C 210.014 196.667,209.755 195.801,210.202 195.354 C 210.458 195.098,211.353 195.091,211.605 195.343 M201.768 198.301 C 201.259 198.555,200.993 199.034,200.821 200.009 C 200.689 200.754,200.442 201.773,200.272 202.273 C 199.489 204.580,199.558 210.091,200.382 211.070 C 204.236 215.651,211.293 212.887,212.401 206.364 C 212.556 205.447,212.815 204.152,212.975 203.485 C 213.895 199.652,213.454 197.511,211.847 198.021 C 210.919 198.316,210.270 199.911,209.809 203.030 C 208.951 208.831,208.296 209.842,205.394 209.846 C 202.810 209.850,202.163 208.911,202.873 206.186 C 203.126 205.214,203.333 203.918,203.333 203.308 C 203.333 202.697,203.533 201.631,203.777 200.939 C 204.522 198.827,203.474 197.451,201.768 198.301 M280.354 198.362 C 279.068 199.262,279.532 201.061,281.049 201.061 C 282.797 201.061,283.522 199.805,282.440 198.653 C 281.591 197.749,281.289 197.707,280.354 198.362 M216.229 198.855 C 215.970 199.226,215.758 200.046,215.758 200.678 C 215.758 201.310,215.562 202.609,215.323 203.565 C 213.447 211.079,213.731 214.678,216.037 212.599 C 216.453 212.224,216.690 212.248,217.851 212.782 C 222.551 214.940,228.170 208.635,225.484 204.218 C 224.292 202.258,221.235 201.201,219.831 202.263 C 218.501 203.269,218.198 202.905,218.726 200.934 C 219.407 198.391,217.605 196.891,216.229 198.855 M202.793 199.251 C 203.233 199.420,203.021 202.073,202.405 204.108 C 201.656 206.581,201.703 208.605,202.533 209.591 C 205.208 212.770,209.558 210.493,210.149 205.606 C 210.302 204.346,210.991 200.947,211.393 199.470 C 211.729 198.234,212.782 199.129,212.640 200.530 C 211.839 208.458,210.363 211.337,206.699 212.114 C 201.612 213.194,198.863 209.627,200.749 204.394 C 200.989 203.727,201.192 202.611,201.199 201.914 C 201.222 199.713,201.740 198.847,202.793 199.251 M217.929 201.279 C 217.817 203.454,218.075 203.877,219.159 203.297 C 221.513 202.037,225.100 203.460,225.182 205.687 C 225.370 210.753,222.167 213.475,217.917 211.861 C 217.063 211.536,216.287 211.394,216.194 211.544 C 215.789 212.200,214.467 211.845,214.677 211.136 C 214.788 210.761,215.009 209.501,215.168 208.335 C 215.327 207.169,215.583 205.805,215.738 205.304 C 215.892 204.804,216.111 203.401,216.223 202.187 C 216.556 198.588,218.109 197.761,217.929 201.279 M281.953 199.367 C 282.279 199.895,281.748 200.606,281.028 200.606 C 280.457 200.606,280.303 200.446,280.303 199.848 C 280.303 199.075,281.548 198.711,281.953 199.367 M231.216 202.460 C 223.687 206.080,227.518 216.022,235.103 212.549 C 237.805 211.313,236.992 209.375,234.018 209.960 C 232.689 210.222,231.986 210.224,231.255 209.970 C 229.416 209.328,230.344 208.943,233.946 208.853 C 238.100 208.749,238.182 208.695,238.182 206.076 C 238.182 204.042,237.500 202.727,236.445 202.727 C 236.261 202.727,236.059 202.570,235.995 202.378 C 235.769 201.700,232.688 201.752,231.216 202.460 M244.303 202.325 C 243.549 202.696,243.217 202.732,242.954 202.470 C 241.518 201.033,240.445 203.015,239.699 208.485 C 239.552 209.568,239.341 210.817,239.231 211.261 C 239.068 211.915,239.180 212.165,239.818 212.584 C 241.021 213.372,241.981 212.628,242.252 210.699 C 242.861 206.361,243.699 205.152,246.098 205.152 C 247.699 205.152,247.898 205.078,248.283 204.343 L 248.707 203.534 249.166 204.267 C 249.418 204.670,249.705 205.828,249.802 206.839 C 250.014 209.042,250.760 212.031,251.242 212.612 C 252.244 213.818,254.791 212.299,255.324 210.177 C 255.432 209.747,255.631 209.394,255.766 209.394 C 255.902 209.394,256.115 208.951,256.239 208.409 C 256.511 207.233,256.883 208.061,256.939 209.964 C 257.008 212.292,258.573 213.548,260.248 212.619 C 261.014 212.194,261.038 212.156,263.028 208.267 C 263.776 206.803,264.639 205.251,264.946 204.817 C 265.786 203.628,265.533 202.299,264.443 202.174 C 263.285 202.042,262.563 202.759,261.448 205.148 C 259.736 208.815,259.514 208.884,259.280 205.819 C 258.892 200.730,257.098 200.676,254.658 205.679 C 253.269 208.530,253.236 208.531,252.716 205.754 C 252.008 201.965,251.263 201.280,249.405 202.708 C 248.665 203.277,248.653 203.276,247.980 202.550 C 247.173 201.679,245.785 201.594,244.303 202.325 M269.257 202.669 C 264.917 205.030,264.335 209.683,268.006 212.666 C 269.733 214.069,275.152 212.709,275.152 210.873 C 275.152 209.777,274.157 209.472,272.286 209.996 C 270.622 210.462,268.510 209.942,269.114 209.214 C 269.377 208.898,270.276 208.788,272.591 208.788 C 276.047 208.788,276.970 208.280,276.970 206.380 C 276.970 202.732,272.815 200.734,269.257 202.669 M286.061 202.437 C 282.449 204.425,282.826 207.527,286.816 208.670 C 288.958 209.284,289.315 209.898,287.832 210.420 C 287.222 210.634,286.736 210.554,285.774 210.078 C 284.088 209.243,282.916 209.522,282.789 210.786 C 282.574 212.933,286.722 214.105,289.546 212.694 C 293.783 210.579,292.701 206.671,287.670 205.916 L 286.240 205.702 286.984 205.116 C 287.508 204.704,287.995 204.583,288.636 204.707 C 291.731 205.306,292.424 205.080,292.424 203.476 C 292.424 202.133,287.942 201.401,286.061 202.437 M311.970 202.240 C 311.278 202.774,310.126 202.874,309.848 202.424 C 308.906 200.900,307.376 203.018,306.916 206.484 C 306.758 207.668,306.502 209.055,306.345 209.567 C 305.829 211.256,305.985 212.403,306.781 212.765 C 308.291 213.453,309.379 211.907,309.391 209.054 C 309.397 207.606,310.548 205.481,311.452 205.250 C 313.984 204.604,314.380 205.212,313.916 209.038 C 313.521 212.298,313.690 213.030,314.839 213.030 C 315.468 213.030,316.364 212.104,316.364 211.453 C 316.364 211.194,316.568 210.494,316.818 209.895 C 317.871 207.376,317.064 202.727,315.574 202.727 C 315.370 202.727,315.154 202.582,315.094 202.405 C 314.907 201.841,312.641 201.721,311.970 202.240 M322.424 202.655 C 320.068 203.828,318.788 205.813,318.788 208.294 C 318.788 210.021,319.621 212.121,320.306 212.121 C 320.447 212.121,320.785 212.343,321.057 212.615 C 321.783 213.342,323.894 213.487,325.283 212.907 C 325.929 212.637,326.527 212.486,326.612 212.572 C 326.698 212.657,326.619 212.727,326.438 212.727 C 326.257 212.727,326.019 213.134,325.910 213.631 C 325.567 215.195,322.333 215.626,321.212 214.256 C 319.876 212.623,317.814 213.637,318.517 215.582 C 320.194 220.219,328.561 218.218,329.393 212.982 C 329.534 212.092,329.793 210.818,329.969 210.152 C 330.145 209.485,330.291 208.394,330.294 207.727 C 330.297 207.061,330.530 205.874,330.811 205.090 C 331.558 203.006,329.974 200.751,328.939 202.424 C 328.667 202.866,327.516 202.778,326.836 202.263 C 325.941 201.586,324.273 201.735,322.424 202.655 M279.451 202.739 C 278.999 203.161,278.788 203.715,278.788 204.484 C 278.788 205.103,278.647 206.086,278.474 206.669 C 277.381 210.352,277.620 213.135,279.015 212.975 C 280.118 212.848,280.908 211.175,281.236 208.271 C 281.372 207.070,281.648 205.536,281.850 204.861 C 282.542 202.552,281.059 201.241,279.451 202.739 M295.181 202.540 C 294.561 203.288,293.939 206.340,293.939 208.641 C 293.939 211.890,295.335 213.293,298.322 213.048 C 298.816 213.007,299.480 212.792,299.797 212.570 C 300.286 212.228,300.538 212.243,301.430 212.669 C 303.032 213.432,304.236 211.558,304.241 208.296 C 304.242 207.608,304.447 206.466,304.697 205.758 C 305.514 203.442,305.181 202.121,303.780 202.121 C 302.671 202.121,301.818 203.345,301.818 204.937 C 301.818 206.758,300.674 209.607,299.854 209.827 C 297.276 210.520,296.827 209.895,297.231 206.177 C 297.629 202.514,296.648 200.773,295.181 202.540 M235.481 203.085 C 237.202 203.685,238.251 205.621,237.736 207.246 C 237.548 207.839,237.317 207.879,234.095 207.879 C 230.030 207.879,229.697 207.971,229.697 209.099 C 229.697 210.734,232.496 211.756,234.242 210.758 C 235.344 210.128,235.815 210.195,235.703 210.966 C 235.579 211.816,233.170 212.517,231.269 212.257 C 227.537 211.747,226.733 207.011,229.875 204.051 C 231.081 202.914,233.698 202.463,235.481 203.085 M247.101 203.023 C 247.529 203.185,247.879 203.462,247.879 203.639 C 247.879 204.124,246.588 204.512,246.000 204.204 C 244.378 203.355,242.155 205.906,241.896 208.913 C 241.706 211.120,241.393 211.818,240.593 211.818 C 239.936 211.818,239.975 209.585,240.672 207.302 C 240.845 206.735,241.071 205.576,241.175 204.727 L 241.364 203.182 243.245 203.169 C 244.280 203.162,245.223 203.060,245.341 202.942 C 245.635 202.648,246.181 202.673,247.101 203.023 M273.866 203.009 C 275.457 203.465,275.898 204.120,275.904 206.034 L 275.909 207.727 272.153 207.879 C 269.139 208.000,268.337 208.127,268.090 208.519 C 267.030 210.206,270.567 211.875,272.777 210.732 C 273.773 210.217,274.390 210.474,274.083 211.275 C 273.486 212.830,268.227 212.545,267.005 210.892 C 264.190 207.085,268.962 201.603,273.866 203.009 M290.855 203.138 L 291.862 203.503 291.227 204.078 C 290.740 204.518,290.509 204.569,290.235 204.296 C 289.762 203.823,287.210 203.839,286.615 204.318 C 285.224 205.439,286.280 206.707,288.936 207.105 C 292.137 207.585,292.198 210.773,289.031 212.089 C 286.779 213.025,283.606 212.380,283.388 210.941 C 283.270 210.166,284.359 210.067,285.285 210.767 C 286.307 211.540,288.395 211.340,289.281 210.384 L 290.049 209.556 289.111 208.717 C 288.462 208.137,287.843 207.879,287.104 207.879 C 285.586 207.879,284.242 206.816,284.242 205.616 C 284.242 203.455,287.923 202.076,290.855 203.138 M316.190 204.391 C 316.762 205.455,316.751 205.983,316.078 209.690 C 315.737 211.571,315.351 212.221,314.697 212.017 C 314.183 211.856,314.173 210.642,314.674 209.173 C 315.393 207.061,315.296 205.790,314.337 204.789 C 312.404 202.772,308.792 205.206,308.786 208.531 C 308.783 210.338,308.222 211.818,307.540 211.818 C 306.823 211.818,306.890 210.186,307.774 206.061 C 308.476 202.785,308.404 202.933,309.170 203.182 C 310.024 203.460,310.742 203.444,312.273 203.112 C 314.110 202.714,315.537 203.180,316.190 204.391 M327.076 203.180 C 328.030 203.469,328.726 203.529,329.062 203.349 C 330.282 202.696,330.303 205.497,329.112 210.152 C 328.942 210.818,328.799 211.773,328.796 212.273 C 328.787 213.578,327.648 215.545,326.411 216.392 C 324.034 218.020,318.863 217.038,319.154 215.014 C 319.290 214.070,320.108 214.120,321.198 215.138 C 322.361 216.224,323.455 216.321,325.088 215.483 C 327.780 214.101,328.037 211.059,325.382 211.995 C 321.207 213.468,318.217 210.331,319.965 206.313 C 321.263 203.331,323.836 202.197,327.076 203.180 M251.883 205.606 C 252.190 209.043,252.322 209.452,253.086 209.338 C 253.801 209.231,253.764 209.289,255.360 205.837 C 257.224 201.808,258.788 202.667,258.788 207.720 C 258.788 210.532,260.203 209.759,261.826 206.061 C 262.871 203.680,263.328 203.030,263.956 203.030 C 264.733 203.030,264.985 203.581,264.484 204.186 C 264.252 204.467,263.684 205.447,263.224 206.364 C 262.301 208.199,261.971 208.827,261.511 209.621 C 261.342 209.913,261.059 210.518,260.882 210.966 C 260.550 211.805,258.965 212.441,258.491 211.925 C 258.361 211.783,258.027 210.622,257.749 209.345 C 257.063 206.193,256.673 206.146,255.163 209.028 C 254.490 210.312,253.939 211.456,253.939 211.569 C 253.939 211.841,252.755 212.012,251.894 211.864 C 251.331 211.768,251.212 211.552,251.212 210.626 C 251.212 210.009,251.021 208.831,250.788 208.010 C 249.797 204.517,249.881 202.926,251.048 203.093 C 251.590 203.171,251.693 203.481,251.883 205.606 M281.038 204.653 C 280.894 205.712,280.358 208.696,279.819 211.439 C 279.681 212.145,278.690 212.395,278.331 211.814 C 278.227 211.645,278.346 210.793,278.597 209.920 C 278.848 209.047,279.145 207.447,279.258 206.364 C 279.486 204.164,280.062 202.957,280.757 203.223 C 281.098 203.355,281.167 203.704,281.038 204.653 M296.711 204.545 C 296.651 205.295,296.481 206.139,296.332 206.419 C 294.891 209.131,297.417 212.019,299.954 210.559 C 301.539 209.647,301.853 209.071,302.308 206.240 C 302.701 203.801,303.345 202.617,303.950 203.223 C 304.246 203.519,303.923 206.278,303.103 210.455 L 302.865 211.667 301.357 211.700 C 300.527 211.718,299.345 211.837,298.729 211.964 C 295.856 212.557,294.333 211.269,294.658 208.524 C 295.304 203.084,295.335 202.971,296.147 203.086 C 296.746 203.171,296.807 203.329,296.711 204.545 M219.343 204.554 C 216.986 205.798,216.142 208.751,217.717 210.244 C 220.737 213.108,225.811 207.953,222.869 205.010 C 221.656 203.798,220.947 203.706,219.343 204.554 M231.472 204.682 C 229.103 206.292,229.673 207.128,233.074 207.029 C 235.897 206.947,236.061 206.886,236.061 205.913 C 236.061 204.121,233.363 203.397,231.472 204.682 M269.946 204.631 C 268.695 205.376,268.264 206.527,269.073 206.960 C 269.871 207.387,273.954 207.131,274.269 206.634 C 275.487 204.711,272.294 203.231,269.946 204.631 M322.985 204.700 C 320.090 206.597,320.573 210.598,323.760 211.115 C 325.142 211.339,326.760 210.331,327.596 208.724 C 329.293 205.466,326.086 202.667,322.985 204.700 M234.673 205.196 C 235.865 205.739,235.295 206.061,233.139 206.061 C 231.716 206.061,231.196 205.957,231.285 205.690 C 231.528 204.962,233.521 204.671,234.673 205.196 M273.180 205.151 C 274.452 205.634,273.758 206.061,271.699 206.061 C 269.460 206.061,268.965 205.764,270.361 205.258 C 271.636 204.796,272.191 204.775,273.180 205.151 M326.916 205.675 C 328.568 207.877,324.341 211.734,322.401 209.794 C 321.849 209.243,322.010 206.686,322.641 205.984 C 323.755 204.746,326.092 204.576,326.916 205.675 M222.750 205.970 C 223.502 207.947,222.074 209.975,219.872 210.057 C 217.345 210.152,216.839 207.361,219.052 205.530 C 219.981 204.762,222.401 205.050,222.750 205.970 " stroke="none" fill="#bfbfbe" fill-rule="evenodd"></path></g></svg>