<svg id="Layer_1" data-name="Layer 1" xmlns="http://www.w3.org/2000/svg" width="38.49" height="72.22" viewBox="0 0 38.49 72.22"><defs><style>.cls-1{fill:#d24a00;}.cls-2{isolation:isolate;}.cls-3{fill:#565656;}</style></defs><title>express-connect-icon</title><path class="cls-1" d="M37.6,33.73H6.2C7.5,18.43,20.7,6.33,37,6.23V.83C17.2.93,1.2,16.73,1.2,36.23s16,35.3,35.8,35.4v-5.4c-16.2-.1-29.4-12-30.8-27.3H37.6Z"/><g class="cls-2"><path class="cls-3" d="M14.7,41H11a26.47,26.47,0,0,0,25.8,20.3v-3.9C26.1,57.33,17.2,50.43,14.7,41Z"/><path class="cls-3" d="M10.9,31.33h3.6c2.1-9.9,11.3-17.3,22.3-17.4V10C23.8,10.13,13,19.33,10.9,31.33Z"/></g></svg>