<svg id="Layer_1" data-name="Layer 1" xmlns="http://www.w3.org/2000/svg" viewBox="0 0 88.47 81.52"><defs><style>.cls-1{fill:#803cd6;stroke:#803cd6;stroke-miterlimit:10;stroke-width:0.05px;}</style></defs><title>Home_icon</title><path class="cls-1" d="M70.66,24.59a8.83,8.83,0,0,1-1.29-.83l-8.5-7-8.22-6.73a1.78,1.78,0,0,0-2.59,0l-.41.36-19.5,17L7.67,47.11A1.76,1.76,0,1,0,10,49.74L46.87,17.56l4.51-3.93a1.48,1.48,0,0,1,.19.11q8.1,6.65,16.2,13.29a17.62,17.62,0,0,0,3.67,2.67,1.85,1.85,0,0,0,2.73-1.79c-.09-2.36,0-4.72,0-7.09v-.64H80a.66.66,0,0,1,0,.15c0,4.12,0,8.25,0,12.37a.8.8,0,0,1-.31.51,1.74,1.74,0,0,0-.23,2.72c.42.46.84.91,1.27,1.36l7.31,7.83,4.17,4.48a1.76,1.76,0,0,0,1.66.64,1.66,1.66,0,0,0,1.39-1.18,1.84,1.84,0,0,0-.52-1.92C91.32,43.43,87.86,39.7,84.38,36a2.49,2.49,0,0,1-.81-1.94c.08-5.16,0-10.33,0-15.49a1.73,1.73,0,0,0-1.88-1.92H72.54a1.71,1.71,0,0,0-1.88,1.91c0,2,0,4,0,6" transform="translate(-6.96 -9.51)"/><path class="cls-1" d="M83.59,71.75a1.53,1.53,0,0,0,0-.25c0-.48,0-1,0-1.44a1,1,0,0,0,0-.36q0-.58,0-1.15a1.48,1.48,0,0,0,0-.43q0-.16,0-.33a.62.62,0,0,1,0-.1h0q0-.46,0-.93h0V65c0-3.28,0-6.56,0-9.84a1.77,1.77,0,0,0-2.49-1.74,1.74,1.74,0,0,0-1,1.69c0,3.48,0,7,0,10.44v0c0,.56,0,1.13,0,1.69v.27h0q0,.79,0,1.58v7c0,.17,0,.34,0,.52h0v.22h0q0,4.89,0,9.78v.78c-.27,0-.5,0-.73,0-4.64,0-9.29,0-13.93,0-.58,0-.73-.17-.73-.74q0-14.41,0-28.82a1.89,1.89,0,0,0-1-1.88,2.57,2.57,0,0,0-1-.22H39.52a2.57,2.57,0,0,0-1,.22,1.89,1.89,0,0,0-1,1.88q0,14.41,0,28.82c0,.57-.14.74-.73.74-4.64,0-9.29,0-13.93,0-.23,0-.46,0-.73,0v-.78q0-4.89,0-9.78h0v-.22h0c0-.17,0-.34,0-.52v-7q0-.79,0-1.58h0v-.27c0-.56,0-1.13,0-1.69v0c0-3.48,0-7,0-10.44a1.74,1.74,0,0,0-1-1.69,1.77,1.77,0,0,0-2.49,1.74c0,3.28,0,6.56,0,9.84v1.73h0q0,.46,0,.93h0a.62.62,0,0,1,0,.1q0,.16,0,.33a1.48,1.48,0,0,0,0,.43q0,.58,0,1.15a1,1,0,0,0,0,.36c0,.48,0,1,0,1.44a1.53,1.53,0,0,0,0,.25c0,5.7,0,11.41,0,17.11,0,1.5.65,2.14,2.16,2.14H38.91c1.56,0,2.19-.62,2.19-2.17q0-14.29,0-28.58v-.82H61.15v.82q0,14.29,0,28.58c0,1.55.62,2.17,2.19,2.17H81.41c1.51,0,2.16-.64,2.16-2.14C83.57,83.16,83.56,77.45,83.59,71.75Z" transform="translate(-6.96 -9.51)"/></svg>