<svg id="Layer_1" data-name="Layer 1" xmlns="http://www.w3.org/2000/svg" viewBox="0 0 100 72"><defs><style>.cls-1{fill:#fff;}.cls-2{fill:#dc126f;}</style></defs><title>Untitled-3</title><path d="M14.8,66.61V6H50.92c1.68,0,3.37.05,5,.19A42.87,42.87,0,0,1,67,8.4,28.54,28.54,0,0,1,74,12a24.38,24.38,0,0,1,8.11,9.79A30.47,30.47,0,0,1,84.33,29,40.34,40.34,0,0,1,85,38a36.82,36.82,0,0,1-1,7.54,27.73,27.73,0,0,1-3,7.46,24.14,24.14,0,0,1-6.47,7.17,29.42,29.42,0,0,1-8.6,4.32A40.6,40.6,0,0,1,60.1,65.9a56,56,0,0,1-9.27.71h-36Zm2.84-2.86H50.86a55.21,55.21,0,0,0,7.58-.48,40.54,40.54,0,0,0,4.64-.9,29.12,29.12,0,0,0,7.73-3.16,22.13,22.13,0,0,0,5.25-4.33,22.69,22.69,0,0,0,4.55-8.1,32,32,0,0,0,1.46-8,41.94,41.94,0,0,0,0-4.55,35,35,0,0,0-.54-4.75,26.16,26.16,0,0,0-2.37-7.13,21.56,21.56,0,0,0-5.53-6.91A25.5,25.5,0,0,0,66,11.14,39.88,39.88,0,0,0,55.61,9c-1.82-.15-3.64-.18-5.46-.18H17.85l-.2,0Z"/><path class="cls-1" d="M17.65,63.75V8.84l.2,0H50.14c1.82,0,3.65,0,5.46.18A39.88,39.88,0,0,1,66,11.14a25.5,25.5,0,0,1,7.62,4.26,21.56,21.56,0,0,1,5.53,6.91,26.16,26.16,0,0,1,2.37,7.13,35,35,0,0,1,.54,4.75,41.94,41.94,0,0,1,0,4.55,32,32,0,0,1-1.46,8,22.69,22.69,0,0,1-4.55,8.1,22.13,22.13,0,0,1-5.25,4.33,29.12,29.12,0,0,1-7.73,3.16,40.54,40.54,0,0,1-4.64.9,55.21,55.21,0,0,1-7.58.48H17.65ZM69.92,36.87V24.5H73c0,1.55,0,3.08,0,4.61s0,3.08,0,4.63h4.51a1.76,1.76,0,0,0,0-.2c-.1-.79-.18-1.58-.3-2.37a22.38,22.38,0,0,0-1.49-5.35,17.87,17.87,0,0,0-6.64-8.09,23.08,23.08,0,0,0-6.3-2.9,35.57,35.57,0,0,0-6.64-1.27c-1.44-.15-2.88-.23-4.33-.24-4.45,0-8.91,0-13.36,0h-.24V24.49h.28c.51,0,1,0,1.53,0a9.12,9.12,0,0,1,1.31.11,4.9,4.9,0,0,1,3.56,2.49,6.38,6.38,0,0,1,.76,2.44,8.72,8.72,0,0,1-.29,3.62,5,5,0,0,1-2.39,3,5.71,5.71,0,0,1-2.65.67c-.6,0-1.21,0-1.81,0h-.27c-.06.35,0,22.18,0,22.39H50.71c.85,0,1.7,0,2.55,0,1.36,0,2.71-.15,4.06-.31a36.13,36.13,0,0,0,4.42-.8,24.41,24.41,0,0,0,6.64-2.64,17.35,17.35,0,0,0,6.55-6.78,23,23,0,0,0,2.46-8.18c.14-1.11.2-2.22.24-3.33,0-.09,0-.19,0-.3ZM32.79,59.26v-19H22.13v19ZM27.46,37.32a6.64,6.64,0,1,0-6.65-6.64A6.65,6.65,0,0,0,27.46,37.32Zm10.75-3.57c.81,0,1.58,0,2.35,0a1.88,1.88,0,0,0,1.84-1.52c0-.07,0-.13.05-.2a6.48,6.48,0,0,0,.08-2.27,3.2,3.2,0,0,0-.31-1.05,1.8,1.8,0,0,0-1.11-.95,2.71,2.71,0,0,0-.69-.12c-.68,0-1.37,0-2,0l-.16,0Z"/><path class="cls-2" d="M69.92,36.87h7.7c0,.12,0,.21,0,.3,0,1.11-.11,2.22-.24,3.33a23,23,0,0,1-2.46,8.18,17.35,17.35,0,0,1-6.55,6.78,24.41,24.41,0,0,1-6.64,2.64,36.13,36.13,0,0,1-4.42.8c-1.35.16-2.7.28-4.06.31-.85,0-1.7,0-2.55,0H38.25c-.06-.21-.07-22,0-22.39h.27c.6,0,1.21,0,1.81,0A5.71,5.71,0,0,0,43,36.19a5,5,0,0,0,2.39-3,8.72,8.72,0,0,0,.29-3.62,6.38,6.38,0,0,0-.76-2.44,4.9,4.9,0,0,0-3.56-2.49A9.12,9.12,0,0,0,40,24.49c-.51,0-1,0-1.53,0h-.28V13.32h.24c4.45,0,8.91,0,13.36,0,1.45,0,2.89.09,4.33.24a35.57,35.57,0,0,1,6.64,1.27,23.08,23.08,0,0,1,6.3,2.9,17.87,17.87,0,0,1,6.64,8.09,22.38,22.38,0,0,1,1.49,5.35c.12.79.2,1.58.3,2.37a1.76,1.76,0,0,1,0,.2H73c0-1.55,0-3.09,0-4.63S73,26,73,24.5h-3.1Zm-9.47-2.37h4l.35,1.19.34,1.16a30.7,30.7,0,0,0,3.22,0L64.66,24.5H60.25L56.53,36.85h3.24Zm-13-10c-.06.47,0,12.15,0,12.35H55a23.17,23.17,0,0,0,0-3.1H50.54c0-.56,0-1.1,0-1.67h4a20.83,20.83,0,0,0,0-3.1h-3c-.33,0-.66,0-1,0a5,5,0,0,1,0-1.38h4.23V24.5Z"/><path d="M32.79,59.26H22.13v-19H32.79Z"/><path d="M27.46,37.32a6.64,6.64,0,1,1,6.63-6.65A6.65,6.65,0,0,1,27.46,37.32Z"/><path class="cls-2" d="M38.22,33.74V27.63l.16,0c.68,0,1.37,0,2,0a2.71,2.71,0,0,1,.69.12,1.8,1.8,0,0,1,1.11.95,3.2,3.2,0,0,1,.31,1.05A6.48,6.48,0,0,1,42.46,32c0,.07,0,.14-.05.2a1.88,1.88,0,0,1-1.84,1.52C39.8,33.78,39,33.74,38.22,33.74Z"/><path class="cls-1" d="M60.45,34.51l-.69,2.35H56.53L60.25,24.5h4.41l3.72,12.33a30.7,30.7,0,0,1-3.22,0l-.34-1.16-.35-1.19Zm3.09-3.13c0-.1,0-.16-.06-.23l-.88-3c0-.08,0-.21-.14-.22s-.12.13-.15.21q-.45,1.51-.89,3a1.78,1.78,0,0,0,0,.21Z"/><path class="cls-1" d="M47.46,24.5h7.36v3.09H50.59a5,5,0,0,0,0,1.38c.32,0,.65,0,1,0h3a20.83,20.83,0,0,1,0,3.1h-4c0,.57,0,1.1,0,1.67H55a23.17,23.17,0,0,1,0,3.1H47.49C47.43,36.66,47.41,25,47.46,24.5Z"/><path class="cls-2" d="M63.54,31.37H61.39a1.78,1.78,0,0,1,0-.21q.44-1.51.89-3c0-.08,0-.22.15-.21s.12.13.14.22l.88,3C63.5,31.21,63.51,31.27,63.54,31.37Z"/></svg>