<?xml version="1.0" encoding="utf-8"?>
<!-- Generator: Adobe Illustrator 23.0.1, SVG Export Plug-In . SVG Version: 6.00 Build 0)  -->
<svg version="1.1" id="Layer_1" xmlns="http://www.w3.org/2000/svg" xmlns:xlink="http://www.w3.org/1999/xlink" x="0px" y="0px"
	 viewBox="0 0 35.1 48.1" style="enable-background:new 0 0 35.1 48.1;" xml:space="preserve">
<style type="text/css">
	.st0{fill:#555555;}
	.st1{fill:#F0B51C;}
	.st2{fill:#FFFFFF;}
	.st3{fill:#1C1601;}
</style>
<g>
	<g>
		<g>
			<g>
				<path class="st0" d="M31.6,35H3.4c-1.2,0-2.2-0.6-2.8-1.5v11.1c0,1.6,1.3,2.8,2.8,2.8h28.2c1.6,0,2.8-1.3,2.8-2.8V33.5
					C33.8,34.4,32.8,35,31.6,35z"/>
				<path class="st1" d="M3.4,34.4h28.2c1.6,0,2.8-1.3,2.8-2.8V3.4c0-1.5-1.1-2.7-2.5-2.8c-0.1,0-0.2,0-0.3,0H3.4
					c-1.6,0-2.8,1.3-2.8,2.8v18.3v9.9C0.6,33.1,1.9,34.4,3.4,34.4z"/>
				<path class="st2" d="M31.6,0L31.6,0H3.4C1.6,0,0,1.5,0,3.4V24v20.6C0,46.5,1.6,48,3.4,48h28.2c1.9,0,3.4-1.5,3.4-3.4l0-41.2
					C35,1.5,33.5,0,31.6,0z M0.6,3.4c0-1.6,1.3-2.8,2.8-2.8h28.2c0.1,0,0.2,0,0.3,0c1.4,0.1,2.5,1.3,2.5,2.8v28.2
					c0,1.6-1.3,2.8-2.8,2.8H3.4c-1.6,0-2.8-1.3-2.8-2.8v-9.9V3.4z M34.4,44.6c0,1.6-1.3,2.8-2.8,2.8H3.4c-1.6,0-2.8-1.3-2.8-2.8
					V33.5C1.2,34.4,2.3,35,3.4,35h28.2c1.2,0,2.2-0.6,2.8-1.5V44.6z"/>
			</g>
			<path class="st3" d="M19.5,17.9l0-6.1l1.6-0.4v0.8c0,0,0.4-1,1.4-1.3c0.3-0.1,0.4,0,0.4,0v1.5c0,0-0.4,0-0.8,0.2
				c-0.6,0.2-0.9,0.7-0.9,1.5l0,3.3L19.5,17.9L19.5,17.9z"/>
			<path class="st3" d="M11.2,19.8c0,0-0.3-0.4-0.3-1.7c0-0.5,0-3,0-3l-0.8,0.2V14l0.8-0.2v-1.4l1.7-0.4v1.4l1.2-0.3v1.2l-1.2,0.3
				c0,0,0,2.5,0,3.1c0,1.4,0.4,1.7,0.4,1.7L11.2,19.8L11.2,19.8z"/>
			<path class="st3" d="M14,16.2c0-1.1,0.2-1.9,0.5-2.5c0.4-0.7,1-1.2,2-1.4c1.8-0.4,2.5,0.7,2.5,2.1c0,0.5,0,0.8,0,0.8l-3.2,0.8
				v0.1c0,1,0.2,1.5,0.9,1.4c0.6-0.1,0.7-0.5,0.8-0.9c0-0.1,0-0.2,0-0.2l1.5-0.4c0,0,0,0.1,0,0.3c0,0.6-0.2,2-2.3,2.5
				C14.5,19.2,14,18,14,16.2z M16.5,13.5c-0.5,0.1-0.8,0.6-0.8,1.5l1.6-0.4c0,0,0-0.1,0-0.3C17.3,13.7,17.1,13.4,16.5,13.5z"/>
			<path class="st3" d="M28.6,12.7C28.5,10.9,29,9.4,31,8.9c1.3-0.3,1.8,0,2.1,0.4c0.2,0.3,0.3,0.7,0.3,1.3l0,0.1l-1.6,0.4
				c0,0,0-0.2,0-0.2c0-0.7-0.2-1-0.7-0.8c-0.6,0.2-0.9,0.7-0.9,1.9c0,0.4,0,0.5,0,0.5c0,1.2,0.2,1.7,0.9,1.6
				c0.6-0.1,0.7-0.7,0.7-1.1c0-0.1,0-0.3,0-0.3l1.6-0.4c0,0,0,0.1,0,0.3c0,1.5-0.8,2.5-2.3,2.8C29,15.8,28.6,14.6,28.6,12.7z"/>
			<path class="st3" d="M23,15.3c0-1.4,0.8-1.8,2.1-2.4c1.1-0.5,1.1-0.7,1.1-1.1c0-0.3-0.2-0.6-0.7-0.5c-0.5,0.1-0.6,0.5-0.7,0.8
				c0,0.2,0,0.3,0,0.3l-1.6,0.4c0,0,0-0.5,0.1-0.9c0.2-0.8,1-1.4,2.3-1.7c1.7-0.4,2.2,0.3,2.2,1.5c0,0,0,1.5,0,2.7
				c0,1.3,0.2,1.5,0.2,1.5l-1.5,0.4c0,0-0.1-0.3-0.2-0.5c0,0-0.3,0.8-1.5,1.1C23.6,17.1,23,16.3,23,15.3z M26.2,13.4
				c0,0-0.3,0.2-0.8,0.5c-0.5,0.2-0.7,0.6-0.7,1c0,0.4,0.3,0.7,0.7,0.6c0.5-0.1,0.8-0.6,0.8-1.2C26.2,13.8,26.2,13.5,26.2,13.4
				L26.2,13.4z"/>
			<g>
				<path class="st3" d="M2.4,24.1c-0.5,0-1-0.4-1-1c0-0.2,0.1-0.4,0.2-0.5l0,0l0,0L3.9,22v1.7l0,0c-0.5,0.1-1.1,0.3-1.3,0.3
					C2.5,24.1,2.5,24.1,2.4,24.1z"/>
			</g>
			<g>
				<path class="st3" d="M2.4,26.3c-0.5,0-1-0.4-1-1c0-0.2,0.1-0.4,0.2-0.5l0,0l0,0l2.3-0.5V26l0,0c-0.5,0.1-1.1,0.3-1.3,0.3
					C2.5,26.3,2.5,26.3,2.4,26.3z"/>
			</g>
			<g>
				<path class="st3" d="M2.4,28.5c-0.5,0-1-0.4-1-1c0-0.2,0.1-0.4,0.2-0.5l0,0l2.3-0.5v1.7l0,0c-0.5,0.1-1.2,0.3-1.3,0.3
					C2.5,28.5,2.5,28.5,2.4,28.5z"/>
			</g>
			<path class="st3" d="M2.1,22l0-9.7l1.8-0.4v9.7L2.1,22L2.1,22z"/>
			<path class="st3" d="M6.5,21.1C6.5,20.5,6,20,5.4,20c-0.6,0-1.1,0.5-1.1,1.1l0,9.1c0,1.6,1.3,3,3,3c0.8,0,3.1,0,3.1,0l0-3.8
				c0-2.1,0-4.2,0-4.2c0-0.5-0.2-0.9-0.6-1.2L7,22.1c0,0,0,4.1,0,4.2c0,0.1-0.1,0.2-0.2,0.2c-0.1,0-0.2-0.1-0.2-0.2
				C6.5,26.3,6.5,21.7,6.5,21.1z"/>
			<g>
				<path class="st3" d="M8,14.4c-1.1,0.3-1.6,1.2-1.6,1.2v-0.7l-1.6,0.4l0,4.4c0.2-0.1,0.4-0.1,0.6-0.1c0.4,0,0.8,0.2,1.1,0.4v-2.8
					c0-0.7,0.3-1.2,0.8-1.3c0.4-0.1,0.7,0,0.7,0.7l0,4.1l1.7-0.4v-4.3C9.7,14.8,9.3,14.1,8,14.4z"/>
			</g>
		</g>
		<g>
			<g>
				<g>
					<path class="st3" d="M32.4,8.2c-0.6,0-1-0.5-1-1c0-0.6,0.5-1,1-1s1,0.5,1,1C33.4,7.7,33,8.2,32.4,8.2z M32.4,6.2
						c-0.5,0-0.9,0.4-0.9,0.9c0,0.5,0.4,0.9,0.9,0.9s0.9-0.4,0.9-0.9C33.3,6.6,32.9,6.2,32.4,6.2z"/>
				</g>
			</g>
			<g>
				<path class="st3" d="M32,6.5h0.4c0.2,0,0.3,0.1,0.3,0.3c0,0.2-0.1,0.3-0.2,0.3v0c0.1,0,0.2,0.1,0.2,0.3c0,0.1,0,0.2,0,0.3
					c0,0.1,0,0.1,0.1,0.1h-0.2c0,0,0-0.1,0-0.1c0-0.1,0-0.1,0-0.2c0-0.1,0-0.2-0.2-0.2h-0.2v0.6H32V6.5z M32.4,7.1
					c0.1,0,0.2-0.1,0.2-0.2c0-0.1-0.1-0.2-0.2-0.2h-0.2v0.4H32.4z"/>
			</g>
		</g>
	</g>
	<path id="Online" class="st2" d="M12.4,42.1c0,0.5-0.1,0.9-0.2,1.2c-0.2,0.4-0.4,0.6-0.7,0.8c-0.3,0.2-0.6,0.3-1,0.3
		s-0.7-0.1-1-0.3c-0.3-0.2-0.5-0.4-0.7-0.8c-0.2-0.3-0.3-0.7-0.3-1.2v-0.3c0-0.5,0.1-0.9,0.2-1.2c0.2-0.4,0.4-0.6,0.7-0.8
		c0.3-0.2,0.6-0.3,1-0.3c0.4,0,0.7,0.1,1,0.3c0.3,0.2,0.5,0.5,0.7,0.8s0.2,0.7,0.3,1.2V42.1z M11.3,41.9c0-0.5-0.1-0.8-0.2-1.1
		c-0.1-0.2-0.4-0.4-0.6-0.4c-0.5,0-0.8,0.4-0.9,1.3l0,0.3c0,0.5,0.1,0.8,0.2,1.1c0.1,0.2,0.4,0.4,0.7,0.4c0.3,0,0.5-0.1,0.6-0.4
		c0.1-0.2,0.2-0.6,0.2-1V41.9z M13.9,40.9l0,0.4c0.2-0.3,0.5-0.5,1-0.5c0.3,0,0.6,0.1,0.8,0.3s0.3,0.5,0.3,1v2.2h-1v-2.2
		c0-0.2,0-0.3-0.1-0.4c-0.1-0.1-0.2-0.1-0.4-0.1c-0.2,0-0.4,0.1-0.5,0.3v2.5h-1v-3.5H13.9z M17.6,44.3h-1v-4.9h1V44.3z M19.3,44.3
		h-1v-3.5h1V44.3z M18.2,40c0-0.2,0.1-0.3,0.2-0.4c0.1-0.1,0.2-0.1,0.4-0.1c0.2,0,0.3,0,0.4,0.1s0.2,0.2,0.2,0.4s-0.1,0.3-0.2,0.4
		s-0.2,0.1-0.4,0.1c-0.2,0-0.3,0-0.4-0.1C18.3,40.2,18.2,40.1,18.2,40z M20.9,40.9l0,0.4c0.2-0.3,0.5-0.5,1-0.5
		c0.3,0,0.6,0.1,0.8,0.3c0.2,0.2,0.3,0.5,0.3,1v2.2h-1v-2.2c0-0.2,0-0.3-0.1-0.4c-0.1-0.1-0.2-0.1-0.4-0.1c-0.2,0-0.4,0.1-0.5,0.3
		v2.5h-1v-3.5H20.9z M25.2,44.4c-0.5,0-0.9-0.2-1.2-0.5c-0.3-0.3-0.5-0.7-0.5-1.2v-0.1c0-0.4,0.1-0.7,0.2-0.9
		c0.1-0.3,0.3-0.5,0.6-0.6c0.2-0.1,0.5-0.2,0.9-0.2c0.5,0,0.8,0.2,1.1,0.5c0.3,0.3,0.4,0.7,0.4,1.3v0.4h-2.1c0,0.2,0.1,0.3,0.2,0.5
		c0.1,0.1,0.3,0.2,0.5,0.2c0.3,0,0.6-0.1,0.8-0.4l0.5,0.6c-0.1,0.2-0.3,0.3-0.6,0.4C25.7,44.4,25.4,44.4,25.2,44.4z M25,41.6
		c-0.3,0-0.5,0.2-0.5,0.6h1v-0.1c0-0.2,0-0.3-0.1-0.4C25.3,41.7,25.2,41.6,25,41.6z"/>
</g>
</svg>
