<?xml version="1.0" encoding="utf-8"?>
<!-- Generator: Adobe Illustrator 23.0.2, SVG Export Plug-In . SVG Version: 6.00 Build 0)  -->
<svg version="1.1" id="Layer_1" xmlns="http://www.w3.org/2000/svg" xmlns:xlink="http://www.w3.org/1999/xlink" x="0px" y="0px"
	 viewBox="0 0 43.6 43.7" style="enable-background:new 0 0 43.6 43.7;" xml:space="preserve">
<style type="text/css">
	.st0{fill:#E91B58;}
	.st1{fill:#27282A;}
	.st2{fill:#232D5A;}
	.st3{fill:#117CBF;}
	.st4{fill:#68747A;}
	.st5{fill:#6D767B;}
	.st6{fill:url(#SVGID_3_);}
	.st7{fill:url(#SVGID_4_);stroke:url(#SVGID_5_);stroke-width:0.1685;stroke-miterlimit:10;}
	.st8{opacity:0.9;fill:url(#SVGID_8_);}
	.st9{clip-path:url(#SVGID_9_);}
	.st10{fill:#FDB913;}
	.st11{fill:#FFFFFF;}
	.st12{fill:#231F20;}
	.st13{fill:none;stroke:#00E59E;stroke-width:2.6173;stroke-linecap:round;stroke-linejoin:round;stroke-miterlimit:10;}
	.st14{fill:#013A51;}
	.st15{fill:#EE2E24;}
	.st16{fill:#62CE02;}
	.st17{fill-rule:evenodd;clip-rule:evenodd;fill:#75767A;}
	.st18{fill:#75767A;}
	.st19{fill-rule:evenodd;clip-rule:evenodd;fill:#56A633;}
	.st20{fill:#56A633;}
	.st21{fill:#BD0027;}
	.st22{fill:#43557E;}
	.st23{fill:#737374;}
	.st24{fill:#EF5125;}
	.st25{fill:#7FBA42;}
	.st26{fill:#329FD9;}
	.st27{fill:#FCB713;}
	.st28{fill:#23408F;}
	.st29{fill:#2B223F;}
	.st30{fill:#EF5274;}
	.st31{fill:#7983BF;}
	.st32{fill:#004062;}
	.st33{fill:#344E75;}
	.st34{fill:#198A83;}
	.st35{fill:url(#SVGID_10_);}
	.st36{clip-path:url(#SVGID_11_);fill:url(#SVGID_12_);}
	.st37{clip-path:url(#SVGID_13_);fill:url(#SVGID_14_);}
	.st38{clip-path:url(#SVGID_15_);fill:url(#SVGID_16_);}
</style>
<g>
	<defs>
		<rect id="SVGID_2_" x="1.2" y="1.3" width="41.4" height="41.4"/>
	</defs>
	<clipPath id="SVGID_3_">
		<use xlink:href="#SVGID_2_"  style="overflow:visible;"/>
	</clipPath>
	<g style="clip-path:url(#SVGID_3_);">
		<path class="st10" d="M5.2,2h33.3c1.8,0,3.3,1.5,3.3,3.3v0v33.3c0,1.8-1.5,3.3-3.3,3.3l0,0H5.2c-1.8,0-3.3-1.5-3.3-3.3l0,0V5.3
			C1.9,3.5,3.4,2,5.2,2L5.2,2z"/>
		<path class="st11" d="M38.6,2c1.8,0,3.3,1.5,3.3,3.3v33.3c0,1.8-1.5,3.3-3.3,3.3H5.2c-1.8,0-3.3-1.5-3.3-3.3c0,0,0,0,0,0V5.3
			C1.9,3.5,3.4,2,5.2,2c0,0,0,0,0,0L38.6,2 M38.6,1.3H5.2c-2.2,0-4,1.8-4,4v33.3c0,2.2,1.8,4,4,4h33.3c2.2,0,4-1.8,4-4V5.3
			C42.6,3.1,40.8,1.3,38.6,1.3"/>
		<path class="st12" d="M24.2,22.4l0-7.2l1.9-0.4v0.9c0,0,0.5-1.2,1.6-1.5c0.2-0.1,0.3-0.1,0.5,0V16c-0.3,0-0.7,0.1-1,0.2
			c-0.7,0.3-1,0.9-1,1.8l0,4L24.2,22.4z"/>
		<path class="st12" d="M14.4,24.7c0,0-0.3-0.5-0.3-2.1v-3.6l-1,0.2v-1.5l1-0.2V16l2-0.5v1.6l1.4-0.3v1.5l-1.4,0.3c0,0,0,2.9,0,3.6
			c0,1.7,0.4,2,0.4,2L14.4,24.7z"/>
		<path class="st12" d="M17.7,20.5c0-1.3,0.2-2.2,0.6-2.9c0.5-0.8,1.2-1.4,2.3-1.6c2.2-0.5,3,0.8,2.9,2.5c0,0.6,0,0.9,0,0.9
			l-3.8,0.9v0.1c0,1.2,0.3,1.8,1,1.6c0.7-0.1,0.8-0.6,0.9-1.1c0-0.1,0-0.3,0-0.3l1.8-0.4c0,0,0,0.1,0,0.3c0,0.7-0.2,2.4-2.7,3
			C18.3,24,17.7,22.6,17.7,20.5 M20.7,17.2c-0.6,0.1-1,0.8-1,1.8l1.9-0.5c0,0,0-0.1,0-0.3C21.6,17.5,21.4,17.1,20.7,17.2"/>
		<path class="st12" d="M35,16.3c-0.1-2.2,0.5-3.9,2.9-4.5c1.6-0.4,2.1,0.1,2.4,0.4c0.3,0.4,0.4,0.9,0.4,1.6l0,0.1l-1.9,0.5
			c0,0,0-0.3,0-0.3c0-0.8-0.2-1.2-0.8-1c-0.7,0.2-1,0.9-1,2.2c0,0.5,0,0.6,0,0.6c0,1.4,0.2,2,1,1.8c0.7-0.1,0.8-0.8,0.8-1.3
			c0-0.1,0-0.4,0-0.4l1.9-0.4c0,0,0,0.1,0,0.3c0,1.8-1,3-2.7,3.4C35.5,19.9,35,18.5,35,16.3"/>
		<path class="st12" d="M28.4,19.3c0-1.7,1-2.2,2.4-2.8c1.3-0.5,1.3-0.8,1.3-1.3c0-0.4-0.2-0.7-0.8-0.6c-0.4,0.1-0.8,0.5-0.8,0.9
			c0,0.1,0,0.2,0,0.4l-1.8,0.4c0-0.4,0-0.7,0.1-1.1c0.3-1,1.2-1.7,2.7-2c2-0.5,2.6,0.4,2.6,1.7v3.2c0,1.5,0.3,1.8,0.3,1.8l-1.8,0.4
			c-0.1-0.2-0.2-0.4-0.2-0.7c0,0-0.4,1-1.8,1.3C29.1,21.4,28.4,20.6,28.4,19.3 M32.1,17.1c-0.3,0.2-0.6,0.4-1,0.6
			c-0.6,0.3-0.9,0.7-0.9,1.2c0,0.5,0.3,0.8,0.8,0.7c0.6-0.1,1-0.7,1-1.5V17.1z"/>
		<path class="st12" d="M4,29.7c-0.6,0-1.1-0.5-1.1-1.2c0-0.2,0.1-0.4,0.2-0.6l0,0l0,0l2.7-0.6v2.1l0,0c-0.6,0.1-1.3,0.3-1.5,0.3
			C4.2,29.7,4.1,29.7,4,29.7"/>
		<path class="st12" d="M4,32.4c-0.6,0-1.1-0.5-1.1-1.1c0-0.2,0.1-0.4,0.2-0.6l0,0l0,0l2.7-0.6V32l0,0c-0.6,0.1-1.3,0.3-1.5,0.3
			C4.2,32.4,4.1,32.4,4,32.4"/>
		<path class="st12" d="M4,35c-0.6,0-1.1-0.5-1.1-1.1c0-0.2,0.1-0.4,0.2-0.6l0,0l2.7-0.6v2.1l0,0c-0.6,0.2-1.4,0.3-1.5,0.3
			C4.2,35,4.1,35,4,35"/>
		<polygon class="st12" points="3.7,27.2 3.7,15.7 5.8,15.3 5.8,26.7 		"/>
		<path class="st12" d="M8.9,26.3c0-0.7-0.6-1.3-1.3-1.3c-0.7,0-1.3,0.6-1.3,1.3c0,0,0,0,0,0l0,10.7c0,1.9,1.6,3.5,3.5,3.5
			c1,0,3.7,0,3.7,0l0-4.5c0-2.4,0-4.9,0-5c0-0.6-0.3-1.1-0.8-1.4l-3.3-2.2c0,0,0,4.8,0,5c0,0.2-0.1,0.3-0.3,0.3
			c-0.2,0-0.3-0.1-0.3-0.3C8.9,32.4,8.9,26.9,8.9,26.3"/>
		<path class="st12" d="M10.6,18.2c-0.8,0.2-1.5,0.7-1.9,1.4v-0.8l-1.9,0.4l0,5.2c0.7-0.3,1.4-0.1,2,0.3v-3.3c0-0.8,0.4-1.4,1-1.6
			c0.4-0.1,0.8,0.1,0.8,0.8l0,4.9l2-0.5V20C12.6,18.8,12.1,17.9,10.6,18.2"/>
		<path class="st12" d="M39.5,10.9c-0.7,0-1.2-0.5-1.2-1.2c0-0.7,0.5-1.2,1.2-1.2c0.7,0,1.2,0.5,1.2,1.2c0,0,0,0,0,0
			C40.7,10.3,40.2,10.9,39.5,10.9 M39.5,8.6c-0.6,0-1.1,0.5-1.1,1.1c0,0.6,0.5,1.1,1.1,1.1c0.6,0,1.1-0.5,1.1-1.1
			C40.6,9.1,40.1,8.6,39.5,8.6"/>
		<path class="st12" d="M39,8.9h0.5c0.2,0,0.4,0.1,0.4,0.3c0,0,0,0.1,0,0.1c0,0.2-0.1,0.3-0.2,0.4v0c0.1,0,0.2,0.1,0.2,0.3
			c0,0.1,0,0.2,0,0.3c0,0.1,0,0.1,0.1,0.1h-0.3c0,0,0-0.1,0-0.1c0-0.1,0-0.2,0-0.3c0-0.2-0.1-0.2-0.2-0.2h-0.2v0.7H39V8.9z
			 M39.5,9.6c0.1,0,0.2-0.1,0.2-0.2c0,0,0,0,0,0c0-0.2-0.1-0.2-0.2-0.2h-0.2v0.5H39.5z"/>
	</g>
</g>
</svg>
