<svg id="Layer_1" data-name="Layer 1" xmlns="http://www.w3.org/2000/svg" viewBox="0 0 100 42"><defs><style>.cls-1,.cls-3{fill:#0073c4;}.cls-2{fill:none;stroke:#0073c4;stroke-miterlimit:10;stroke-width:0.13px;}.cls-3{font-size:1.99px;font-family:ArialNarrow, Arial;}</style></defs><title>Untitled-3</title><path class="cls-1" d="M65.14,16.59,66,16a7.55,7.55,0,0,1,5.88-.88,3.8,3.8,0,0,1,2.92,3.13A12.92,12.92,0,0,1,75.13,21c0,3.35,0,6.71,0,10.06,0,.52-.12.64-.64.64H71.39c-.57,0-.7-.13-.7-.7,0-3.31,0-6.62,0-9.93a6,6,0,0,0-.14-1.24,1.58,1.58,0,0,0-1.41-1.25,3.87,3.87,0,0,0-2.17.23c-.4.16-.78.36-1.18.52a.58.58,0,0,0-.39.63c0,3.64,0,7.28,0,10.92,0,.1,0,.2,0,.3,0,.36-.14.51-.5.51H61.5c-.39,0-.54-.19-.54-.63q0-4.45,0-8.9,0-3.18,0-6.36c0-.54.15-.69.68-.69h2.85c.49,0,.65.16.65.66C65.14,16,65.14,16.27,65.14,16.59Z"/><path class="cls-1" d="M8.84,20.92q0-5,0-10A1.31,1.31,0,0,1,10.3,9.45h2.62c.56,0,.7.14.7.7q0,10,0,20a2.08,2.08,0,0,1,0,.33,1.31,1.31,0,0,1-1.42,1.24c-.89,0-1.79,0-2.68,0-.49,0-.66-.2-.66-.7Q8.84,26,8.84,20.92Z"/><path class="cls-1" d="M32,20.59q0,5.25,0,10.49c0,.57-.07.65-.65.65H28.31c-.58,0-.72-.15-.72-.72q0-2.53,0-5.07,0-7.86,0-15.73c0-.66.12-.77.76-.77h3.15c.44,0,.54.1.54.54Q32,15.3,32,20.59Z"/><path class="cls-1" d="M54.7,16.45l.33-.25A6,6,0,0,1,58.66,15c.38,0,.52.13.52.51q0,1.31,0,2.61c0,.37-.1.47-.47.47a8.33,8.33,0,0,0-3.71.94.52.52,0,0,0-.32.54q0,5.53,0,11.05c0,.57-.08.65-.65.65H50.85c-.45,0-.62-.17-.62-.62q0-7.68,0-15.35c0-.43.17-.6.6-.61H54c.44,0,.6.16.6.59,0,.22,0,.44,0,.65Z"/><path class="cls-1" d="M24.91,31.73a10.46,10.46,0,0,1-6.7-2.93A10.62,10.62,0,0,1,15,22.36c0-.24,0-.48-.07-.72s0-.34.3-.33a9.86,9.86,0,0,1,3.53.78,10.5,10.5,0,0,1,6.5,8.13c.08.42.09.85.14,1.28,0,.17-.05.25-.22.24Z"/><path class="cls-1" d="M15.48,19.88h-.3c-.19,0-.26-.07-.24-.26A11.09,11.09,0,0,1,15.76,16a10.52,10.52,0,0,1,8-6.4c.47-.1,1-.1,1.44-.15.21,0,.27.08.25.27a10.87,10.87,0,0,1-1.18,4.4,10.51,10.51,0,0,1-7.63,5.61c-.37.07-.74.11-1.11.16Z"/><path class="cls-1" d="M90.56,21.2a12,12,0,0,0-.13-1.87,4.61,4.61,0,0,0-2.64-3.64,8,8,0,0,0-3.2-.72,16.14,16.14,0,0,0-2.38.07c-1.16.13-2.3.34-3.45.52a.52.52,0,0,0-.46.56c0,.75,0,1.5,0,2.25,0,.32.17.46.49.44s.59-.05.89-.06c1.53,0,3.06-.11,4.59-.12a1.64,1.64,0,0,1,1.77,1.56c.07.49,0,1,.07,1.48,0,.29-.08.39-.37.38-.68,0-1.37,0-2.05,0a11.53,11.53,0,0,0-3.32.47,3.93,3.93,0,0,0-3,3,7.22,7.22,0,0,0,.07,3.37,3.75,3.75,0,0,0,2.67,2.86A6.54,6.54,0,0,0,85.72,31l.66-.43c0,.21,0,.35,0,.49,0,.55.12.67.65.67h2.88c.54,0,.65-.12.65-.67C90.57,27.78,90.57,24.49,90.56,21.2Zm-4.37,5.1c0,.37,0,.74,0,1.12q0,.19,0,.37a.42.42,0,0,1-.15.32,5,5,0,0,1-3.38.55,1.14,1.14,0,0,1-1-1.1,6.32,6.32,0,0,1,0-1.47,1.76,1.76,0,0,1,1.79-1.5c.81-.05,1.63,0,2.44-.07.23,0,.31.08.3.31s0,.25,0,.37C86.18,25.56,86.19,25.93,86.19,26.3Z"/><path class="cls-1" d="M47.52,21.66a18.55,18.55,0,0,0-.07-1.95,4.7,4.7,0,0,0-2.82-4.09A8,8,0,0,0,41.52,15a17.09,17.09,0,0,0-2.38.07c-1.15.13-2.28.34-3.42.53a.48.48,0,0,0-.42.54c0,.76,0,1.52,0,2.28,0,.32.13.44.45.42s.61-.06.92-.07c1.54,0,3.08-.11,4.62-.12A1.6,1.6,0,0,1,43,20.1c.08.52,0,1.05.07,1.58,0,.27-.08.37-.35.36-.84,0-1.68,0-2.51,0a10.53,10.53,0,0,0-3.23.58,3.67,3.67,0,0,0-2.61,2.94,10.12,10.12,0,0,0,0,2.82,3.76,3.76,0,0,0,2.9,3.36,6.56,6.56,0,0,0,5.68-.91l.42-.28c0,.25,0,.41,0,.57,0,.51.09.6.6.6h2.88c.56,0,.66-.09.66-.65Q47.53,26.37,47.52,21.66Zm-4.34,6.1a.47.47,0,0,1-.17.35,5,5,0,0,1-3.35.56,1.18,1.18,0,0,1-1.06-1.24,6.16,6.16,0,0,1,.05-1.37,1.74,1.74,0,0,1,1.75-1.47c.83-.06,1.67,0,2.51-.07.22,0,.29.1.29.3,0,.5,0,1,0,1.49S43.2,27.27,43.18,27.75Z"/><circle class="cls-2" cx="92.52" cy="15.66" r="1.36"/><text class="cls-3" transform="translate(92.01 16.38)">R</text></svg>