<svg id="Layer_1" data-name="Layer 1" xmlns="http://www.w3.org/2000/svg" viewBox="0 0 64.18 70.41"><defs><style>.cls-1{fill:#803cd6;}</style></defs><title>logout_icon</title><path class="cls-1" d="M52.84,28.18q0,4.63,0,9.25c0,2-.92,3.59-2.46,3.79s-2.71-1-3.06-3a6.73,6.73,0,0,1-.06-1.16q0-9.14,0-18.27c0-2.15,1-3.81,2.73-3.81s2.85,1.64,2.85,3.81Q52.85,23.49,52.84,28.18Z" transform="translate(-17.88 -15)"/><path class="cls-1" d="M81.48,47.24A31.75,31.75,0,0,0,65.85,25.47c-1.21-.71-2.11-.15-2.11,1.27q0,.08,0,.16a1.8,1.8,0,0,0,.9,1.55,28.93,28.93,0,1,1-29.17.08,1.55,1.55,0,0,0,.77-1.34q0-.19,0-.38c0-1.52-.88-2-2.19-1.29A32,32,0,0,0,18.55,59.83,32.12,32.12,0,0,0,44,84.85c1.21.23,2.44.38,3.66.57h4.58c1.22-.19,2.44-.34,3.65-.57a32.1,32.1,0,0,0,25.48-25c.25-1.18.35-2.4.52-3.6,0-.21.09-.41.14-.62V50.89C81.87,49.68,81.73,48.45,81.48,47.24Z" transform="translate(-17.88 -15)"/></svg>