<svg id="svg2" xmlns="http://www.w3.org/2000/svg" width="157.43" height="184.08" viewBox="0 0 157.43 184.08"><defs><style>.cls-1{fill:#2a6bae;}.cls-1,.cls-2{fill-rule:evenodd;}.cls-2,.cls-3{fill:#424041;}</style></defs><title>1</title><g id="g14"><g id="g20"><path id="path22" class="cls-1" d="M78.36,147.67h63.05c14.4,0,14.55-15.3,13.08-22.85-.8-5.08-9.43-5-10.38,0v5.89a4.92,4.92,0,0,1-4.9,4.9H18.32a4.91,4.91,0,0,1-4.89-4.9v-5.89c-.95-5-9.58-5.08-10.38,0-1.47,7.55-1.33,22.85,13.07,22.85H78.36ZM33.78,1.1H131c6.83,0,12.42,5.92,12.42,13.15v6.28c0,8.88-12,8.84-12,.06V17.16a4,4,0,0,0-4-4H30a4,4,0,0,0-4,4v3.36c0,8.83-11.47,8.77-11.47.19V14.25C14.57,7,20.16,1.1,27,1.1Z"/></g><g id="g24"><path id="path26" class="cls-2" d="M141,73.3a19.22,19.22,0,0,1,11.38,17.22c0,10.58-9.24,19.24-20.53,19.24H100.15a5.23,5.23,0,0,1-5.38-5V44.48a5.3,5.3,0,0,1,5.29-5.29h26.37A20.13,20.13,0,0,1,141,73.3m-23.63-4.9h10v-.11a9.61,9.61,0,0,0,8.12-9.45h0A9.59,9.59,0,0,0,126,49.28H105.7v50h25.67a9.87,9.87,0,1,0,0-19.74h-4v0h-10a5.55,5.55,0,1,1,0-11.1"/></g><g id="g28"><path id="path30" class="cls-3" d="M37.8,166.17a1.7,1.7,0,0,1,3.4,0v9.18h0A7.63,7.63,0,0,1,33.57,183h0A7.63,7.63,0,0,1,26,175.35h0v-9.18a1.7,1.7,0,0,1,3.4,0v9.18h0a4.27,4.27,0,0,0,4.24,4.24h0a4.27,4.27,0,0,0,4.24-4.24h0Z"/></g><g id="g32"><path id="path34" class="cls-3" d="M53.85,179.58a1.7,1.7,0,0,1,0,3.4H49.16a6.38,6.38,0,0,1-6.38-6.37h0V166.17a1.7,1.7,0,1,1,3.39,0v10.42h0a3,3,0,0,0,3,3h4.69Z"/></g><g id="g36"><path id="path38" class="cls-3" d="M89.74,103.74a6.36,6.36,0,0,1-12.64,1.35L71.9,57.18,53.46,104l0,0h0l0,.13,0,.09v0l-.05.1,0,0,0,.1,0,0-.05.09,0,0a6.27,6.27,0,0,1-1.29,1.68h0l-.1.09a6.79,6.79,0,0,1-1.1.78h0l-.12.07h0l-.11.06,0,0-.07,0-.08,0-.07,0-.08,0-.06,0-.07,0-.06,0h0l-.06,0-.08,0,0,0a6.37,6.37,0,0,1-1.86.35h-.46a6.33,6.33,0,0,1-2.08-.43l-.09,0h0l-.09,0-.08,0-.06,0-.08,0-.07,0,0,0-.11-.06h0l-.1-.05-.06,0a6.67,6.67,0,0,1-1-.67l0,0-.21-.19h0s-.1-.11-.16-.16l-.15-.16h0l-.19-.21,0,0a6.06,6.06,0,0,1-.67-1l0,0-.06-.1h0l-.06-.12,0,0,0-.08,0-.07,0-.07,0-.08,0-.08v0l0-.09L23.14,57.18l-5.21,47.91A6.35,6.35,0,0,1,5.3,103.74l6.14-56.47v0h0a10.2,10.2,0,0,1,.41-2,10.41,10.41,0,0,1,.77-1.84A10.52,10.52,0,0,1,20.52,38h0l.34,0a9.66,9.66,0,0,1,1.61,0h0a10.23,10.23,0,0,1,1.92.26,10.43,10.43,0,0,1,7.39,6.38L47.52,84.41,63.23,44.5a10.45,10.45,0,0,1,9.31-6.64h0a9.66,9.66,0,0,1,1.61,0l.34,0h0a10.53,10.53,0,0,1,7.9,5.48,12.16,12.16,0,0,1,.77,1.84,10.2,10.2,0,0,1,.41,2h0v0Z"/></g><g id="g40"><path id="path42" class="cls-3" d="M25.31,181.08a1.7,1.7,0,0,1-3.37.4l-1.45-12.23-5.19,12a1.7,1.7,0,0,1-2.23.89,1.72,1.72,0,0,1-.89-.89h0L7,169.25,5.54,181.48a1.7,1.7,0,0,1-3.37-.4l1.69-14.2a2.72,2.72,0,0,1,1.48-2.1,2.41,2.41,0,0,1,.33-.15l.13,0a3.4,3.4,0,0,1,.5-.1h0a3,3,0,0,1,2.37.75,2.71,2.71,0,0,1,.35.4,3.45,3.45,0,0,1,.2.32,1.11,1.11,0,0,1,.09.19l4.4,10.2,4.4-10.2a2.78,2.78,0,0,1,2-1.61,3,3,0,0,1,.5-.07H21l.13,0h0a2.86,2.86,0,0,1,2.11,1.36h0a3,3,0,0,1,.23.48,3.37,3.37,0,0,1,.09.34,1.43,1.43,0,0,1,0,.22h0Z"/></g><g id="g44"><path id="path46" class="cls-3" d="M61.27,181.28a1.7,1.7,0,1,1-3.4,0V167.87H53a1.7,1.7,0,1,1,0-3.4H66.1a1.7,1.7,0,0,1,0,3.4H61.27Z"/></g><g id="g48"><path id="path50" class="cls-3" d="M71.86,181.28a1.7,1.7,0,1,1-3.4,0V166.17a1.7,1.7,0,0,1,3.4,0Z"/></g><g id="g52"><path id="path54" class="cls-3" d="M106.69,181.07a1.7,1.7,0,1,1-3.37.42l-.6-4.8H96.84a1.7,1.7,0,0,1,0-3.4h5.46l-.16-1.24h0a.49.49,0,0,1,0-.12,5.46,5.46,0,0,0-.2-.87,5.27,5.27,0,0,0-.35-.9,3.84,3.84,0,0,0-3.43-2.28h0a4,4,0,0,0-.85.1,3.21,3.21,0,0,0-.76.29A4.75,4.75,0,0,0,94.16,172l-1.06,9.44a1.7,1.7,0,1,1-3.37-.38l1.06-9.43A8.15,8.15,0,0,1,95,165.22a7,7,0,0,1,1.5-.55,6.9,6.9,0,0,1,1.65-.19h0a7.16,7.16,0,0,1,6.46,4.17,9.17,9.17,0,0,1,.57,1.44,9.91,9.91,0,0,1,.3,1.38l0,.16v0Z"/></g><g id="g56"><path id="path58" class="cls-3" d="M111.88,181.28a1.7,1.7,0,1,1-3.39,0v-14h0a1.37,1.37,0,0,1,0-.29,2.45,2.45,0,0,1,.13-.55h0l.14-.3h0a2.44,2.44,0,0,1,1.33-1.11l.23-.07.18,0h0l.4,0h0a2.4,2.4,0,0,1,1.79.92l9,11.53V166.17a1.7,1.7,0,0,1,3.4,0v14a2.4,2.4,0,0,1-.89,1.86,2.16,2.16,0,0,1-.35.24,1.36,1.36,0,0,1-.21.1h0l-.14.06h0a2.39,2.39,0,0,1-1.82-.1,1.19,1.19,0,0,1-.22-.12,1.91,1.91,0,0,1-.33-.25l-.22-.22-.06-.07h0l0,0-9-11.52Z"/></g><g id="g60"><path id="path62" class="cls-3" d="M138.4,179.58a1.7,1.7,0,0,1,0,3.4h-5a6.71,6.71,0,0,1-6.69-6.69h0v-5.11h0a6.67,6.67,0,0,1,6.68-6.69h5a1.7,1.7,0,1,1,0,3.39h-5a3.33,3.33,0,0,0-3.3,3.31h0v5.11h0a3.29,3.29,0,0,0,1,2.34,3.32,3.32,0,0,0,2.33,1h5Z"/></g><g id="g64"><path id="path66" class="cls-3" d="M148.23,167.86h0a4.62,4.62,0,0,0-3.21,1.28,4.16,4.16,0,0,0-1.31,3h0v3.16h0a4.15,4.15,0,0,0,1.3,3,4.67,4.67,0,0,0,3.22,1.29h0a4.59,4.59,0,0,0,3.21-1.29,4.12,4.12,0,0,0,1.31-3h0v-3.16h0a4.16,4.16,0,0,0-1.31-3,4.62,4.62,0,0,0-3.21-1.28m0-3.39h0a8,8,0,0,1,5.56,2.22,7.5,7.5,0,0,1,2.34,5.44h0v3.16h0a7.52,7.52,0,0,1-2.34,5.44,8,8,0,0,1-5.56,2.22h0a8,8,0,0,1-5.56-2.23,7.49,7.49,0,0,1-2.35-5.43h0v-3.16h0a7.53,7.53,0,0,1,2.35-5.44,8,8,0,0,1,5.56-2.22Z"/></g><g id="g68"><path id="path70" class="cls-3" d="M76.68,167.86v11.72h6.56a2.15,2.15,0,0,0,2.13-2.14h0a2.12,2.12,0,0,0-.56-1.43l-.07-.07a2.12,2.12,0,0,0-1.5-.63H81a1.7,1.7,0,1,1,0-3.39h.77a2,2,0,0,0,1.28-.6h0a2,2,0,0,0,.6-1.43h0a2,2,0,0,0-2-2H76.68Zm-3.4,5.76v-7.38h0a1.72,1.72,0,0,1,.14-.68,1.8,1.8,0,0,1,.39-.58l0,0h0a1.74,1.74,0,0,1,1.12-.48H81.6A5.41,5.41,0,0,1,87,169.89h0a5.42,5.42,0,0,1-.83,2.88,5.5,5.5,0,0,1,1,.77l.11.12a5.5,5.5,0,0,1,1.51,3.78h0a5.55,5.55,0,0,1-1.63,3.91A5.49,5.49,0,0,1,83.24,183H75a1.7,1.7,0,0,1-1.7-1.7Z"/></g></g></svg>