<?xml version="1.0" encoding="utf-8"?>
<!-- Generator: Adobe Illustrator 21.0.2, SVG Export Plug-In . SVG Version: 6.00 Build 0)  -->
<svg version="1.1" id="Layer_1" xmlns="http://www.w3.org/2000/svg" xmlns:xlink="http://www.w3.org/1999/xlink" x="0px" y="0px"
	 viewBox="0 0 86.4 19.2" style="enable-background:new 0 0 86.4 19.2;" xml:space="preserve">
<style type="text/css">
	.st0{fill:#8327AB;}
	.st1{enable-background:new    ;}
	.st2{fill:#656163;}
</style>
<path class="st0" d="M0,14.8c0,0,0.1-0.3,0.3-0.8c0.1-0.3,0.2-0.6,0.3-0.9s0.3-0.8,0.5-1.2s0.4-0.9,0.6-1.4s0.5-1,0.7-1.5
	S3,7.8,3.3,7.3s0.6-1.1,1-1.6S5,4.6,5.4,4c0.4-0.5,0.8-1,1.4-1.4c0.5-0.4,1.1-0.7,1.7-0.9c0.3-0.1,0.6-0.2,0.9-0.2
	c0.3,0,0.6,0,0.9,0.1c0.5,0.1,1,0.4,1.4,0.7c0.3,0.3,0.5,0.6,0.7,0.9c0.1,0.2,0.2,0.4,0.3,0.6L12.7,4l-0.1,0.1L12.4,4l-0.2-0.2
	l-0.3-0.2c-0.1-0.1-0.2-0.2-0.4-0.2c-0.1-0.1-0.3-0.2-0.4-0.2c-0.3-0.1-0.7-0.2-1-0.2C9.7,2.9,9.3,3,9,3.2C8.6,3.4,8.2,3.7,7.8,4
	C7.3,4.3,6.9,4.7,6.5,5.1C6.1,5.5,5.7,5.9,5.3,6.4c-0.4,0.5-0.7,1-1.1,1.5s-0.7,1-1,1.5s-0.6,1-0.9,1.4s-0.5,0.9-0.8,1.3L1,13.2
	l-0.5,0.9c-0.3,0.5-0.4,0.8-0.4,0.8L0,14.8z"/>
<path class="st0" d="M17.4,0.1c0,0-0.1,0.3-0.3,0.8c-0.1,0.3-0.2,0.6-0.3,0.9S16.5,2.6,16.4,3S16,3.9,15.8,4.4S15.3,5.4,15,6
	s-0.5,1.1-0.9,1.6s-0.6,1.1-1,1.6s-0.7,1.1-1.1,1.6c-0.4,0.5-0.9,1-1.4,1.4c-0.5,0.4-1.1,0.7-1.7,0.9c-0.3,0.1-0.6,0.2-0.9,0.2
	c-0.3,0-0.6,0-0.9-0.1c-0.5-0.1-1-0.4-1.4-0.7c-0.3-0.2-0.5-0.5-0.7-0.8c-0.1-0.2-0.2-0.4-0.3-0.6l-0.1-0.2l0.1-0.1L5,10.9l0.2,0.2
	l0.3,0.2c0.1,0.1,0.2,0.2,0.4,0.2c0.1,0.1,0.3,0.2,0.4,0.2c0.3,0.1,0.7,0.2,1,0.2c0.4,0,0.8-0.1,1.1-0.3c0.4-0.2,0.8-0.5,1.2-0.8
	c0.4-0.3,0.9-0.7,1.3-1.1c0.4-0.4,0.8-0.9,1.2-1.3c0.4-0.5,0.7-1,1.1-1.5s0.7-1,1-1.5s0.6-1,0.9-1.4s0.5-0.9,0.8-1.3l0.6-1.1
	l0.5-0.9c0.3-0.5,0.4-0.8,0.4-0.8L17.4,0.1z"/>
<path class="st0" d="M25.6,3.3c0.6,0,1.2,0.1,1.8,0.4c1.1,0.5,2,1.3,2.4,2.5c0.2,0.6,0.4,1.2,0.4,1.8v4.4h-0.9V7.9
	c0-0.5-0.1-1-0.3-1.4c-0.4-0.9-1.1-1.6-2-2c-0.4-0.2-0.9-0.3-1.4-0.3c-0.5,0-1,0.1-1.4,0.3c-0.4,0.2-0.8,0.4-1.2,0.8
	c-0.7,0.7-1.1,1.6-1.1,2.6v4.4H21V7.9c0-0.6,0.1-1.2,0.4-1.8c0.5-1.1,1.3-2,2.4-2.5C24.3,3.4,24.9,3.3,25.6,3.3z"/>
<path class="st0" d="M45.6,12.4c-0.5,0-0.9-0.1-1.3-0.3c-0.8-0.4-1.5-1-1.8-1.8c-0.2-0.4-0.3-0.9-0.3-1.3V3.5h0.9V9
	c0,0.3,0.1,0.7,0.2,1c0.2,0.6,0.7,1.1,1.3,1.3c0.9,0.4,2,0.2,2.7-0.5c0.2-0.2,0.4-0.5,0.5-0.8c0.1-0.3,0.2-0.7,0.2-1V3.5H49V9
	c0,0.3,0.1,0.7,0.2,1c0.1,0.3,0.3,0.6,0.5,0.8c1,1,2.6,1,3.6,0c0.2-0.2,0.4-0.5,0.5-0.8C54,9.7,54,9.3,54,9V3.5h0.9V9
	c0,0.5-0.1,0.9-0.3,1.3c-0.2,0.4-0.4,0.8-0.7,1.1c-0.3,0.3-0.7,0.6-1.1,0.7c-1,0.4-2.1,0.4-3.1-0.2c-0.5-0.3-1-0.7-1.3-1.3
	c-0.3,0.5-0.7,0.9-1.2,1.3C46.8,12.3,46.2,12.5,45.6,12.4z"/>
<path class="st0" d="M60.7,3.3c0.6,0,1.2,0.1,1.8,0.4c1.1,0.5,2,1.3,2.4,2.5c0.4,1,0.5,2.1,0.2,3.1c-0.1,0.4-0.3,0.8-0.6,1.2
	c-0.2,0.4-0.5,0.7-0.9,1c-0.3,0.3-0.7,0.5-1.1,0.7c0.5,0.3,0.9,0.7,1.2,1.2c0.3,0.5,0.4,1.1,0.4,1.7c0,0.5-0.1,0.9-0.3,1.3
	c-0.4,0.8-1,1.5-1.8,1.8c-0.4,0.2-0.9,0.3-1.3,0.3v-0.9c0.3,0,0.7-0.1,1-0.2c0.6-0.3,1.1-0.7,1.3-1.3c0.3-0.6,0.3-1.4,0-2
	c-0.3-0.6-0.7-1.1-1.3-1.3c-0.3-0.1-0.7-0.2-1-0.2c-0.6,0-1.2-0.1-1.8-0.4c-1.1-0.5-2-1.3-2.4-2.4c-0.2-0.6-0.4-1.2-0.4-1.8
	c0-0.6,0.1-1.2,0.4-1.8c0.5-1.1,1.3-2,2.4-2.5C59.4,3.4,60,3.3,60.7,3.3z M60.7,4.2c-0.5,0-1,0.1-1.4,0.3c-0.4,0.2-0.8,0.4-1.2,0.8
	C57.4,6,57,6.9,57,7.9c0,0.5,0.1,1,0.3,1.4c0.4,0.9,1.1,1.6,2,2c0.4,0.2,0.9,0.3,1.4,0.3c1,0,1.9-0.4,2.6-1.1
	c0.3-0.3,0.6-0.7,0.8-1.2c0.2-0.5,0.2-1,0.2-1.5c0-0.5-0.1-1-0.3-1.4c-0.4-0.9-1.1-1.6-1.9-2C61.6,4.3,61.2,4.2,60.7,4.2L60.7,4.2z"
	/>
<path class="st0" d="M81.2,3.3c0.6,0,1.2,0.1,1.8,0.4c1.1,0.5,2,1.3,2.4,2.5c0.2,0.6,0.4,1.2,0.4,1.8v4.4h-0.9V7.9
	c0-0.5-0.1-1-0.3-1.4c-0.4-0.9-1.1-1.6-1.9-2c-0.5-0.2-0.9-0.3-1.4-0.3c-0.5,0-1,0.1-1.4,0.3c-0.4,0.2-0.8,0.4-1.2,0.8
	c-0.7,0.7-1.1,1.6-1.1,2.6v4.4h-0.9V7.9c0-0.6,0.1-1.2,0.4-1.8c0.5-1.1,1.3-2,2.4-2.5C80,3.4,80.6,3.3,81.2,3.3z"/>
<path class="st0" d="M36.2,12.4c-0.6,0-1.2-0.1-1.8-0.4c-1.1-0.5-2-1.3-2.4-2.4c-0.2-0.6-0.4-1.2-0.4-1.8c0-0.6,0.1-1.2,0.4-1.8
	c0.5-1.1,1.3-2,2.4-2.5c0.6-0.3,1.2-0.4,1.8-0.4c0.6,0,1.2,0.1,1.8,0.4C39.1,4,40,4.9,40.5,6c0.2,0.6,0.4,1.2,0.4,1.8V8
	c0,0.1,0,0.2,0,0.2h-8.2c0.1,0.4,0.2,0.9,0.4,1.3c0.2,0.4,0.5,0.7,0.8,1c0.3,0.3,0.7,0.5,1.1,0.7c0.4,0.2,0.9,0.3,1.3,0.3
	c0.3,0,0.7-0.1,1-0.2c0.3-0.1,0.6-0.3,0.8-0.5l0.7,0.7c-0.3,0.3-0.7,0.6-1.1,0.7C37.2,12.3,36.7,12.4,36.2,12.4z M39.9,7.4
	c-0.1-0.4-0.2-0.9-0.4-1.3c-0.2-0.4-0.5-0.7-0.8-1c-0.7-0.6-1.5-1-2.4-1c-0.5,0-0.9,0.1-1.3,0.3c-0.4,0.2-0.8,0.4-1.1,0.7
	c-0.3,0.3-0.6,0.6-0.8,1c-0.2,0.4-0.3,0.8-0.4,1.3L39.9,7.4z"/>
<path class="st0" d="M74.7,10.4c-1.4,1.4-3.8,1.4-5.2,0c-1.4-1.4-1.4-3.8,0-5.2c1.4-1.4,3.8-1.4,5.2,0l0.4-0.4c-1.7-1.7-4.4-1.7-6,0
	c-1.7,1.7-1.7,4.4,0,6c1.5,1.5,3.9,1.7,5.6,0.4V10.4z"/>
<path class="st0" d="M72.1,12.3c-2.5,0-4.5-2-4.6-4.5c0-2.5,2-4.5,4.5-4.6c1.2,0,2.4,0.5,3.2,1.3l0.2,0.2l-0.8,0.8l-0.2-0.2
	C73.2,4,71,4,69.7,5.4c-1.3,1.3-1.3,3.5,0,4.9c0.6,0.6,1.5,1,2.4,1l0,0c0.9,0,1.8-0.4,2.4-1L75,9.8v1.5l-0.1,0.1
	C74.1,12,73.1,12.3,72.1,12.3z M72.1,3.8c-2.2,0-4,1.8-4,4s1.8,4,4,4c0.8,0,1.7-0.3,2.3-0.8v0c-0.7,0.5-1.5,0.8-2.3,0.8l0,0
	c-2.2,0-4-1.8-4-4C68.1,5.6,69.8,3.8,72.1,3.8c0.9,0,1.9,0.3,2.6,1l0,0C74,4.1,73.1,3.8,72.1,3.8L72.1,3.8z"/>
<path class="st0" d="M72.1,12.2c-2.4,0-4.4-1.9-4.4-4.4s1.9-4.4,4.4-4.4c1.2,0,2.3,0.5,3.1,1.3l0.1,0.1l-0.5,0.5l-0.1-0.1
	c-1.4-1.4-3.7-1.4-5.1,0c-1.4,1.4-1.4,3.7,0,5.1c0.7,0.7,1.6,1.1,2.6,1.1l0,0c0.9,0,1.9-0.3,2.5-1l0.2-0.2v1l0,0
	C74,11.9,73.1,12.2,72.1,12.2z M72.1,3.6c-2.3,0-4.2,1.9-4.2,4.2c0,2.3,1.9,4.2,4.2,4.2l0,0c0.9,0,1.8-0.3,2.5-0.8v-0.5
	c-0.7,0.6-1.6,1-2.5,1l0,0c-2.1,0-3.8-1.7-3.8-3.8c0-2.1,1.7-3.8,3.8-3.8c1,0,1.9,0.4,2.6,1L75,4.9C74.3,4.1,73.2,3.6,72.1,3.6
	L72.1,3.6z"/>
<path class="st0" d="M72.1,12.4c-2.6,0-4.6-2.1-4.6-4.6c0-2.6,2.1-4.6,4.6-4.6c1.2,0,2.4,0.5,3.3,1.3l0.3,0.3l-0.9,0.9l-0.3-0.3
	c-1.3-1.3-3.4-1.3-4.7,0c-1.3,1.3-1.3,3.4,0,4.7c1.3,1.3,3.4,1.3,4.7,0l0.6-0.6v1.8L75,11.5C74.1,12.1,73.2,12.4,72.1,12.4z"/>
<polygon class="st0" points="74.3,7.5 66.2,7.5 66.5,6.7 74.6,6.7 "/>
<polygon class="st0" points="73.7,9 66.1,9.1 66.6,8.3 74,8.3 "/>
<g class="st1">
	<path class="st2" d="M40.1,15.9v2.6h-0.4v-2.6H40.1z"/>
	<path class="st2" d="M41.3,18.5h-0.4v-2.6h0.5l0.9,1.9v-1.9h0.4v2.6h-0.4l-1-2.1V18.5z"/>
	<path class="st2" d="M45.2,16.6v0.2h-0.4v-0.2c0-0.2-0.1-0.4-0.4-0.4c-0.3,0-0.4,0.1-0.4,0.4v1.4c0,0.2,0.1,0.4,0.4,0.4
		c0.3,0,0.4-0.1,0.4-0.4v-0.5h-0.4v-0.3h0.8v0.8c0,0.4-0.3,0.6-0.8,0.6c-0.6,0-0.8-0.3-0.8-0.6v-1.3c0-0.4,0.3-0.6,0.8-0.6
		C44.9,15.9,45.2,16.2,45.2,16.6z"/>
	<path class="st2" d="M47.3,17.1v0.3h-0.9v0.9h1.1v0.3H46v-2.6h1.5v0.3h-1.1v0.9H47.3z"/>
	<path class="st2" d="M48.7,18.5h-0.4v-2.6h0.5l0.9,1.9v-1.9h0.4v2.6h-0.4l-1-2.1V18.5z"/>
	<path class="st2" d="M51.3,17.9c0,0.2,0.1,0.4,0.4,0.4c0.3,0,0.4-0.1,0.4-0.4v-2h0.4v2c0,0.4-0.3,0.7-0.8,0.7
		c-0.6,0-0.8-0.3-0.8-0.7v-2h0.4V17.9z"/>
	<path class="st2" d="M53.9,15.9v2.6h-0.4v-2.6H53.9z"/>
	<path class="st2" d="M55.3,18.5v-2.3h-0.7v-0.3h1.8v0.3h-0.7v2.3H55.3z"/>
	<path class="st2" d="M57.7,17.6l-0.8-1.7h0.4l0.6,1.3l0.6-1.3h0.4l-0.8,1.7v0.9h-0.4V17.6z"/>
	<path class="st2" d="M66.8,15.9c0.6,0,0.8,0.2,0.8,0.6v0.2c0,0.3-0.1,0.5-0.5,0.5c0.3,0.1,0.5,0.3,0.5,0.5v0.4c0,0.1,0,0.2,0.1,0.3
		h-0.4c0-0.1-0.1-0.1-0.1-0.3v-0.4c0-0.3-0.2-0.4-0.5-0.4h-0.3v1.1h-0.4v-2.6H66.8z M66.6,17.2c0.3,0,0.5-0.1,0.5-0.4v-0.2
		c0-0.2-0.1-0.4-0.4-0.4h-0.4v1H66.6z"/>
	<path class="st2" d="M69.8,17.1v0.3h-0.9v0.9H70v0.3h-1.5v-2.6H70v0.3h-1.1v0.9H69.8z"/>
	<path class="st2" d="M71.7,15.9c0.6,0,0.8,0.2,0.8,0.6v1.3c0,0.4-0.3,0.6-0.8,0.6h-0.9v-2.6H71.7z M71.7,18.3
		c0.3,0,0.4-0.1,0.4-0.4v-1.3c0-0.2-0.1-0.4-0.4-0.4h-0.4v2.1H71.7z"/>
	<path class="st2" d="M74.7,17.1v0.3h-0.9v0.9h1.1v0.3h-1.5v-2.6h1.5v0.3h-1.1v0.9H74.7z"/>
	<path class="st2" d="M76.9,17.1v0.3h-0.9v1.1h-0.4v-2.6h1.5v0.3h-1.1v0.9H76.9z"/>
	<path class="st2" d="M78.3,15.9v2.6h-0.4v-2.6H78.3z"/>
	<path class="st2" d="M79.5,18.5h-0.4v-2.6h0.5l0.9,1.9v-1.9h0.4v2.6h-0.4l-1-2.1V18.5z"/>
	<path class="st2" d="M83.1,17.1v0.3h-0.9v0.9h1.1v0.3h-1.5v-2.6h1.5v0.3h-1.1v0.9H83.1z"/>
	<path class="st2" d="M85,15.9c0.6,0,0.8,0.2,0.8,0.6v1.3c0,0.4-0.3,0.6-0.8,0.6h-0.9v-2.6H85z M85,18.3c0.3,0,0.4-0.1,0.4-0.4v-1.3
		c0-0.2-0.1-0.4-0.4-0.4h-0.4v2.1H85z"/>
</g>
</svg>
