<svg id="Layer_1" data-name="Layer 1" xmlns="http://www.w3.org/2000/svg" viewBox="0 0 100 100">
  <defs>
    <style>
      .cls-1 {
        fill: none;
        stroke: #803cd6;
        stroke-miterlimit: 10;
        stroke-width: 1.72px;
      }
    </style>
  </defs>
  <title>payments_icon</title><path class="cls-1" d="M26.24,42.23h56A2.81,2.81,0,0,1,85,45V76.52a2.81,2.81,0,0,1-2.79,2.76h-56a2.81,2.81,0,0,1-2.79-2.76V45.07A2.82,2.82,0,0,1,26.24,42.23Z"/><path d="M28.7,67.21l.41.9.31.77h0l.31-.77.41-.9h1L30,69.53,31.36,72H30.24l-.51-.9-.31-.77h0l-.31.77-.41.9h-1L29,69.53l-1.23-2.32Z"/><path d="M32.59,67.21l.41.9.31.77h0l.31-.77.41-.9h1l-1.13,2.32L35.26,72H34.13l-.51-.9-.31-.77h0l-.31.77-.41.9h-1l1.33-2.45-1.23-2.32Z"/><path d="M36.38,67.21l.41.9.31.77h0l.31-.77.41-.9h1l-1.13,2.32L39,72H37.92l-.41-1-.31-.77h0l-.31.77-.41.9h-1l1.33-2.45-1.23-2.32h.82Z"/><path d="M40.28,67.21l.41.9.31.77h0l.31-.77.41-.9h1l-1.13,2.32L42.94,72H41.82l-.51-.9L41,70.3h0l-.31.77-.41.9h-1l1.33-2.45-1.23-2.32Z"/><path d="M47.35,67.21l.41.9.31.77h0l.31-.77.41-.9h1l-1.13,2.32L50,72H48.89l-.51-.9-.31-.77h0l-.31.77-.41.9h-1l1.33-2.45-1.23-2.32Z"/><path d="M51.14,67.21l.41.9.31.77h0l.31-.77.41-.9h1l-1,2.32L53.91,72H52.78l-.51-.9L52,70.3h0l-.31.77-.41.9h-1l1.33-2.45-1.23-2.32Z"/><path d="M55,67.21l.41.9.31.77h0l.31-.77.41-.9h1l-1.13,2.32L57.7,72H56.57l-.51-.9-.31-.77h0l-.31.77-.51.9h-1l1.33-2.45L54,67.21Z"/><path d="M58.93,67.21l.41.9.31.77h0l.31-.77.41-.9h1l-1.13,2.32L61.59,72H60.46l-.51-.9-.31-.77h0l-.31.77-.41.9h-1l1.33-2.45L58,67.21Z"/><path d="M66,67.21l.41.9.31.77h0l.31-.77.41-.9h1l-1.13,2.32L68.66,72H67.53l-.51-.9-.31-.77h0l-.31.77L66,72H65l1.23-2.45L65,67.21Z"/><path d="M69.79,67.21l.41.9.31.77h0l.31-.77.41-.9h1l-1.13,2.32L72.45,72H71.33l-.51-.9-.31-.77h0l-.31.77-.41.9h-1l1.33-2.45-1.23-2.32Z"/><path d="M73.68,67.21l.41.9.31.77h0l.31-.77.41-.9h1L75,69.53,76.35,72H75.22l-.51-.9-.31-.77h0l-.31.77-.41.9h-1L74,69.53l-1.23-2.32Z"/><path d="M77.47,67.21l.41.9.31.77h0l.31-.77.41-.9h1l-1,2.32L80.24,72H79.11l-.51-.9-.31-.77h0l-.31.77-.51.9h-1l1.33-2.45-1.33-2.32Z"/><path d="M38.62,54.46H34.78v4.08h-2.4V51.62c1.63.19,3.45-.38,5,.85A2.8,2.8,0,0,1,38.62,54.46Z"/><path d="M30.85,58.63H28.07V56.17a.43.43,0,0,1,.38-.28h2c.19.09.29.19.29.38A18.08,18.08,0,0,1,30.85,58.63Z"/><path d="M36.13,58.63V56.26a.74.74,0,0,1,.38-.38h1.92a.63.63,0,0,1,.38.47v1.8c0,.38-.1.47-.48.47Z"/><path d="M34.69,62.33h-2.3V60.05H34.3a.74.74,0,0,1,.38.38A12.51,12.51,0,0,1,34.69,62.33Z"/><path d="M28.36,54.37a3.85,3.85,0,0,1,2.4-2.46v2.46Z"/><path d="M30.85,62.14a4,4,0,0,1-2.4-2.09h2q.29.14.29.28A10.76,10.76,0,0,1,30.85,62.14Z"/><path d="M38.52,60.05a4.46,4.46,0,0,1-2.3,2.09V60.05Z"/><path class="cls-1" d="M78.33,39.32V35H16.8V58.43a2.82,2.82,0,0,0,2.79,2.79H21"/><path class="cls-1" d="M78.33,27.49a2.82,2.82,0,0,0-2.79-2.79h-56a2.84,2.84,0,0,0-2.79,2.87v4.06H78.33Z"/><rect x="16.02" y="30.2" width="63.1" height="6.43"/></svg>
