<svg id="Layer_1" data-name="Layer 1" xmlns="http://www.w3.org/2000/svg" viewBox="0 0 100 100"><defs><style>.cls-1{fill:#469ece;}.cls-2{fill:#f21011;}</style></defs><title>cart_cancellation_icon</title><path class="cls-1" d="M47.13,46.48v4.47h.72c3.21,0,6.42,0,9.63,0a1.66,1.66,0,0,1,1,.4A19.89,19.89,0,0,0,64.18,55a.94.94,0,0,1,.41.28h-2v4.44c1.55,0,3.08,0,4.6,0,.15,0,.36-.29.42-.49.28-1,.51-2,.76-3l4.38.22c-.25,1-.49,2.07-.75,3.1-.21.84-.43,1.68-.64,2.53a2.24,2.24,0,0,1-2.49,2H50.54c-4.84,0-9.67,0-14.51,0a7,7,0,0,0-2.58.58,2.93,2.93,0,0,0-1.74,3.07A3.36,3.36,0,0,0,34,70.43c.43.14.5-.13.64-.4a6.53,6.53,0,0,1,11.77.12.9.9,0,0,0,1,.62c2.8,0,5.59,0,8.39,0a.77.77,0,0,0,.81-.53,6.5,6.5,0,0,1,11.87,0,.79.79,0,0,0,.87.56c.66,0,1.33,0,2,0a2.17,2.17,0,1,1,0,4.33,17.59,17.59,0,0,1-1.92,0,.87.87,0,0,0-1,.61,6.47,6.47,0,0,1-10.8,1.54,8.58,8.58,0,0,1-1.06-1.67.71.71,0,0,0-.72-.47c-2.89,0-5.78,0-8.66,0a.88.88,0,0,0-.64.42,6.56,6.56,0,0,1-12.1-.15,1.19,1.19,0,0,0-.75-.54,7.7,7.7,0,0,1-6.35-7.43,7.52,7.52,0,0,1,5.1-7l.84-.31c-.38-1.24-.76-2.46-1.13-3.67Q28,43.05,23.79,29.66c-.19-.62-.45-.82-1.09-.79-1.33.05-2.66,0-4,0a2.18,2.18,0,1,1,0-4.34q3.13,0,6.26,0a2.17,2.17,0,0,1,2.29,1.69c.68,2.14,1.36,4.27,2,6.42a.82.82,0,0,0,1,.71q11.07,0,22.14,0H53l-.53,4.33H47.14v4.44H53l1.63,4.37Zm-16.3-8.76c.42,1.34.83,2.59,1.19,3.86.13.46.37.58.83.58,3.07,0,6.13,0,9.2,0,.22,0,.44,0,.67,0V37.72Zm27.3,17.62h-11v4.35h11ZM42.72,50.95V46.54H33.59c.44,1.41.85,2.76,1.3,4.1a.58.58,0,0,0,.44.3C37.77,51,40.21,50.95,42.72,50.95Zm0,8.8v-4.4H36.34c.44,1.42.86,2.77,1.3,4.11a.52.52,0,0,0,.39.28C39.57,59.76,41.12,59.75,42.71,59.75ZM43,72.92a2.47,2.47,0,1,0-2.45,2.48A2.54,2.54,0,0,0,43,72.92Zm19.64-2.47A2.47,2.47,0,1,0,65,73,2.53,2.53,0,0,0,62.64,70.46Z"/><path class="cls-2" d="M71.28,53.09A15.38,15.38,0,1,1,86.72,37.81,15.41,15.41,0,0,1,71.28,53.09ZM67.74,37.82a5,5,0,0,0-.74.49q-1.89,1.86-3.75,3.74a1.28,1.28,0,0,0,0,2.08c.54.56,1.1,1.11,1.65,1.65a1.3,1.3,0,0,0,2.13,0L70.78,42c.17-.17.36-.33.56-.52l.54.51,3.75,3.74a1.31,1.31,0,0,0,2.18,0q.81-.8,1.61-1.6a1.3,1.3,0,0,0,0-2.13l-3.74-3.75c-.17-.17-.33-.36-.64-.7a4.65,4.65,0,0,0,.68-.46q1.89-1.86,3.75-3.74a1.29,1.29,0,0,0,0-2.08c-.55-.56-1.1-1.11-1.65-1.65a1.3,1.3,0,0,0-2.13,0L71.89,33.4c-.17.17-.36.33-.55.51-.15-.13-.26-.21-.36-.31-1.33-1.33-2.65-2.66-4-4a1.28,1.28,0,0,0-2.08,0l-1.51,1.51c-.93.93-.93,1.48,0,2.42Z"/></svg>
