<?xml version="1.0" encoding="utf-8"?>
<!-- Generator: Adobe Illustrator 21.1.0, SVG Export Plug-In . SVG Version: 6.00 Build 0)  -->
<svg version="1.1" id="Layer_1" xmlns="http://www.w3.org/2000/svg" xmlns:xlink="http://www.w3.org/1999/xlink" x="0px" y="0px"
	 viewBox="0 0 51.9 76.4" style="enable-background:new 0 0 51.9 76.4;" xml:space="preserve">
<style type="text/css">
	.st0{fill:#F7AA00;}
</style>
<title>Untitled-5</title>
<path class="st0" d="M51.9,69.7c0.1-0.7-0.3-1.4-0.9-1.8c-0.4-0.3-0.9-0.5-1.3-0.7c-0.4-0.1-0.7-0.5-0.7-1c-0.1-1.6-0.2-3.2-0.4-4.8
	c-0.6-5.1-2.3-9.6-6-13.3c-1.9-1.9-4-3.6-6-5.4c-1.1-1-2.2-1.9-3.2-3s-1.1-2,0-3.2c0.7-0.7,1.4-1.5,2.2-2.1c2.1-1.9,4.3-3.7,6.4-5.7
	c2.9-2.7,4.9-6.3,5.8-10.2c0.5-2.6,0.8-5.2,1-7.9c0.1-0.8,0.2-1.3,1.1-1.6c1.3-0.3,2.1-1.5,1.9-2.8c-0.1-0.5-0.1-1.1,0-1.6
	c0.1-0.9-0.4-1.8-1.2-2.1c-0.9-0.5-1.8-0.8-2.8-1c-3.5-0.5-7-1-10.5-1.2C27.5-0.2,17.5-0.1,7.6,0.9C5.5,1.1,3.3,1.6,1.4,2.6
	C0.5,2.9,0,3.8,0.1,4.7c0,0.6,0,1.3,0,1.9C0,7.5,0.5,8.4,1.3,8.8C1.7,9,2.1,9.1,2.5,9.4C2.7,9.5,2.9,9.8,2.9,10
	c0.1,1.5,0.2,3.1,0.4,4.7C3.7,20.1,6,25.2,9.9,28.9c1.7,1.6,3.4,3,5.1,4.6c1.3,1.1,2.5,2.2,3.7,3.5c0.7,0.5,0.9,1.6,0.3,2.3
	c-0.1,0.1-0.2,0.2-0.3,0.3c-0.9,0.9-1.8,1.8-2.7,2.7c-2,1.8-4.2,3.6-6.2,5.5C6.9,50.5,4.9,54,4,57.9c-0.6,2.7-1,5.5-1,8.3
	c0.1,0.6-0.3,1.1-0.8,1.2c-1.9,0.8-2.2,1.2-2.1,3.3c0,0.2,0,0.4,0,0.6c-0.3,1.4,0.7,2.8,2.1,3.1c0,0,0,0,0,0c1.8,0.6,3.6,1,5.4,1.2
	c6.4,0.7,12.9,1,19.4,0.8c1.9,0,3.8,0.1,5.7,0c4.5-0.3,9.1-0.6,13.6-1.1c1.4-0.2,2.8-0.7,4.1-1.3c1-0.3,1.6-1.3,1.4-2.4
	C51.8,71.1,51.8,70.4,51.9,69.7z M44.9,66.2c-0.1,2.3-1.7,3.1-3.5,3.4c-2.8,0.4-5.5,0.8-8.3,1c-5.4,0.4-10.8,0.4-16.1-0.1
	c-2.2-0.2-4.4-0.6-6.6-1c-2.1-0.4-2.7-1.2-3-3.3l-1.5,0.1c0.1-1.7,0.3-3.3,0.4-5c0.4-4.6,2.6-8.8,6-11.9c2.7-2.5,5.5-5,8.3-7.5
	c1.6-1.4,2.1-3.6,1.3-5.6c-0.3-0.7-0.8-1.3-1.4-1.8c-2.7-2.5-5.5-5-8.2-7.6C8.2,23.3,6,18.3,6,13c0-0.9-0.1-1.9-0.2-2.8
	c13.4,1.4,26.9,1.4,40.2,0c-0.1,1.1-0.1,2.2-0.2,3.3c-0.1,4.9-2.1,9.6-5.7,13c-0.8,0.8-1.6,1.6-2.4,2.3c-2.1,1.9-4.1,3.7-6.2,5.6
	c-2.1,1.6-2.5,4.7-0.8,6.8c0.2,0.3,0.5,0.6,0.8,0.8c2.9,2.6,5.7,5.2,8.5,7.8c3.6,3.4,5.7,8.1,5.8,13.1c0.1,1.1,0.1,2.2,0.2,3.4
	L44.9,66.2z"/>
<path class="st0" d="M41.6,65.6c-3.9-5.6-8.8-10.4-14.5-14.1c-0.7-0.6-1.7-0.6-2.4,0c-4.4,2.9-8.4,6.5-11.8,10.5
	c-1,1.2-1.9,2.6-2.8,3.9c-0.5,0.7-0.3,0.9,0.5,1.1c0.5,0.2,1.1,0.3,1.6,0.3c4.9,0.7,9.9,1,14.9,0.9c1.8-0.1,4.8-0.1,7.8-0.4
	c2.1-0.2,4.1-0.5,6.2-0.9C42.2,66.8,42.3,66.5,41.6,65.6z"/>
<path class="st0" d="M35.9,20.5c-2.2,0.3-4.4,0.8-6.6,0.9c-4.3,0.4-8.7,0.1-12.9-0.9c-0.6-0.2-1.3-0.1-1.7,0.5
	c-0.4,0.5-0.4,1.3,0,1.8c0.9,1.4,1.9,2.6,3,3.8c2.4,2.1,5,4,7.5,6c0.5,0.4,1.3,0.4,1.8-0.1c1.7-1.3,3.4-2.6,5.1-3.9
	c2.1-1.5,3.8-3.5,5.2-5.7c0.1-0.3,0.3-0.5,0.3-0.8c0.1-0.8-0.5-1.5-1.3-1.6C36.1,20.5,36,20.5,35.9,20.5z"/>
</svg>
