<?xml version="1.0" encoding="utf-8"?>
<!-- Generator: Adobe Illustrator 23.0.3, SVG Export Plug-In . SVG Version: 6.00 Build 0)  -->
<svg version="1.1" id="Layer_1" xmlns="http://www.w3.org/2000/svg" xmlns:xlink="http://www.w3.org/1999/xlink" x="0px" y="0px"
	 viewBox="0 0 52.9 57" style="enable-background:new 0 0 52.9 57;" xml:space="preserve">
<style type="text/css">
	.st0{filter:url(#Adobe_OpacityMaskFilter);}
	.st1{fill-rule:evenodd;clip-rule:evenodd;fill:#FFFFFF;}
	.st2{mask:url(#d_1_);fill-rule:evenodd;clip-rule:evenodd;fill:#006E00;}
	.st3{filter:url(#Adobe_OpacityMaskFilter_1_);}
	.st4{mask:url(#g_1_);fill-rule:evenodd;clip-rule:evenodd;fill:url(#SVGID_1_);}
	.st5{fill-rule:evenodd;clip-rule:evenodd;fill:#69D720;}
	.st6{filter:url(#Adobe_OpacityMaskFilter_2_);}
	.st7{mask:url(#i_1_);fill-rule:evenodd;clip-rule:evenodd;fill:#69D720;}
</style>
<g transform="translate(0 .201)">
	<defs>
		<filter id="Adobe_OpacityMaskFilter" filterUnits="userSpaceOnUse" x="1" y="0.3" width="7.6" height="56.2">
			<feColorMatrix  type="matrix" values="1 0 0 0 0  0 1 0 0 0  0 0 1 0 0  0 0 0 1 0"/>
		</filter>
	</defs>
	<mask maskUnits="userSpaceOnUse" x="1" y="0.3" width="7.6" height="56.2" id="d_1_">
		<g class="st0">
			<path id="c_1_" class="st1" d="M1,0.3h7.6v56.2H1V0.3z"/>
		</g>
	</mask>
	<path class="st2" d="M3.4,56.5c-1.3,0-2.4-1.1-2.4-2.4c0,0,0-0.1,0-0.1L3.8,2.5C3.9,1.2,5,0.2,6.3,0.3c0,0,0,0,0,0
		c1.3,0.1,2.3,1.2,2.2,2.5c0,0,0,0,0,0L5.7,54.3C5.7,55.5,4.6,56.5,3.4,56.5"/>
</g>
<g transform="translate(2.506 .201)">
	<defs>
		<filter id="Adobe_OpacityMaskFilter_1_" filterUnits="userSpaceOnUse" x="1.3" y="0.3" width="48" height="32.5">
			<feColorMatrix  type="matrix" values="1 0 0 0 0  0 1 0 0 0  0 0 1 0 0  0 0 0 1 0"/>
		</filter>
	</defs>
	<mask maskUnits="userSpaceOnUse" x="1.3" y="0.3" width="48" height="32.5" id="g_1_">
		<g class="st3">
			<path id="e_1_" class="st1" d="M3.7,0.3c-0.8,0-1.5,0.4-2,1.1C1,2.5,1.3,3.9,2.4,4.6c0,0,0,0,0,0l43.3,27.8
				c1.1,0.7,2.6,0.4,3.3-0.7c0,0,0,0,0,0c0.7-1.1,0.4-2.6-0.7-3.3c0,0,0,0,0,0L5,0.7C4.6,0.4,4.2,0.3,3.7,0.3L3.7,0.3L3.7,0.3z"/>
		</g>
	</mask>
	
		<linearGradient id="SVGID_1_" gradientUnits="userSpaceOnUse" x1="-313.9126" y1="316.8926" x2="-314.7188" y2="317.648" gradientTransform="matrix(48.0386 0 0 -32.4976 15126.0166 10327.9453)">
		<stop  offset="0" style="stop-color:#5BBC1D"/>
		<stop  offset="1" style="stop-color:#006E00"/>
	</linearGradient>
	<path class="st4" d="M3.7,0.3c-0.8,0-1.5,0.4-2,1.1C1,2.5,1.3,3.9,2.4,4.6c0,0,0,0,0,0l43.3,27.8c1.1,0.7,2.6,0.4,3.3-0.7
		c0,0,0,0,0,0c0.7-1.1,0.4-2.6-0.7-3.3c0,0,0,0,0,0L5,0.7C4.6,0.4,4.2,0.3,3.7,0.3L3.7,0.3L3.7,0.3z"/>
</g>
<g>
	<path class="st5" d="M3.4,56.7c-0.9,0-1.7-0.5-2.1-1.3c-0.6-1.2-0.1-2.6,1-3.2c0,0,0,0,0,0l46.1-23.7c1.2-0.6,2.6-0.1,3.2,1
		c0.6,1.2,0.1,2.6-1,3.2c0,0,0,0,0,0L4.5,56.4C4.1,56.6,3.7,56.7,3.4,56.7"/>
	<g transform="translate(2.506 .201)">
		<defs>
			<filter id="Adobe_OpacityMaskFilter_2_" filterUnits="userSpaceOnUse" x="1.3" y="0.4" width="13" height="34.6">
				<feColorMatrix  type="matrix" values="1 0 0 0 0  0 1 0 0 0  0 0 1 0 0  0 0 0 1 0"/>
			</filter>
		</defs>
		<mask maskUnits="userSpaceOnUse" x="1.3" y="0.4" width="13" height="34.6" id="i_1_">
			<g class="st6">
				<path id="h_1_" class="st1" d="M1.3,0.3h13v34.6h-13L1.3,0.3z"/>
			</g>
		</mask>
		<path class="st7" d="M12,34.9c-1.1,0-2-0.7-2.3-1.7L1.4,3.3C1.1,2,1.9,0.7,3.2,0.4C4.4,0.1,5.6,0.8,6,2l8.3,29.9
			c0.3,1.3-0.4,2.6-1.6,2.9C12.4,34.9,12.2,34.9,12,34.9"/>
	</g>
	<path class="st5" d="M3.4,56.7c-1.3,0-2.4-1.1-2.4-2.4c0-0.4,0.1-0.7,0.3-1.1l11.1-21.6c0.6-1.2,2-1.6,3.2-1c1.2,0.6,1.6,2,1,3.2
		c0,0,0,0,0,0L5.5,55.4C5.1,56.2,4.3,56.7,3.4,56.7"/>
	<path class="st5" d="M14.5,35.1c-1.3,0-2.3-1-2.4-2.2c-0.1-1.3,0.9-2.4,2.2-2.5c0,0,0,0,0,0l35-2.1c1.3-0.1,2.4,0.9,2.5,2.2
		c0.1,1.3-0.9,2.4-2.2,2.5l-35,2.1C14.6,35.1,14.5,35.1,14.5,35.1"/>
</g>
</svg>
