<?xml version="1.0" standalone="no"?>
<!DOCTYPE svg PUBLIC "-//W3C//DTD SVG 20010904//EN"
 "http://www.w3.org/TR/2001/REC-SVG-20010904/DTD/svg10.dtd">
<svg version="1.0" xmlns="http://www.w3.org/2000/svg"
 width="428.000000pt" height="127.000000pt" viewBox="0 0 428.000000 127.000000"
 preserveAspectRatio="xMidYMid meet">
<metadata>
Created by potrace 1.15, written by Peter Selinger 2001-2017
</metadata>
<g transform="translate(0.000000,127.000000) scale(0.100000,-0.100000)"
fill="#000000" stroke="none">
<path d="M470 1248 c-26 -59 -470 -1231 -470 -1239 0 -6 38 -9 91 -7 l91 3 91
242 92 243 38 0 c20 0 37 -3 37 -7 0 -10 -81 -447 -86 -465 -5 -16 4 -18 90
-18 53 0 96 1 96 3 5 63 92 513 100 515 23 8 81 65 96 94 9 16 58 143 111 281
105 279 110 310 58 354 -25 22 -33 23 -226 23 -197 0 -200 0 -209 -22z m187
-368 l-91 -240 -72 0 -71 0 91 240 91 240 71 0 71 0 -90 -240z"/>
<path d="M1320 1257 c-53 -28 -80 -50 -100 -81 -15 -26 -262 -669 -421 -1098
l-28 -78 93 0 93 0 90 242 91 243 77 3 c70 3 76 1 71 -15 -4 -10 -44 -119 -90
-243 l-84 -225 90 -3 c50 -1 92 -1 95 2 2 2 98 257 214 567 137 370 209 577
209 602 0 29 -7 46 -29 68 l-29 29 -159 0 c-110 0 -166 -4 -183 -13z m121
-369 l-87 -233 -77 -3 -77 -3 23 63 c13 35 53 141 88 235 l64 173 76 0 76 0
-86 -232z"/>
<path d="M1806 647 c-126 -342 -232 -628 -234 -635 -3 -10 16 -12 89 -10 l94
3 70 192 70 193 95 0 c52 0 112 5 133 11 42 11 111 68 132 109 27 52 235 634
235 657 0 32 -26 80 -49 93 -12 6 -99 10 -213 10 l-193 0 -229 -623z m444 346
c-25 -71 -73 -199 -105 -285 l-57 -158 -64 0 c-35 0 -64 3 -64 7 0 3 46 132
102 285 l103 278 66 0 67 0 -48 -127z"/>
<path d="M2782 1243 c-5 -16 -92 -253 -192 -528 -100 -275 -199 -548 -221
-608 l-38 -107 92 0 93 0 227 627 c125 346 227 631 227 636 0 4 -40 7 -89 7
-88 0 -89 0 -99 -27z"/>
<path d="M3255 1258 c-3 -7 -106 -292 -229 -633 l-224 -620 209 -3 c177 -2
214 0 242 14 42 21 85 62 103 97 16 30 346 952 363 1013 13 48 4 88 -27 119
l-25 25 -204 0 c-154 0 -205 -3 -208 -12z m275 -145 c0 -11 -338 -954 -343
-960 -3 -2 -36 -3 -75 -1 l-70 3 169 470 c93 259 171 476 174 483 5 13 145 18
145 5z"/>
<path d="M3930 1095 c0 -12 16 -15 80 -15 85 0 94 -6 70 -51 -9 -16 -22 -19
-80 -19 -56 0 -70 -3 -70 -15 0 -12 15 -15 71 -15 39 0 79 5 89 10 13 7 21 7
25 0 9 -14 138 -13 153 2 7 7 12 36 12 65 l0 53 -175 0 c-149 0 -175 -2 -175
-15z"/>
<path d="M3930 937 c0 -16 20 -27 51 -27 16 0 19 -7 19 -40 0 -33 -3 -40 -19
-40 -31 0 -51 -11 -51 -27 0 -8 6 -13 13 -10 6 2 85 17 175 33 130 23 162 32
162 45 0 12 -31 21 -152 43 -84 15 -163 30 -175 33 -16 4 -23 1 -23 -10z"/>
<path d="M3930 744 c0 -15 15 -16 133 -12 l132 4 -130 -41 c-92 -29 -131 -47
-133 -58 -3 -15 14 -17 172 -17 150 0 176 2 176 15 0 12 -21 15 -122 16 l-123
1 123 39 c82 27 122 45 122 54 0 13 -28 15 -175 15 -155 0 -175 -2 -175 -16z"/>
<path d="M3942 568 c-16 -16 -16 -90 0 -106 7 -7 39 -12 74 -12 l63 0 42 50
c38 46 46 50 85 50 34 0 44 -4 49 -20 10 -31 -12 -50 -56 -50 -28 0 -39 -4
-39 -15 0 -11 12 -15 48 -15 59 0 72 12 72 65 0 23 -5 46 -12 53 -7 7 -38 12
-69 12 -56 0 -58 -1 -99 -50 -41 -49 -44 -51 -89 -48 -44 3 -46 4 -46 33 0 29
2 30 48 33 33 2 47 7 47 18 0 18 -100 20 -118 2z"/>
<path d="M3930 215 c0 -42 3 -55 15 -55 11 0 15 11 15 40 l0 40 70 0 70 0 0
-35 c0 -19 5 -35 10 -35 6 0 10 16 10 35 l0 35 65 0 65 0 0 -40 c0 -29 4 -40
15 -40 12 0 15 13 15 55 l0 55 -175 0 -175 0 0 -55z"/>
<path d="M3930 115 c0 -12 16 -15 80 -15 76 0 80 -1 80 -22 0 -43 -15 -52 -89
-56 -39 -2 -71 -8 -71 -13 0 -13 322 -10 337 3 8 6 13 32 13 64 l0 54 -175 0
c-149 0 -175 -2 -175 -15z"/>
</g>
</svg>
