<svg id="Layer_1" data-name="Layer 1" xmlns="http://www.w3.org/2000/svg" viewBox="0 0 66.17 65.55">
  <defs>
    <style>
      .cls-1,
      .cls-2,
      .cls-3 {
        fill: none;
        stroke: #803cd6;
        stroke-miterlimit: 10;
      }
      .cls-1 {
        stroke-width: 1.34px;
      }
      .cls-2 {
        stroke-width: 1.45px;
      }
      .cls-3 {
        stroke-width: 1.6px;
      }
    </style>
  </defs>
  <title>reconciliation_icon</title><path
    class="cls-1"
    d="M42.08,69V74.5a6.73,6.73,0,0,0,6.71,6.71h24.4A6.73,6.73,0,0,0,79.9,74.5V43.11a4.74,4.74,0,0,0-1.31-3.27l-9-9.47a3.75,3.75,0,0,0-2.71-1.16h-14V29L42.54,18.18A3.82,3.82,0,0,0,39.78,17h-18a6.73,6.73,0,0,0-6.71,6.71V62.28A6.73,6.73,0,0,0,21.77,69Z"
    transform="translate(-14.4 -16.33)"/><path
    class="cls-2"
    d="M52.27,34.39h8.51a3.08,3.08,0,0,1,3.09,3.08v5.09a2.84,2.84,0,0,0,2.84,2.84h5.23A2.57,2.57,0,0,1,74.51,48V71.24a4.81,4.81,0,0,1-4.8,4.8H52.27a4.81,4.81,0,0,1-4.8-4.8V68.86a6.52,6.52,0,0,0,5.41-6.58V59.61l9.8,7.81V60.58h7.69V56.63H62.67V49.79l-9.8,5.57V33.94"
    transform="translate(-14.4 -16.33)"/><path class="cls-2" d="M47.49,39" transform="translate(-14.4 -16.33)"/><polygon class="cls-3" points="28.88 30.13 17.89 38.88 17.89 32.04 10.2 32.04 10.2 28.09 17.89 28.09 17.89 21.24 28.95 30.06 28.88 30.13"/><path
    class="cls-2"
    d="M47.49,39V35.76a2.57,2.57,0,0,0-2.57-2.57H39.69a2.84,2.84,0,0,1-2.84-2.84V25.26a3.09,3.09,0,0,0-3.09-3.09H25.25a4.81,4.81,0,0,0-4.8,4.8V59a4.81,4.81,0,0,0,4.8,4.8H42.69a4.8,4.8,0,0,0,4.78-4.63v-20C47.47,39.13,47.49,39.08,47.49,39Z"
    transform="translate(-14.4 -16.33)"/><path class="cls-1" d="M52.88,34.39" transform="translate(-14.4 -16.33)"/></svg>
