<svg id="retry_transaction_svg" data-name="Layer 1" xmlns="http://www.w3.org/2000/svg" viewBox="0 0 100 100">
  <defs>
    <style>
      #retry_transaction_svg{
        fill:white !important;
      }
    </style>
  </defs>
  <path d="M29,43.47C31.16,32.71,42,23.86,54.07,24.13A25,25,0,0,1,77.72,44.55a27.77,27.77,0,0,1,.43,4.73c0,8.24,0,16.48,0,24.72H51.1l-.26,0c-1.28-.26-2.58-.47-3.84-.81a25.52,25.52,0,0,1-18.47-21A32.87,32.87,0,0,1,29,43.47ZM75,69.54c0-6.78,0-13.56,0-20.34A21.71,21.71,0,1,0,53.27,70.76c6.82.06,13.64,0,20.46,0,.35,0,.7,0,1.18-.05C74.93,70.24,75,69.89,75,69.54Z"/><path d="M40,42.78H66.55v3.69H40Z"/><path d="M44,52.56H62.56v3.69H44Z"/></svg>
