<?xml version="1.0" encoding="utf-8"?>
<!-- Generator: Adobe Illustrator 22.1.0, SVG Export Plug-In . SVG Version: 6.00 Build 0)  -->
<svg version="1.1" id="Layer_1" xmlns="http://www.w3.org/2000/svg" xmlns:xlink="http://www.w3.org/1999/xlink" x="0px" y="0px"
	 viewBox="0 0 140.6 140.8" style="enable-background:new 0 0 140.6 140.8;" xml:space="preserve">
<style type="text/css">
	.st0{fill:#59AD00;}
</style>
<g>
	<path class="st0" d="M70.4,0.5c-38.6,0-70,31.4-70,70c0,38.6,31.4,70,70,70c38.6,0,70-31.4,70-70C140.3,31.9,108.9,0.5,70.4,0.5z
		 M70.4,135.7c-36.1,0-65.2-29.1-65.2-65.2c0-36.1,29.1-65.2,65.2-65.2c36.1,0,65.2,29.1,65.2,65.2
		C135.6,106.6,106.4,135.7,70.4,135.7z"/>
	<polygon class="st0" points="42.7,70.2 50.9,61.9 63.8,74.8 89.3,49.3 98,58 64.3,91.7 	"/>
</g>
</svg>
