<svg id="Layer_1" data-name="Layer 1" xmlns="http://www.w3.org/2000/svg" viewBox="0 0 67.9 68.08">
  <defs>
    <style>
      .cls-1 {
        fill: none;
        stroke-linecap: round;
        stroke-width: 1.71px;
      }
      .cls-1,
      .cls-2 {
        stroke: #803cd6;
        stroke-miterlimit: 10;
      }
      .cls-2 {
        stroke-width: 0.19px;
      }
    </style>
  </defs>
  <title>transaction fee_icon</title><path class="cls-1" d="M18.65,63.49s9.41-4.71,11.83-5,3.56-1,6.49.76S48,67.43,51.85,68.07s8.78-1.14,9.79,0,1.78,4.32,0,5-8.27,2.67-11.32,2.42-9.28-2-12-3.82" transform="translate(-17.8 -19.77)"/><path class="cls-1" d="M68.35,64.45c2.48-5.15-1.49-4.26-3.28-4.13S50,67.49,50,67.49" transform="translate(-17.8 -19.77)"/><path class="cls-1" d="M75.17,66.16s2.37-4.75,0-5.2c-2-.36-3.31.75-6.77,3.48" transform="translate(-17.8 -19.77)"/><path class="cls-1" d="M75.7,65.78s3.62-3.05,7.25-1.65,1.46,3.82-1.53,5.79S61.68,81.62,58,84.1s-6.49,3.82-12.21,2.19-12-4.67-14.88-4.87-8.3.19-8.3.19" transform="translate(-17.8 -19.77)"/><circle class="cls-1" cx="34.05" cy="17.9" r="17.04"/><path
    class="cls-2"
    d="M52.14,40.63H46.58a6,6,0,0,0,2.16,3A5.46,5.46,0,0,0,52,44.65a5.08,5.08,0,0,0,5-3.06h2.57a7.68,7.68,0,0,1-2.91,3.81A8.06,8.06,0,0,1,52,46.73a7.57,7.57,0,0,1-4.76-1.66,8.49,8.49,0,0,1-3-4.44H42.1V38.87H44a11.43,11.43,0,0,1-.07-1.28A12.87,12.87,0,0,1,44,36.25H42.1V34.51h2.22a8.49,8.49,0,0,1,3-4.44A7.58,7.58,0,0,1,52,28.41a8.06,8.06,0,0,1,4.6,1.32,7.68,7.68,0,0,1,2.91,3.81H57a5,5,0,0,0-4.83-3,5.71,5.71,0,0,0-3.41,1.05,6,6,0,0,0-2.15,2.94h5.56v1.74h-6a9.19,9.19,0,0,0,0,2.62h6Z"
    transform="translate(-17.8 -19.77)"/></svg>
