<svg id="Layer_1" data-name="Layer 1" xmlns="http://www.w3.org/2000/svg" viewBox="0 0 100 100"><title>Adress_icon</title><path d="M47.81,21c9.43.47,16.71,4.63,20.92,13.21s3.42,16.93-2.27,24.51S54.68,73.55,48.76,80.94c-.75.94-1.47.92-2.25,0-5.89-7.36-11.91-14.63-17.64-22.11C18.08,44.67,26.51,24,44.05,21.36,45.27,21.17,46.51,21.12,47.81,21ZM47.6,78a5.82,5.82,0,0,0,.51-.47c5.53-6.91,11.22-13.69,16.52-20.77,4.9-6.54,5.58-13.88,2.12-21.29S57.15,23.84,49,23.37c-8.83-.51-15.7,3.34-19.86,11.14s-3.38,15.44,1.77,22.58c1.85,2.56,3.91,5,5.88,7.42Z"/><path d="M55.84,44.55a8.18,8.18,0,1,1-8.27-8.12A8.09,8.09,0,0,1,55.84,44.55Z"/></svg>