<svg id="Layer_1" data-name="Layer 1" xmlns="http://www.w3.org/2000/svg" viewBox="0 0 100 100"><title>bank_info_icon</title><path d="M73.09,40.87,52.19,25.58a1.59,1.59,0,0,0-1.39,0L29.89,40.87A1,1,0,0,0,31,42.48l20.49-15L72,42.48a1,1,0,0,0,1.11-1.6Z"/><path d="M65.37,40.87,52.25,31.1a2.06,2.06,0,0,0-1.53,0L37.62,40.87a1,1,0,0,0,1.11,1.6L51.49,33l12.76,9.52a1,1,0,1,0,1.11-1.6Z"/><rect x="24.77" y="71.05" width="53.29" height="1.94" rx="0.97" ry="0.97"/><rect x="54.01" y="59.09" width="23.33" height="1.95" rx="0.7" ry="0.7" transform="translate(125.74 -5.61) rotate(90)"/><rect x="59.56" y="59.09" width="23.33" height="1.95" rx="0.7" ry="0.7" transform="translate(131.29 -11.16) rotate(90)"/><rect x="19.75" y="59.09" width="23.33" height="1.95" rx="0.7" ry="0.7" transform="translate(91.48 28.65) rotate(90)"/><rect x="25.29" y="59.09" width="23.33" height="1.95" rx="0.7" ry="0.7" transform="translate(97.02 23.1) rotate(90)"/><rect x="20.91" y="76.65" width="61.02" height="1.94" rx="0.97" ry="0.97"/><rect x="24.84" y="46.8" width="53.29" height="1.94" rx="0.97" ry="0.97" transform="translate(102.98 95.54) rotate(-180)"/><rect x="20.98" y="41.2" width="61.02" height="1.94" rx="0.97" ry="0.97" transform="translate(102.98 84.34) rotate(-180)"/><path d="M40.39,57.67h2a5.8,5.8,0,0,1,.89,0,1.32,1.32,0,0,1,.52.21,1.3,1.3,0,0,1,.39.42,1.14,1.14,0,0,1,.15.59A1.19,1.19,0,0,1,43.64,60a1.32,1.32,0,0,1,.71.46,1.21,1.21,0,0,1,.25.76,1.49,1.49,0,0,1-.16.67,1.34,1.34,0,0,1-.44.52,1.45,1.45,0,0,1-.68.24q-.25,0-1.22,0H40.39Zm1,.84v1.16h.67l.74,0a.67.67,0,0,0,.41-.18.53.53,0,0,0,.15-.39.55.55,0,0,0-.13-.38.58.58,0,0,0-.38-.18l-.87,0Zm0,2v1.34h.94a4.64,4.64,0,0,0,.7,0,.63.63,0,0,0,.37-.2.62.62,0,0,0,.14-.43.66.66,0,0,0-.11-.38.63.63,0,0,0-.32-.23,3.47,3.47,0,0,0-.9-.07Z"/><path d="M50.69,62.7h-1.1l-.44-1.14h-2l-.42,1.14H45.65l2-5h1.07Zm-1.87-2-.69-1.87-.68,1.87Z"/><path d="M51.94,62.7v-5h1L55,61V57.67h.94v5h-1l-2-3.28V62.7Z"/><path d="M57.72,62.7v-5h1V59.9l2.05-2.23h1.37l-1.89,2,2,3.07H60.94l-1.38-2.36-.82.84V62.7Z"/></svg>