<svg id="Layer_1" data-name="Layer 1" xmlns="http://www.w3.org/2000/svg" viewBox="0 0 100 100"><defs><style>.cls-1{fill:none;stroke:#000;stroke-linecap:round;stroke-miterlimit:10;stroke-width:1.53px;}</style></defs><title>company-info_icon</title><path d="M25,47.13A25.87,25.87,0,1,1,50.89,73h-.15A25.88,25.88,0,0,1,25,47.13Zm2,0a23.84,23.84,0,1,0,23.9-23.83A23.84,23.84,0,0,0,27,47.13v0Z"/><path d="M53,59.87h2.13v1H46.67v-1H48.8V44c0-.23-.06-.31-.3-.3H46.68v-1H53Z"/><path d="M48,36.74a2.9,2.9,0,1,1,2.9,3,2.9,2.9,0,0,1-2.9-3Z"/><path class="cls-1" d="M36.83,33.48a19.31,19.31,0,0,1,7.23-4.55"/><path class="cls-1" d="M41.43,64.2a19.31,19.31,0,0,1-8-26.11l.22-.41"/></svg>