<?xml version="1.0" encoding="utf-8"?>
<!-- Generator: Adobe Illustrator 21.0.2, SVG Export Plug-In . SVG Version: 6.00 Build 0)  -->
<svg version="1.1" id="Layer_1" xmlns="http://www.w3.org/2000/svg" xmlns:xlink="http://www.w3.org/1999/xlink" x="0px" y="0px"
	 viewBox="0 0 100 72" style="enable-background:new 0 0 100 72;" xml:space="preserve">
<style type="text/css">
	.st0{fill:#67CCEA;}
	.st1{enable-background:new    ;}
	.st2{fill:#155689;}
	.st3{fill:#FFFFFF;}
	.st4{fill:#FF5E2C;}
	.st5{fill:#D8D8D8;}
	.st6{fill:#FFC043;}
	.st7{opacity:0.12;fill:#FFFFFF;enable-background:new    ;}
</style>
<title>Untitled-3</title>
<path class="st0" d="M13.9,11.2h70.3c1.9,0,3.5,1.6,3.5,3.5v42.5c0,1.9-1.6,3.5-3.5,3.5H13.9c-1.9,0-3.5-1.6-3.5-3.5V14.8
	C10.4,12.8,12,11.2,13.9,11.2z"/>
<g class="st1">
	<path class="st2" d="M15.4,46.2l0.4,0.7c0.1,0.2,0.2,0.4,0.3,0.6h0c0.1-0.2,0.2-0.4,0.3-0.6l0.4-0.7h1L16.7,48l1.3,1.9h-1.1
		l-0.5-0.7c-0.1-0.2-0.2-0.4-0.3-0.6h0c-0.1,0.2-0.2,0.4-0.3,0.6l-0.4,0.7h-1l1.3-1.9l-1.2-1.8H15.4z"/>
	<path class="st2" d="M19.2,46.2l0.4,0.7c0.1,0.2,0.2,0.4,0.3,0.6h0c0.1-0.2,0.2-0.4,0.3-0.6l0.4-0.7h1L20.5,48l1.3,1.9h-1.1
		l-0.5-0.7c-0.1-0.2-0.2-0.4-0.3-0.6h0c-0.1,0.2-0.2,0.4-0.3,0.6l-0.4,0.7h-1l1.3-1.9l-1.2-1.8H19.2z"/>
	<path class="st2" d="M22.9,46.2l0.4,0.7c0.1,0.2,0.2,0.4,0.3,0.6h0c0.1-0.2,0.2-0.4,0.3-0.6l0.4-0.7h1L24.2,48l1.3,1.9h-1.1
		L24,49.1c-0.1-0.2-0.2-0.4-0.3-0.6h0c-0.1,0.2-0.2,0.4-0.3,0.6l-0.4,0.7h-1l1.3-1.9l-1.2-1.8H22.9z"/>
	<path class="st2" d="M26.7,46.2l0.4,0.7c0.1,0.2,0.2,0.4,0.3,0.6h0c0.1-0.2,0.2-0.4,0.3-0.6l0.4-0.7h1L28,48l1.3,1.9h-1.1l-0.5-0.7
		c-0.1-0.2-0.2-0.4-0.3-0.6h0c-0.1,0.2-0.2,0.4-0.3,0.6l-0.4,0.7h-1l1.3-1.9l-1.2-1.8H26.7z"/>
	<path class="st2" d="M33.6,46.2l0.4,0.7c0.1,0.2,0.2,0.4,0.3,0.6h0c0.1-0.2,0.2-0.4,0.3-0.6l0.4-0.7h1L34.9,48l1.3,1.9h-1.1
		l-0.5-0.7c-0.1-0.2-0.2-0.4-0.3-0.6h0c-0.1,0.2-0.2,0.4-0.3,0.6l-0.4,0.7h-1l1.3-1.9l-1.2-1.8H33.6z"/>
	<path class="st2" d="M37.3,46.2l0.4,0.7c0.1,0.2,0.2,0.4,0.3,0.6h0c0.1-0.2,0.2-0.4,0.3-0.6l0.4-0.7h1L38.7,48l1.3,1.9h-1.1
		l-0.5-0.7c-0.1-0.2-0.2-0.4-0.3-0.6h0c-0.1,0.2-0.2,0.4-0.3,0.6l-0.4,0.7h-1l1.3-1.9l-1.2-1.8H37.3z"/>
	<path class="st2" d="M41.1,46.2l0.4,0.7c0.1,0.2,0.2,0.4,0.3,0.6h0c0.1-0.2,0.2-0.4,0.3-0.6l0.4-0.7h1L42.4,48l1.3,1.9h-1.1
		l-0.5-0.7c-0.1-0.2-0.2-0.4-0.3-0.6h0c-0.1,0.2-0.2,0.4-0.3,0.6L41,49.9h-1l1.3-1.9l-1.2-1.8H41.1z"/>
	<path class="st2" d="M44.9,46.2l0.4,0.7c0.1,0.2,0.2,0.4,0.3,0.6h0c0.1-0.2,0.2-0.4,0.3-0.6l0.4-0.7h1L46.2,48l1.3,1.9h-1.1
		l-0.5-0.7c-0.1-0.2-0.2-0.4-0.3-0.6h0c-0.1,0.2-0.2,0.4-0.3,0.6l-0.4,0.7h-1l1.3-1.9l-1.2-1.8H44.9z"/>
	<path class="st2" d="M51.8,46.2l0.4,0.7c0.1,0.2,0.2,0.4,0.3,0.6h0c0.1-0.2,0.2-0.4,0.3-0.6l0.4-0.7h1L53.1,48l1.3,1.9h-1.1
		l-0.5-0.7c-0.1-0.2-0.2-0.4-0.3-0.6h0c-0.1,0.2-0.2,0.4-0.3,0.6l-0.4,0.7h-1L52,48l-1.2-1.8H51.8z"/>
	<path class="st2" d="M55.5,46.2l0.4,0.7c0.1,0.2,0.2,0.4,0.3,0.6h0c0.1-0.2,0.2-0.4,0.3-0.6l0.4-0.7h1L56.8,48l1.3,1.9H57l-0.5-0.7
		c-0.1-0.2-0.2-0.4-0.3-0.6h0c-0.1,0.2-0.2,0.4-0.3,0.6l-0.4,0.7h-1l1.3-1.9l-1.2-1.8H55.5z"/>
	<path class="st2" d="M59.3,46.2l0.4,0.7c0.1,0.2,0.2,0.4,0.3,0.6h0c0.1-0.2,0.2-0.4,0.3-0.6l0.4-0.7h1L60.6,48l1.3,1.9h-1.1
		l-0.5-0.7c-0.1-0.2-0.2-0.4-0.3-0.6h0c-0.1,0.2-0.2,0.4-0.3,0.6l-0.4,0.7h-1l1.3-1.9l-1.2-1.8H59.3z"/>
	<path class="st2" d="M63,46.2l0.4,0.7c0.1,0.2,0.2,0.4,0.3,0.6h0c0.1-0.2,0.2-0.4,0.3-0.6l0.4-0.7h1L64.4,48l1.3,1.9h-1.1l-0.5-0.7
		c-0.1-0.2-0.2-0.4-0.3-0.6h0c-0.1,0.2-0.2,0.4-0.3,0.6L63,49.9h-1l1.3-1.9L62,46.2H63z"/>
	<path class="st2" d="M70,46.2l0.4,0.7c0.1,0.2,0.2,0.4,0.3,0.6h0c0.1-0.2,0.2-0.4,0.3-0.6l0.4-0.7h1L71.3,48l1.3,1.9h-1.1L71,49.1
		c-0.1-0.2-0.2-0.4-0.3-0.6h0c-0.1,0.2-0.2,0.4-0.3,0.6l-0.4,0.7h-1l1.3-1.9l-1.2-1.8H70z"/>
	<path class="st2" d="M73.7,46.2l0.4,0.7c0.1,0.2,0.2,0.4,0.3,0.6h0c0.1-0.2,0.2-0.4,0.3-0.6l0.4-0.7h1L75,48l1.3,1.9h-1.1l-0.5-0.7
		c-0.1-0.2-0.2-0.4-0.3-0.6h0c-0.1,0.2-0.2,0.4-0.3,0.6l-0.4,0.7h-1l1.3-1.9l-1.2-1.8H73.7z"/>
	<path class="st2" d="M77.5,46.2l0.4,0.7c0.1,0.2,0.2,0.4,0.3,0.6h0c0.1-0.2,0.2-0.4,0.3-0.6l0.4-0.7h1L78.8,48l1.3,1.9H79l-0.5-0.7
		c-0.1-0.2-0.2-0.4-0.3-0.6h0c-0.1,0.2-0.2,0.4-0.3,0.6l-0.4,0.7h-1l1.3-1.9l-1.2-1.8H77.5z"/>
	<path class="st2" d="M81.2,46.2l0.4,0.7c0.1,0.2,0.2,0.4,0.3,0.6h0c0.1-0.2,0.2-0.4,0.3-0.6l0.4-0.7h1L82.5,48l1.3,1.9h-1.1
		l-0.5-0.7c-0.1-0.2-0.2-0.4-0.3-0.6h0c-0.1,0.2-0.2,0.4-0.3,0.6l-0.4,0.7h-1l1.3-1.9l-1.2-1.8H81.2z"/>
</g>
<rect x="27.8" y="53.9" class="st3" width="56" height="0.5"/>
<rect x="10.4" y="16.2" class="st3" width="77.3" height="9.6"/>
<rect x="48.9" y="56.1" class="st3" width="34.9" height="0.5"/>
<circle class="st4" cx="78.2" cy="34.8" r="5.6"/>
<circle class="st5" cx="71.1" cy="34.8" r="5.6"/>
<g>
	<g>
		<path class="st6" d="M25.2,32.1h-4v4.3h-2.5v-7.3c1.7,0.2,3.6-0.4,5.2,0.9C24.6,30.5,25.1,31.2,25.2,32.1z"/>
		<path class="st6" d="M17.1,36.5h-2.9v-2.6c0-0.1,0.2-0.3,0.4-0.3h2.1c0.2,0.1,0.3,0.2,0.3,0.4C17.1,34.7,17.1,35.6,17.1,36.5z"/>
		<path class="st6" d="M22.6,36.5V34c0.1-0.2,0.2-0.3,0.4-0.4c0.7,0,1.4,0,2,0c0.2,0.1,0.4,0.3,0.4,0.5c0,0.6,0,1.3,0,1.9
			c0,0.4-0.1,0.5-0.5,0.5H22.6z"/>
		<path class="st6" d="M21.1,40.4h-2.4V38h2c0.2,0.1,0.3,0.2,0.4,0.4C21.2,39.1,21.1,39.7,21.1,40.4z"/>
		<path class="st6" d="M14.5,32c0.4-1.2,1.3-2.2,2.5-2.6V32H14.5z"/>
		<path class="st6" d="M17.1,40.2c-1.1-0.3-2-1.2-2.5-2.2h2.1c0.2,0.1,0.3,0.2,0.3,0.3C17.1,38.9,17.1,39.5,17.1,40.2z"/>
		<path class="st6" d="M25.1,38c-0.5,1-1.4,1.8-2.4,2.2V38H25.1z"/>
	</g>
</g>
<path class="st7" d="M71.9,11.2h-58c-1.9,0-3.5,1.6-3.5,3.5v42.5c0,1.9,1.6,3.5,3.5,3.5h8.2C33.2,39.6,50.7,22.3,71.9,11.2z"/>
</svg>
