<svg id="Layer_1" data-name="Layer 1" xmlns="http://www.w3.org/2000/svg" viewBox="0 0 100 100"><title>description_icon</title><path d="M66.55,31.23c1.44.07,2.79,0,4.12.2a9.16,9.16,0,0,1,8.13,9.25q-.12,16,0,31.95a9.27,9.27,0,0,1-9,9.33c-1,0-2.08,0-3.12,0H41.3a9.8,9.8,0,0,1-8.06-3.69c-1.18-1.46-1.51-2.53-1.84-5.64-.88,0-1.78,0-2.68,0A9.89,9.89,0,0,1,22.4,70.4a8.37,8.37,0,0,1-3.19-6.7q0-16.32,0-32.63A9.15,9.15,0,0,1,27.9,22q.65,0,1.29,0Q43,22,56.73,22a10,10,0,0,1,6.67,2.31,8.25,8.25,0,0,1,3.12,6.34C66.52,30.82,66.54,31,66.55,31.23Zm9.07,25.44c0-5.42,0-10.85,0-16.27a6.86,6.86,0,0,0-.26-1.94,6.3,6.3,0,0,0-6.18-4.27H50.53c-3.22,0-6.44,0-9.66,0a6.15,6.15,0,0,0-6.29,6.16q0,16.35,0,32.7a5.72,5.72,0,0,0,2.93,5.09,7.19,7.19,0,0,0,3.93,1q12.55,0,25.09,0c1.06,0,2.13,0,3.19,0a6.1,6.1,0,0,0,5.9-6.21Q75.62,64.78,75.62,56.68ZM31.46,69.93v-1q0-5.59,0-11.18,0-9,0-17.95a7.28,7.28,0,0,1,1.28-4.07,9.62,9.62,0,0,1,8.46-4.38c7.07,0,14.14,0,21.22,0h.94a5.69,5.69,0,0,0-2-4.8,6.87,6.87,0,0,0-4.77-1.65q-13.69,0-27.38,0l-.91,0a6.25,6.25,0,0,0-6,6.29c.07,10.8,0,21.6,0,32.4a5.8,5.8,0,0,0,4.45,5.88A32.65,32.65,0,0,0,31.46,69.93Z"/><path d="M55.07,45.9H67a3.32,3.32,0,0,1,.76,0,1.17,1.17,0,0,1,1,1.24,1.15,1.15,0,0,1-1.05,1.19,3.61,3.61,0,0,1-.61,0H43a4.42,4.42,0,0,1-.61,0,1.16,1.16,0,0,1-1.08-1.17,1.21,1.21,0,0,1,1.05-1.28,4.44,4.44,0,0,1,.68,0Z"/><path d="M55.07,56H67a3.32,3.32,0,0,1,.76,0,1.17,1.17,0,0,1,1,1.24,1.15,1.15,0,0,1-1.05,1.19,3.61,3.61,0,0,1-.61,0H43a4.42,4.42,0,0,1-.61,0,1.16,1.16,0,0,1-1.08-1.17A1.21,1.21,0,0,1,42.38,56a4.44,4.44,0,0,1,.68,0Z"/><path d="M55.07,66.13H67a3.32,3.32,0,0,1,.76,0,1.17,1.17,0,0,1,1,1.24,1.15,1.15,0,0,1-1.05,1.19,3.61,3.61,0,0,1-.61,0H43a4.42,4.42,0,0,1-.61,0,1.16,1.16,0,0,1-1.08-1.17,1.21,1.21,0,0,1,1.05-1.28,4.44,4.44,0,0,1,.68,0Z"/></svg>