<svg id="Layer_1" data-name="Layer 1" xmlns="http://www.w3.org/2000/svg" viewBox="0 0 100 100"><title>email_icon</title><path d="M51.43,25.22H84.57a3.05,3.05,0,0,1,1.63.41,3.2,3.2,0,0,1,1.4,1.57A4.9,4.9,0,0,1,88,29q0,20.12,0,40.24a4.74,4.74,0,0,1-.22,1.44A3.28,3.28,0,0,1,84.6,73H18.46a4.27,4.27,0,0,1-1.85-.35,2.84,2.84,0,0,1-1.53-1.57,4.68,4.68,0,0,1-.35-1.76q0-20.22,0-40.44a5,5,0,0,1,.13-1.16,3.39,3.39,0,0,1,3.37-2.51H51.43Zm-31.21,2.5c0,.21.23.27.36.38l1.8,1.42,6.3,5,5.25,4.16L50.81,52.12c.39.31.48.31.85,0l3.88-3,5.83-4.56c1.26-1,2.54-1.94,3.8-2.92l9.77-7.58,8-6.18c.16-.12.47-.21.38-.46s-.39-.12-.6-.12c-1.29,0-2.58.06-3.87.07-10.3.08-20.59,0-30.89.11-5.52.08-11,0-16.56,0-3.54,0-7.08.14-10.62.09C20.57,27.62,20.38,27.57,20.22,27.72ZM51.67,70.8H78.16c.32,0,.65,0,1,0,1.43.09,2.87,0,4.3,0,.14,0,.32,0,.38-.12s-.12-.27-.23-.37l0,0-2.27-1.63-3.38-2.47-4.3-3.13L69.33,60l-4.87-3.53L61,54l-3.17-2.31c-.4-.29-.48-.28-.85,0l-2.08,1.61-2,1.59a2.78,2.78,0,0,1-1,.56,2.44,2.44,0,0,1-2.2-.59l-3.7-2.95c-.53-.42-.58-.41-1.12,0L41.1,54.61l-3.45,2.56-3.37,2.5L30,62.78l-5.09,3.78L19.89,70.3a1.59,1.59,0,0,0-.28.25c-.09.11-.05.22.09.23a5.7,5.7,0,0,0,.64,0ZM86,48.82q0-9.87,0-19.74a5.91,5.91,0,0,0,0-.6c0-.2-.15-.25-.31-.15a5.3,5.3,0,0,0-.48.35c-1.94,1.51-3.87,3-5.81,4.54l-7.29,5.64c-1.93,1.5-3.84,3-5.76,4.51l-4.93,3.81c-.87.67-1.75,1.35-2.61,2-.32.25-.3.33,0,.59.12.11.25.21.38.3l4.39,3.18,6.88,5,3.43,2.48,6.75,4.92,3.5,2.56c.45.33.91.66,1.37,1s.49.18.52-.28c0-.2,0-.4,0-.6Q86,58.58,86,48.82ZM17,68.34c0,.2,0,.4,0,.6,0,.46.14.53.52.28s.92-.64,1.37-1l3.5-2.56,6.75-4.92,3.43-2.48,6.88-5,4.39-3.18c.13-.1.26-.19.38-.3.29-.26.3-.34,0-.59-.86-.69-1.73-1.36-2.61-2l-4.93-3.81c-1.93-1.5-3.84-3-5.76-4.51l-7.29-5.64c-1.94-1.51-3.87-3-5.81-4.54a5.3,5.3,0,0,0-.48-.35c-.16-.1-.29,0-.31.15a5.91,5.91,0,0,0,0,.6q0,9.87,0,19.74T17,68.34Z"/></svg>