<svg id="Layer_1" data-name="Layer 1" xmlns="http://www.w3.org/2000/svg" viewBox="0 0 50 50"><defs><style>.cls-1{fill:#f1f2f2;}.cls-2{fill:#ff5615;}.cls-3{fill:#505070;}.cls-4{fill:#803cd6;}.cls-5,.cls-9{fill:#fff;}.cls-5,.cls-6,.cls-8{stroke:#505070;stroke-miterlimit:10;}.cls-5,.cls-8{stroke-width:0.38px;}.cls-6,.cls-8{fill:none;}.cls-6{stroke-width:0.4px;}.cls-7{fill:#dbc5f1;opacity:0.96;}.cls-8{stroke-linecap:round;}</style></defs><title>empty states</title><path class="cls-1" d="M48.78,22.54l0,0A1.53,1.53,0,0,0,46.66,22l-3.19,1.94a1.49,1.49,0,0,0-1.64-2.43l3.65-2.23A1.54,1.54,0,0,0,46,17.16l0-.07a1.54,1.54,0,0,0-2.11-.51l-3.11,1.9a1.62,1.62,0,0,0,.13-1.86l-.12-.19a1.62,1.62,0,0,0-2.21-.54l-1.07.65a1.49,1.49,0,0,0-2-2.15l-2.82,1.72a1.58,1.58,0,0,0-.09-1.48l-.09-.14a1.58,1.58,0,0,0-1.38-.75l3.28-2A1.56,1.56,0,0,0,34.9,9.6l-.06-.1A1.56,1.56,0,0,0,32.72,9l-3.16,1.92a1.53,1.53,0,0,0,.21-1.86l0-.05a1.53,1.53,0,0,0-2.09-.51L2.73,23.69a1.53,1.53,0,0,0-.51,2.09l0,.05a1.53,1.53,0,0,0,2.09.51L6.53,25a1.56,1.56,0,0,0-.22,1.89l.06.1a1.55,1.55,0,0,0,1.35.74L5.49,29.09A1.59,1.59,0,0,0,5,31.27l.09.14a1.59,1.59,0,0,0,2.17.53l1.68-1a1.49,1.49,0,0,0,2.14,1.87l2.27-1.38a1.62,1.62,0,0,0-.09,1.81l.12.19a1.62,1.62,0,0,0,2.21.54l2-1.2a1.54,1.54,0,0,0-.11,1.76l0,.07a1.54,1.54,0,0,0,1.89.62l-2.68,1.63a1.49,1.49,0,1,0,1.56,2.55L20.45,38a1.53,1.53,0,0,0-.23,1.87l0,0a1.53,1.53,0,0,0,2.09.51L48.27,24.63A1.53,1.53,0,0,0,48.78,22.54Z"/><circle class="cls-2" cx="9.47" cy="15.02" r="0.94"/><circle class="cls-3" cx="12.03" cy="15.81" r="0.53"/><circle class="cls-4" cx="10.26" cy="17.63" r="0.46"/><circle class="cls-3" cx="38.7" cy="32.01" r="0.46"/><circle class="cls-2" cx="41.36" cy="31.55" r="0.46"/><circle class="cls-4" cx="39.87" cy="29.36" r="0.33"/><polygon class="cls-5" points="15.93 12.18 18.37 13.81 20.64 12.18 22.81 13.81 24.89 12.18 26.88 13.81 29.15 12.18 31.05 13.81 33.4 12.18 33.4 36.71 31.14 35.17 29.15 36.71 26.79 35.26 24.67 36.71 22.54 35.25 20.64 36.71 18.35 35.28 15.93 36.83 15.93 12.18"/><circle class="cls-4" cx="33.4" cy="25.4" r="4.29"/><line class="cls-6" x1="18.35" y1="16.8" x2="30.8" y2="16.8"/><line class="cls-6" x1="18.35" y1="19.27" x2="30.8" y2="19.27"/><line class="cls-6" x1="18.35" y1="31.67" x2="30.8" y2="31.67"/><line class="cls-6" x1="18.35" y1="21.75" x2="28.15" y2="21.75"/><line class="cls-6" x1="18.35" y1="29.19" x2="28.15" y2="29.19"/><line class="cls-6" x1="18.35" y1="24.23" x2="26.92" y2="24.23"/><line class="cls-6" x1="18.35" y1="26.71" x2="26.92" y2="26.71"/><polygon class="cls-7" points="16.36 33.13 16.36 30.22 10.21 30.22 8.57 31.89 10.19 33.31 16.36 33.31 16.36 33.13"/><line class="cls-8" x1="14.1" y1="30.99" x2="10.13" y2="30.99"/><line class="cls-8" x1="10.36" y1="34.38" x2="15.93" y2="34.38"/><polyline class="cls-8" points="11.86 35.91 8.53 32.58 11.86 29.25"/><polygon class="cls-7" points="32.94 14.29 32.94 16.74 39.28 16.74 40.52 15.53 39.11 14.14 32.94 14.14 32.94 14.29"/><line class="cls-8" x1="35.47" y1="13.54" x2="39.44" y2="13.54"/><line class="cls-8" x1="39.21" y1="16.93" x2="33.64" y2="16.93"/><polyline class="cls-8" points="37.71 18.46 41.04 15.13 37.71 11.8"/><path class="cls-9" d="M32.41,25c0-.09-.06-.18-.08-.26a.44.44,0,0,1,.05-.34l.14-.23a.45.45,0,0,1,.38-.24,1.51,1.51,0,0,1,.54.06,5.64,5.64,0,0,1,1.48.67,5.85,5.85,0,0,1,1.08.82,1.85,1.85,0,0,1,.38.49.48.48,0,0,1,0,.52,1.58,1.58,0,0,0-.11.18.52.52,0,0,1-.42.27,2,2,0,0,1-.85-.12l-.42-.16a.13.13,0,0,0-.09,0,3.79,3.79,0,0,1-1.05.25,5.9,5.9,0,0,1-1,0,4,4,0,0,1-1.32-.27,1.84,1.84,0,0,1-.37-.22.47.47,0,0,1-.19-.41c0-.08,0-.16,0-.24a.44.44,0,0,1,.17-.36,1.48,1.48,0,0,1,.57-.26A5.14,5.14,0,0,1,32.34,25ZM36,26.36l.13,0a.15.15,0,0,0,.12-.21.81.81,0,0,0-.09-.19,2.37,2.37,0,0,0-.46-.51,6.47,6.47,0,0,0-1.5-1,3.56,3.56,0,0,0-1-.33,1.17,1.17,0,0,0-.3,0c-.13,0-.18.1-.14.22a.63.63,0,0,0,.06.13,1.88,1.88,0,0,0,.36.44,6.28,6.28,0,0,0,2.06,1.27A2.27,2.27,0,0,0,36,26.36Zm-2.23-.18-.05,0a4.56,4.56,0,0,1-1.09-.94.09.09,0,0,0-.07,0l-.66.05a2.81,2.81,0,0,0-.82.21,1,1,0,0,0-.23.15.14.14,0,0,0,0,.24.5.5,0,0,0,.15.11,4.33,4.33,0,0,0,.51.18,5.35,5.35,0,0,0,1.3.13A6,6,0,0,0,33.73,26.18Zm-.16.13v.31l.1,0,0,0c0-.09,0-.18,0-.28Zm-1.67.3v0c0-.06,0-.12,0-.18s0-.1-.11-.12h0v.3Zm1.84-.71.16-.28-.1-.07-.16.28Zm.35-.15-.15.28.11.07.16-.28Zm-.45-.3-.15.28.1.07.15-.28Zm.71.45-.11-.06-.16.28.11.06Zm-.57,0,.11.07.16-.28-.11-.07Zm.89.14L34.55,26l-.15.27.11.05Zm-.32.2.16-.28-.11-.06-.15.28Zm-1.2.39v-.31H33v.32Zm.34-1.31-.15.27.1.08.15-.27Zm1.07,1,.12.05.15-.27-.11-.05Zm-1.35.29h.12v-.31h-.12Zm-.78,0v-.32h-.12v.31Zm-1.19-.49c0,.07,0,.13,0,.2a.22.22,0,0,0,0,.06l0,0,.1,0c0-.07,0-.12,0-.18S31.37,26.2,31.24,26.18Zm1.38.18h-.12v.31h.12Zm-.36,0h-.12v.31h.12Zm1.13,0v.31h.12v-.31Zm-.18-.82.1.08.15-.27-.1-.08Zm-.35.85v.31H33v-.31Zm-.89,0v.31h.12v-.31Zm.83.36v-.31h-.12v.31Zm2.37-.38-.09,0,0,0-.13.23.12,0Zm-.44.15.12,0,.15-.27-.12,0Zm-1.66-1.05.1.09.15-.27-.1-.08-.1.18Zm0,0,.1-.17c.05-.1.05-.1,0-.17h0l-.14.25Zm-1.3,1.24c0-.1,0-.19,0-.28s0,0,0,0l-.09,0v.3Zm2-.3v.31l.12,0v-.3Zm1.32.28.09,0,0,0,.13-.23-.12,0ZM32.9,25.21,33,25c0-.09,0-.11-.05-.16l0,0-.1.18a0,0,0,0,0,0,0Zm-1.48,1c0,.07,0,.13,0,.18s0,.11.11.14h0v-.29Zm3.82.39.09,0a.07.07,0,0,0,.06,0l.12-.22-.12,0Zm-2.47-1.55v0l.07-.12c.06-.1.06-.1,0-.19h0l-.12.21a0,0,0,0,0,0,0Zm2.92,1.38-.1,0h0l-.13.22h.1l0,0Zm-4.63-.33c0,.06,0,.12,0,.17s0,.11.13.14,0-.17,0-.25l0,0Zm1.65-1.56-.07.13c-.06.1-.06.12,0,.21l.11-.2a.06.06,0,0,0,0,0Zm3.17,1.91h-.14l-.11.2v0s.11,0,.14,0A.88.88,0,0,0,35.88,26.47Zm-5-.43c0,.06,0,.1,0,.15s0,.13.13.16,0-.14,0-.21a.06.06,0,0,0,0,0Zm3,.52c.11,0,.12,0,.12-.06s0-.15-.12-.19Zm2.16-.09H36s-.05,0-.07,0-.06.11-.1.17A.26.26,0,0,0,36.08,26.46ZM32.63,24.4a.26.26,0,0,0-.06.29C32.61,24.59,32.73,24.52,32.63,24.4Zm-1.89,1.54c0,.1,0,.19.08.26C30.81,26.11,30.89,26,30.75,25.94Zm3.49.53-.13-.07v.11Z"/></svg>