<svg id="Layer_1" data-name="Layer 1" xmlns="http://www.w3.org/2000/svg" viewBox="0 0 56.05 63.34"><title>export_icon</title><path d="M29.79,18.66H61c3.94,4.53,7.87,9.07,11.85,13.57a3.75,3.75,0,0,1,1,2.79c-.06,2.05,0,4.1,0,6.19.3,0,.5.1.7.11,3.34.18,4.33,1.24,4.33,4.61q0,7.85,0,15.7c0,4.21-.64,4.91-4.8,5.3,0,0-.06,0-.23.17v1.23c0,3.5,0,7,0,10.51,0,2.23-.94,3.16-3.16,3.16H31c-2.21,0-3.12-.94-3.13-3.2,0-3.5,0-7,0-10.51,0-.44,0-.88,0-1.35l-1,0c-2.69-.06-4-1.37-4-4.06,0-1.61,0-3.21,0-4.82,0-4.33,0-8.65,0-13a3.46,3.46,0,0,1,3.61-3.69l1.4-.06c0-.56,0-1,0-1.46,0-5.93,0-11.87,0-17.8A3.13,3.13,0,0,1,29.79,18.66Zm.59,22.55H71.25V35.08H61.07c-1.65,0-2-.3-2-1.94,0-3.54,0-7.09,0-10.63,0-.43,0-.86-.07-1.27H30.39ZM71.26,67H30.39v11.8H71.26ZM28,44.07c.27.53.43.89.62,1.24,1.35,2.4,2.69,4.81,4.08,7.2a1.53,1.53,0,0,1,0,1.79c-1,1.58-1.86,3.2-2.78,4.81L27.72,63c1.41,0,2.6-.05,3.78,0a1.37,1.37,0,0,0,1.57-1c.78-1.91,1.67-3.77,2.61-5.84,1.07,2.14,2,4.09,3,6a1.47,1.47,0,0,0,.92.76C41,63,42.41,63,44,63c-.26-.51-.43-.87-.63-1.21-1.48-2.57-3-5.11-4.43-7.71a1.85,1.85,0,0,1,0-1.51c.92-1.75,2-3.44,2.94-5.15.61-1.05,1.2-2.12,1.9-3.34-1.45,0-2.68,0-3.91,0a1.25,1.25,0,0,0-1.38.9c-.77,1.85-1.62,3.66-2.51,5.65-.95-2-1.8-3.86-2.71-5.69-.17-.35-.58-.78-.9-.81C30.93,44,29.54,44.07,28,44.07Zm44.26.64c-.68-.23-1.25-.46-1.84-.61a10.55,10.55,0,0,0-6.43.27,5.23,5.23,0,0,0-3.69,4.91c-.1,2.39,1.3,3.91,3.3,4.92,1.28.65,2.68,1.09,3.89,1.85a2.35,2.35,0,0,1,1,1.85c-.12.63-.91,1.24-1.55,1.64a2.71,2.71,0,0,1-1.69.18c-1.45-.22-2.87-.55-4.44-.86L60,62.16a12.59,12.59,0,0,0,9.06.52,5.31,5.31,0,0,0,4-5.11c.1-2.53-1.29-4.15-3.51-5.16-1.12-.51-2.26-1-3.37-1.52-.9-.42-1.71-1-1.43-2.15a1.92,1.92,0,0,1,2.2-1.39c1.45.08,2.9.33,4.48.53ZM58.17,59.38H50.6V44.14H46.46V62.9H58.17Z" transform="translate(-22.8 -18.66)"/></svg>