<svg id="Layer_1" data-name="Layer 1" xmlns="http://www.w3.org/2000/svg" viewBox="0 0 100 42"><defs><style>.cls-1{fill:#000268;}.cls-2{fill:#fff;}.cls-3{fill:#ff0007;}</style></defs><title>Untitled-3</title><path class="cls-1" d="M49.8,39.06H15.23a6.19,6.19,0,0,1-5.45-3,6,6,0,0,1-1-3.39q0-11.25,0-22.5a6.28,6.28,0,0,1,4.62-6.13,6.74,6.74,0,0,1,1.91-.24H84.22a6.37,6.37,0,0,1,4.23,1.46,6,6,0,0,1,2.3,4.79q0,11.37,0,22.73A6.29,6.29,0,0,1,85.16,39a7.83,7.83,0,0,1-.89,0ZM51.66,6.41H15.52a4.56,4.56,0,0,0-.91.08,3.92,3.92,0,0,0-3.2,4q0,11,0,22a4,4,0,0,0,0,.57,4,4,0,0,0,4,3.47h36.2Zm5.67,18.23c.15.19.27.37.41.52a3,3,0,0,0,1.93.89,3.63,3.63,0,0,0,3.55-1.47A5.46,5.46,0,0,0,64,19.73a3.69,3.69,0,0,0-4-2.92,3.36,3.36,0,0,0-2.81,1.67l0,.06h0V17H54.27V29.41h3.06Zm23.2-1.82-.08-.23q-.89-2.7-1.78-5.39a.23.23,0,0,0-.27-.2H75.32l.09.25q1.7,4.3,3.41,8.6a.54.54,0,0,1,0,.45,1.59,1.59,0,0,1-1.8,1c-.29,0-.57-.09-.87-.14l-.2,2.29.09,0a8.19,8.19,0,0,0,2.16.18,3.29,3.29,0,0,0,2.32-1.07,5.94,5.94,0,0,0,1.1-1.86q1.89-4.77,3.77-9.56a1.11,1.11,0,0,0,0-.16H82.58a.24.24,0,0,0-.28.21c-.35,1.15-.72,2.3-1.08,3.45Zm-6,3c0-.59-.1-1.17-.11-1.75,0-1.25,0-2.5,0-3.75a3.18,3.18,0,0,0-2.4-3.3,8.37,8.37,0,0,0-5.24.33.27.27,0,0,0-.11.21c0,.54,0,1.08,0,1.62,0,.09,0,.17,0,.29a5.58,5.58,0,0,1,2.91-.64,3.89,3.89,0,0,1,1.1.19,1.21,1.21,0,0,1,.8,1.3l-.59-.06a8.29,8.29,0,0,0-3.35.32,2.69,2.69,0,0,0-2,2.22,2.57,2.57,0,0,0,1.27,2.75,4.1,4.1,0,0,0,1.24.42,3.17,3.17,0,0,0,3.54-1.44.26.26,0,0,0,0-.09l.06,0,.08,1.33Z"/><path class="cls-2" d="M51.66,6.41V36.49H15.46a4,4,0,0,1-4-3.47,4,4,0,0,1,0-.57q0-11,0-22a3.92,3.92,0,0,1,3.2-4,4.56,4.56,0,0,1,.91-.08H51.66ZM22.77,18.63l-.09-.12a3.43,3.43,0,0,0-3.34-1.69A3.46,3.46,0,0,0,16.17,19a6.11,6.11,0,0,0-.34,3.43,3.76,3.76,0,0,0,3.33,3.36,3.52,3.52,0,0,0,3.38-1.34l.14-.16c0,.3,0,.56,0,.81a2.16,2.16,0,0,1-1.93,2.19,5.67,5.67,0,0,1-2.81-.25c-.32-.11-.63-.25-1-.39,0,.71-.08,1.41-.14,2.11,0,.22.06.31.26.37a10.78,10.78,0,0,0,2.64.45,9.75,9.75,0,0,0,2.85-.24A3.48,3.48,0,0,0,25,27.58a5.44,5.44,0,0,0,.53-2.48c0-2.63,0-5.27,0-7.9,0-.06,0-.11,0-.18H22.77Zm21.74-1.86c-.47.06-.95.09-1.41.18a4.37,4.37,0,0,0-3.73,4.44,4.31,4.31,0,0,0,3.09,4.35,6.62,6.62,0,0,0,3.49.16,4.72,4.72,0,0,0,2.62-1.44A4.41,4.41,0,0,0,49.64,21a4.18,4.18,0,0,0-2.26-3.55A6.28,6.28,0,0,0,44.51,16.77Zm-5.28.15a2.87,2.87,0,0,0-3.64,1.73l0,0V17H32.79v8.81h3c0-.11,0-.21,0-.31,0-1.3,0-2.6,0-3.9A2.52,2.52,0,0,1,36.46,20a2.19,2.19,0,0,1,1.9-.66c.24,0,.47,0,.72.07ZM27.68,17v8.82h3c0-.08,0-.15,0-.21q0-4.2,0-8.39c0-.17,0-.23-.22-.23H27.68Zm0-3.69v2.2h3v-2.2Z"/><path class="cls-2" d="M57.33,24.63v4.78H54.27V17h2.82v1.52h0l0-.06A3.36,3.36,0,0,1,60,16.81a3.69,3.69,0,0,1,4,2.92,5.46,5.46,0,0,1-.75,4.83A3.63,3.63,0,0,1,59.67,26a3,3,0,0,1-1.93-.89C57.6,25,57.48,24.82,57.33,24.63ZM61,21.45A2.64,2.64,0,0,0,60.69,20a1.73,1.73,0,0,0-2.77-.28A2.72,2.72,0,0,0,58,23.17a1.68,1.68,0,0,0,2.72-.35A2.82,2.82,0,0,0,61,21.45Z"/><path class="cls-2" d="M80.53,22.81l.68-2.17c.36-1.15.73-2.3,1.08-3.45a.24.24,0,0,1,.28-.21h2.83a1.11,1.11,0,0,1,0,.16q-1.88,4.78-3.77,9.56a5.94,5.94,0,0,1-1.1,1.86,3.29,3.29,0,0,1-2.32,1.07A8.19,8.19,0,0,1,76,29.45l-.09,0,.2-2.29c.31.05.59.11.87.14a1.59,1.59,0,0,0,1.8-1,.54.54,0,0,0,0-.45q-1.71-4.3-3.41-8.6L75.32,17h3.09a.23.23,0,0,1,.27.2q.88,2.7,1.78,5.39Z"/><path class="cls-2" d="M74.52,25.84H71.76l-.08-1.33-.06,0a.26.26,0,0,1,0,.09A3.17,3.17,0,0,1,68.06,26a4.1,4.1,0,0,1-1.24-.42,2.57,2.57,0,0,1-1.27-2.75,2.69,2.69,0,0,1,2-2.22,8.29,8.29,0,0,1,3.35-.32l.59.06a1.21,1.21,0,0,0-.8-1.3,3.89,3.89,0,0,0-1.1-.19,5.58,5.58,0,0,0-2.91.64c0-.11,0-.2,0-.29,0-.54,0-1.08,0-1.62a.27.27,0,0,1,.11-.21A8.37,8.37,0,0,1,72,17.05a3.18,3.18,0,0,1,2.4,3.3c0,1.25,0,2.5,0,3.75C74.42,24.68,74.48,25.25,74.52,25.84Zm-3-3.95c-.55,0-1.09,0-1.62,0a2.81,2.81,0,0,0-.88.22A1,1,0,0,0,69.22,24,1.94,1.94,0,0,0,71.51,21.9Z"/><path class="cls-3" d="M22.77,18.63V17h2.75c0,.07,0,.12,0,.18,0,2.63,0,5.27,0,7.9A5.44,5.44,0,0,1,25,27.58a3.48,3.48,0,0,1-2.41,1.8,9.75,9.75,0,0,1-2.85.24,10.78,10.78,0,0,1-2.64-.45c-.2-.06-.28-.14-.26-.37.06-.7.09-1.4.14-2.11.33.13.64.27,1,.39a5.67,5.67,0,0,0,2.81.25,2.16,2.16,0,0,0,1.93-2.19c0-.25,0-.51,0-.81l-.14.16a3.52,3.52,0,0,1-3.38,1.34,3.76,3.76,0,0,1-3.33-3.36A6.11,6.11,0,0,1,16.17,19a3.46,3.46,0,0,1,3.16-2.21,3.43,3.43,0,0,1,3.34,1.69Zm-3.92,2.64c0,.32.06.57.12.81a1.74,1.74,0,0,0,1.22,1.38A1.71,1.71,0,0,0,21.92,23a2.52,2.52,0,0,0,.22-3.15,1.81,1.81,0,0,0-1.78-.67,1.53,1.53,0,0,0-1.27,1.1A8.43,8.43,0,0,0,18.85,21.26Z"/><path class="cls-3" d="M44.51,16.77a6.28,6.28,0,0,1,2.87.71A4.18,4.18,0,0,1,49.64,21a4.41,4.41,0,0,1-1.07,3.43,4.72,4.72,0,0,1-2.62,1.44,6.62,6.62,0,0,1-3.49-.16,4.31,4.31,0,0,1-3.09-4.35,4.37,4.37,0,0,1,3.73-4.44C43.56,16.86,44,16.83,44.51,16.77Zm-2,4.67a3.15,3.15,0,0,0,.3,1.46,1.76,1.76,0,0,0,1.68,1,1.72,1.72,0,0,0,1.7-1,3.42,3.42,0,0,0,0-2.89,1.71,1.71,0,0,0-1.67-1.08A1.77,1.77,0,0,0,42.81,20,3.17,3.17,0,0,0,42.52,21.44Z"/><path class="cls-3" d="M39.23,16.92l-.15,2.49c-.25,0-.48-.05-.72-.07a2.19,2.19,0,0,0-1.9.66,2.52,2.52,0,0,0-.61,1.62c0,1.3,0,2.6,0,3.9,0,.1,0,.2,0,.31h-3V17h2.76V18.6l0,0A2.87,2.87,0,0,1,39.23,16.92Z"/><path class="cls-3" d="M27.68,17h2.81c.18,0,.22.06.22.23q0,4.2,0,8.39c0,.07,0,.14,0,.21h-3Z"/><path class="cls-3" d="M27.68,13.33h3v2.2h-3Z"/><path class="cls-1" d="M61,21.45a2.82,2.82,0,0,1-.34,1.37,1.68,1.68,0,0,1-2.72.35,2.72,2.72,0,0,1-.05-3.46,1.73,1.73,0,0,1,2.77.28A2.64,2.64,0,0,1,61,21.45Z"/><path class="cls-1" d="M71.51,21.9A1.94,1.94,0,0,1,69.22,24,1,1,0,0,1,69,22.12a2.81,2.81,0,0,1,.88-.22C70.43,21.87,71,21.9,71.51,21.9Z"/><path class="cls-2" d="M18.85,21.26a8.43,8.43,0,0,1,.23-1,1.53,1.53,0,0,1,1.27-1.1,1.81,1.81,0,0,1,1.78.67A2.52,2.52,0,0,1,21.92,23a1.71,1.71,0,0,1-1.72.47A1.74,1.74,0,0,1,19,22.07C18.91,21.84,18.9,21.59,18.85,21.26Z"/><path class="cls-2" d="M42.52,21.44A3.16,3.16,0,0,1,42.81,20a1.77,1.77,0,0,1,1.74-1.06A1.71,1.71,0,0,1,46.22,20a3.42,3.42,0,0,1,0,2.89,1.72,1.72,0,0,1-1.7,1,1.76,1.76,0,0,1-1.68-1A3.15,3.15,0,0,1,42.52,21.44Z"/></svg>