<svg id="Layer_1" data-name="Layer 1" xmlns="http://www.w3.org/2000/svg" viewBox="0 0 61.03 68.29"><defs><style>.cls-1{fill:none;stroke-width:2.03px;}.cls-1,.cls-2{stroke:#803cd6;stroke-miterlimit:10;}.cls-2{fill:#803cd6;stroke-width:0.54px;}</style></defs><title>help_icon</title><path class="cls-1" d="M76,46.33v3.34c-.05.46-.11.91-.15,1.37a31.84,31.84,0,0,1-6.72,17C61.85,77.15,52.8,80.11,42.64,79a26.08,26.08,0,0,1-9.18-3,1,1,0,0,0-1.12.05q-5.82,3.58-11.66,7.12c-.83.5-1.4.45-1.9-.16s-.5-1.27,0-2.3L20,78l4.2-9.37c-.1-.14-.18-.27-.28-.38a31.33,31.33,0,0,1-6.44-14.82c-.18-1.13-.3-2.28-.44-3.43V46.61c.14-1.19.24-2.39.42-3.57a29.61,29.61,0,0,1,8.66-17.15c7.07-6.85,15.22-9.47,24.19-8.41,6.93.82,13,4.13,18,9.93A30.56,30.56,0,0,1,75.58,43C75.76,44.08,75.86,45.21,76,46.33Z" transform="translate(-15.99 -16.23)"/><path class="cls-2" d="M41.75,42.56H40.63q-.36-1.2-.8-3.1a28.56,28.56,0,0,1-.62-3.63,11.85,11.85,0,0,1,3.63-1.45A22.64,22.64,0,0,1,47.58,34a10,10,0,0,1,3.5.56A7.21,7.21,0,0,1,53.58,36a6.2,6.2,0,0,1,1.51,2.29,8,8,0,0,1,.51,2.9,7.83,7.83,0,0,1-.74,3.5A11.63,11.63,0,0,1,53,47.42a21.42,21.42,0,0,1-2.38,2.25,26.29,26.29,0,0,0-2.41,2.21,11.35,11.35,0,0,0-1.85,2.54,6.83,6.83,0,0,0-.73,3.25h-.89a10.79,10.79,0,0,1-.31-2.54A7.28,7.28,0,0,1,45,52.3,10.69,10.69,0,0,1,46.25,50a18.65,18.65,0,0,1,1.65-1.94,23.94,23.94,0,0,0,1.65-1.87,10.45,10.45,0,0,0,1.27-2,5.87,5.87,0,0,0,.51-2.52A6.68,6.68,0,0,0,51,39.74,5.37,5.37,0,0,0,50.15,38a4.38,4.38,0,0,0-1.54-1.25,5,5,0,0,0-2.27-.47,9.84,9.84,0,0,0-2.32.22,2.71,2.71,0,0,0-1.25.58Zm.71,20.58A2.81,2.81,0,0,1,43.31,61a3,3,0,0,1,2.18-.8,3.11,3.11,0,0,1,2.23.8,2.81,2.81,0,0,1,.85,2.14,2.75,2.75,0,0,1-.85,2.09,3.11,3.11,0,0,1-2.23.8,3,3,0,0,1-2.18-.8A2.75,2.75,0,0,1,42.46,63.15Z" transform="translate(-15.99 -16.23)"/></svg>