<svg id="Layer_1" data-name="Layer 1" xmlns="http://www.w3.org/2000/svg" viewBox="0 0 83.23 84.55">
  <defs>
    <style>
      .cls-1 {
        fill: transparent;
      }
      .cls-2 {
        fill: #000;
        stroke: #000;
        stroke-miterlimit: 10;
        stroke-width: 0.5px;
      }
    </style>
  </defs>
  <title>Untitled-4</title><path
    class="cls-1"
    d="M89.71,46.27C87.55,23.62,68.33,7.48,46.15,9.56,25.73,11.49,10,29,10,51A40.52,40.52,0,0,0,18.5,75c.63.82,1.17,1.44,2.42,1,5.42-2.09,10.88-4.09,16.34-6.1A3.94,3.94,0,0,0,39.86,67c.16-.63.19-1.4,1-1.61,1-.28.86-.76.35-1.39A10.12,10.12,0,0,1,39,58.52a2.2,2.2,0,0,0-1-1.79c-2.09-1.44-3.42-5.7-2.7-8.19a1.92,1.92,0,0,1,1.13-1.32c.91-.37,1-1,.79-1.88-.58-2.18-1.11-4.38-1.72-6.55A6.2,6.2,0,0,1,38,31.65a15,15,0,0,0,2.8-2.24,7.78,7.78,0,0,1,6.44-2.92c5.92-.12,10.7,2.43,14.66,6.71A7.89,7.89,0,0,1,64,39a21,21,0,0,1-1.27,6.29c-.26.76-.35,1.36.6,1.7a2,2,0,0,1,1.24,2.43c-.44,2.81-1.18,5.51-3.53,7.38A1.65,1.65,0,0,0,60.37,58a9.92,9.92,0,0,1-2.15,5.61c-.44.56-.89,1.16.33,1.31.8.1,1,.72,1.15,1.4a5.13,5.13,0,0,0,3.36,3.95c5.13,2.11,10.27,4.17,15.4,6.28a1.65,1.65,0,0,0,2.23-.6A40.07,40.07,0,0,0,89.71,46.27Z"
    transform="translate(-8.36 -7.7)"/><path
    class="cls-2"
    d="M50,7.95C27.11,7.95,8.64,26.67,8.61,49.87S27,92,49.92,92c24.49.6,41.54-21.08,41.41-41.94C91.2,26.73,72.88,7.95,50,7.95ZM77.18,79.68A38.88,38.88,0,0,1,51.67,90.57C40,90.42,30.6,86.66,22.52,79.39c-.24-.22-.46-.47-.71-.68-.94-.84-.66-1.29.41-1.68,4.29-1.56,8.56-3.16,12.83-4.75,1.12-.42,2.23-.87,3.32-1.34a4.19,4.19,0,0,0,2.52-2.65A1.79,1.79,0,0,1,43,66.78a1.05,1.05,0,0,0,1.14-.46c.29-.56-.1-.95-.43-1.3a12.47,12.47,0,0,1-3.51-7.63,2.17,2.17,0,0,0-1.08-1.75,7,7,0,0,1-2.5-6.35,1.54,1.54,0,0,1,1-1,2.12,2.12,0,0,0,1.14-2.76c-.59-2.35-1.14-4.71-1.82-7a4.91,4.91,0,0,1,1.87-5.68,27.08,27.08,0,0,0,4.1-3.46C44,28,45.82,27.88,47.44,27.9a17.47,17.47,0,0,1,13.63,6.61,6.92,6.92,0,0,1,1.43,5.74,35.47,35.47,0,0,1-1.31,5.11c-.36,1.18-.48,2.32,1.11,2.75a1.13,1.13,0,0,1,.8,1.55c-.58,2.28-1,4.68-3.24,6A1.89,1.89,0,0,0,59,57.41a10.59,10.59,0,0,1-3.15,6.88c-.38.42-1.06.79-.78,1.5s1.08.65,1.71.63a1.62,1.62,0,0,1,1.82,1.25,6.34,6.34,0,0,0,3.63,3.79c4.74,2.19,9.62,4,14.47,5.94C78.67,78.16,78.72,78.23,77.18,79.68Zm1.27-3.12c-5.13-2.11-10.27-4.17-15.4-6.28a5.13,5.13,0,0,1-3.36-3.95c-.13-.69-.35-1.3-1.15-1.4-1.22-.15-.78-.75-.33-1.31A9.92,9.92,0,0,0,60.37,58,1.65,1.65,0,0,1,61,56.75c2.36-1.87,3.09-4.57,3.53-7.38a2,2,0,0,0-1.24-2.43c-.95-.34-.86-.94-.6-1.7A21,21,0,0,0,64,39a7.89,7.89,0,0,0-2.1-5.74c-4-4.28-8.74-6.83-14.66-6.71a7.78,7.78,0,0,0-6.44,2.92A15,15,0,0,1,38,31.65a6.2,6.2,0,0,0-2.39,7.14c.61,2.17,1.14,4.37,1.72,6.55.22.85.12,1.51-.79,1.88a1.92,1.92,0,0,0-1.13,1.32c-.73,2.5.6,6.75,2.7,8.19a2.2,2.2,0,0,1,1,1.79A10.12,10.12,0,0,0,41.15,64c.51.63.67,1.12-.35,1.39-.76.21-.79,1-1,1.61a3.94,3.94,0,0,1-2.6,2.93c-5.46,2-10.91,4-16.34,6.1-1.24.48-1.79-.15-2.42-1A40.52,40.52,0,0,1,10,51c0-22,15.77-39.56,36.2-41.49C68.33,7.48,87.55,23.62,89.71,46.27a40.07,40.07,0,0,1-9,29.69A1.65,1.65,0,0,1,78.45,76.56Z"
    transform="translate(-8.36 -7.7)"/></svg>
