<svg id="Layer_1" data-name="Layer 1" xmlns="http://www.w3.org/2000/svg" viewBox="0 0 100 66"><defs><style>.cls-1{fill:#0b2e87;}.cls-2{fill:#0090e1;}.cls-3{fill:#19236c;}</style></defs><title>Untitled-3</title><path class="cls-1" d="M43.3,45.93c.17-1.12.32-2.25.49-3.37s.34-2.23.5-3.34.33-2.23.49-3.34.31-2.25.48-3.38l.5-3.36c.17-1.12.34-2.24.5-3.36.1-.66.17-1.32.27-2q.1-.66.18-1.32a3.22,3.22,0,0,1,.39-1.31,1.61,1.61,0,0,1,.83-.71,1.81,1.81,0,0,1,.58-.09h9.4l3.43,0a15.66,15.66,0,0,1,3,.27,6.79,6.79,0,0,1,2.31,1,16.26,16.26,0,0,0-.2-4.64,8.33,8.33,0,0,0-3.93-5.34,13.91,13.91,0,0,0-7-1.77c-5.11-.06-10.22,0-15.33,0a1.84,1.84,0,0,0-1.74,1.06,7.71,7.71,0,0,0-.5,2.42c-.16.91-.26,1.84-.39,2.75s-.3,2-.45,3l-.41,2.75c-.14.94-.28,1.89-.42,2.83s-.26,1.84-.39,2.75-.3,2-.45,3-.25,1.78-.39,2.67-.3,2-.45,3-.26,1.81-.39,2.71-.29,2-.44,3-.25,1.81-.39,2.71-.3,1.88-.44,2.83-.3,2-.44,3a2.28,2.28,0,0,0,.1,1.58c.2.25.38.53.74.54s.75.05,1.12,0h6.41c.36,0,.71.05,1.08,0a.61.61,0,0,0,.34-.11c.16-1,.33-2.1.48-3.15S43.14,47.06,43.3,45.93Z"/><path class="cls-2" d="M70.7,27.27a8.08,8.08,0,0,0-2.95-4.8,10.59,10.59,0,0,0-1.08-.81,20.75,20.75,0,0,1-.52,3.42,17,17,0,0,1-2.34,5.4,13.2,13.2,0,0,1-6.32,5.09,18.67,18.67,0,0,1-4.44,1c-2.13.27-4.27.09-6.4.14a2,2,0,0,0-2.18,1.84c-.21,1.12-.34,2.24-.51,3.37-.14.91-.27,1.83-.41,2.75s-.27,1.83-.41,2.75-.27,1.92-.42,2.87A14.37,14.37,0,0,0,42.5,52a.56.56,0,0,1-.17.45l0,.16c-.11.77-.21,1.54-.3,2.3,0,.36-.09.71-.14,1.07a2.1,2.1,0,0,0,.07,1.41,1.33,1.33,0,0,0,.39.4.65.65,0,0,0,.3.07l.4,0h7.33a1.69,1.69,0,0,0,1.4-.61s0-.09,0-.14c0-.28.08-.56.13-.83s.11-.74.15-1.12c.08-.78.13-1.57.25-2.35.17-1.14.34-2.27.51-3.41.14-1,.3-1.93.47-2.9A2.48,2.48,0,0,1,54,44.88a3.27,3.27,0,0,1,2.22-.33h.2l.81,0q.45,0,.9-.08l1.21-.17A11.59,11.59,0,0,0,60.79,44a16.34,16.34,0,0,0,2.91-1.19A11.9,11.9,0,0,0,66,41.41a10.74,10.74,0,0,0,1.61-1.67c.42-.53.82-1.08,1.19-1.65A16.71,16.71,0,0,0,70.28,34,16.14,16.14,0,0,0,70.7,27.27Z"/><path class="cls-3" d="M42.5,52a14.37,14.37,0,0,1,.23-1.69c.16-1,.28-1.92.42-2.87s.26-1.84.41-2.75.27-1.83.41-2.75c.18-1.12.3-2.25.51-3.37a2,2,0,0,1,2.18-1.84c2.13-.06,4.27.12,6.4-.14a18.67,18.67,0,0,0,4.44-1,13.2,13.2,0,0,0,6.32-5.09,17,17,0,0,0,2.34-5.4,20.75,20.75,0,0,0,.52-3.42,6.79,6.79,0,0,0-2.31-1,15.66,15.66,0,0,0-3-.27l-3.43,0h-9.4a1.81,1.81,0,0,0-.58.09,1.61,1.61,0,0,0-.83.71,3.22,3.22,0,0,0-.39,1.31q-.08.66-.18,1.32c-.1.66-.18,1.32-.27,2-.16,1.12-.33,2.24-.5,3.36l-.5,3.36c-.17,1.12-.32,2.25-.48,3.38s-.33,2.23-.49,3.34-.33,2.23-.5,3.34-.33,2.25-.49,3.37-.33,2.25-.49,3.38-.32,2.1-.48,3.15A.56.56,0,0,0,42.5,52Z"/></svg>