<svg id="Layer_1" data-name="Layer 1" xmlns="http://www.w3.org/2000/svg" viewBox="0 0 100 47"><defs><style>.cls-1{fill:#ea141b;}.cls-2,.cls-3{fill:#0089c6;}.cls-3{stroke:#0089c6;stroke-miterlimit:10;stroke-width:0.06px;}</style></defs><title>Untitled-3</title><path class="cls-1" d="M9.1,22.05c.08-.45.12-.9.23-1.35.42-1.7,1.5-2.5,3.33-2.86a3.71,3.71,0,0,1,.71,0h10.7a5.71,5.71,0,0,1,1.81.26,3.56,3.56,0,0,1,2.41,2.78,7.44,7.44,0,0,1,.19,1.72q0,4.38,0,8.76a7,7,0,0,1-.29,2.08,3.55,3.55,0,0,1-3,2.6A7.18,7.18,0,0,1,24,36.1H13.2a4.32,4.32,0,0,1-3-1.19A3.59,3.59,0,0,1,9.3,33c-.1-.4-.13-.8-.2-1.2Z"/><path class="cls-2" d="M51.38,24s0-.08,0-.12q0-1,0-2c0-.16,0-.16.16-.16h4.24a.76.76,0,0,0,.47-.14.52.52,0,0,0,.24-.48,3.23,3.23,0,0,1,0-.37c0-.09,0-.13-.12-.12h-2.8a2,2,0,0,1-1.11-.27,2.21,2.21,0,0,1-1.09-2q0-3.36,0-6.73c0-.12,0-.15.15-.15h2c.12,0,.15,0,.15.16q0,3,0,5.92a1.14,1.14,0,0,0,0,.36.5.5,0,0,0,.49.37h1.7a.64.64,0,0,0,.63-.65q0-3,0-6c0-.22,0-.2.21-.2h1.87c.12,0,.16,0,.16.16q0,5,0,9.94a2.87,2.87,0,0,1-.34,1.42,1.87,1.87,0,0,1-1.36,1l-.08,0Z"/><path class="cls-2" d="M63,20.56H60.63c-.13,0-.16,0-.16-.16q0-1,0-2c0-.12,0-.16.16-.16h3.85c.21,0,.43,0,.52-.27a.67.67,0,0,0-.11-.72.35.35,0,0,0-.29-.11h-1.9a2.29,2.29,0,0,1-1.9-1,1.52,1.52,0,0,1-.28-.92c0-.59,0-1.17,0-1.76a2.2,2.2,0,0,1,.28-1.12,1.81,1.81,0,0,1,1.38-.84,4.33,4.33,0,0,1,.69,0h4.29c.19,0,.19,0,.19.18,0,.66,0,1.32,0,2,0,.12,0,.16-.16.16H63.39a1.22,1.22,0,0,0-.39.05.38.38,0,0,0-.29.4c0,.45.14.61.59.62.65,0,1.3,0,2,0a2,2,0,0,1,2.08,2.08c0,.47,0,.94,0,1.42a2.17,2.17,0,0,1-.57,1.54,3.13,3.13,0,0,1-.3.31,1.48,1.48,0,0,1-.92.37l-.62,0Z"/><path class="cls-2" d="M78.14,15.21c0-1.65,0-3.3,0-4.94a2.11,2.11,0,0,1,1.81-2.16A5.14,5.14,0,0,1,80.89,8h1c.1,0,.14,0,.14.14q0,1,0,2c0,.12,0,.14-.15.14h-.77a.63.63,0,0,0-.67.7c0,.11,0,.22,0,.33s0,.13.13.13h1.29c.17,0,.17,0,.17.18,0,.66,0,1.33,0,2,0,.11,0,.16-.15.15H80.56c-.17,0-.17,0-.17.17q0,3.2,0,6.41c0,.26,0,.23-.23.23H78.29c-.12,0-.16,0-.16-.16Q78.14,17.81,78.14,15.21Z"/><path class="cls-1" d="M28,17.92c-.07,0-.1,0-.14-.08a4.85,4.85,0,0,0-2.12-1,.32.32,0,0,1-.29-.27,6.82,6.82,0,0,0-13.26,0,.35.35,0,0,1-.29.3,5.86,5.86,0,0,0-2,1c-.06,0-.11.12-.2.12a9.28,9.28,0,0,1,4-8.48,9.15,9.15,0,0,1,10.25-.05A9.36,9.36,0,0,1,28,17.92Z"/><path class="cls-3" d="M60.87,31.32c0-.75,0-1.51,0-2.26a2.08,2.08,0,0,1,.43-1.35,2,2,0,0,1,1.47-.79l.66,0h3.1c.17,0,.17,0,.17.18s0,.19,0,.28,0,.09-.09.09H63.27a2.92,2.92,0,0,0-.85.13,1.31,1.31,0,0,0-1,1.14,3.31,3.31,0,0,0,0,.52q0,2.09,0,4.19a3.08,3.08,0,0,0,.08.73A1.64,1.64,0,0,0,63,35.5a5.41,5.41,0,0,0,.68,0h2.91c.17,0,.17,0,.17.18,0,.37,0,.37-.36.37H63.51a4.49,4.49,0,0,1-.85-.07A2.06,2.06,0,0,1,61,34.38a3.31,3.31,0,0,1-.09-.83C60.87,32.8,60.87,32.06,60.87,31.32Z"/><path class="cls-3" d="M78.74,32.61c0-1.08,0-2.16,0-3.25a3.51,3.51,0,0,1,.11-.91A1.93,1.93,0,0,1,80.41,27a6,6,0,0,1,1.32-.08c.06,0,.09,0,.09.09s0,.22,0,.33,0,.13-.12.13c-.27,0-.54,0-.82,0a1.61,1.61,0,0,0-1.57,1.63c0,.17,0,.35,0,.52q0,3.14,0,6.27c0,.19,0,.19-.19.19-.35,0-.35,0-.35-.34Z"/><path class="cls-2" d="M40.35,13.7a3.18,3.18,0,0,0-.11-.84,1.76,1.76,0,0,0-1.43-1.36,3.29,3.29,0,0,0-.67-.06h-3a2.41,2.41,0,0,0-1.36.42,1.34,1.34,0,0,0-.46.53A3.16,3.16,0,0,0,33,13.85Q33,18.9,33,24h2.25q0-1.62,0-3.24c0-.16,0-.16.16-.16h2.7l.41,0a2.19,2.19,0,0,0,1.86-2C40.34,16.9,40.35,15.3,40.35,13.7ZM38.1,17.61a.59.59,0,0,1-.64.64h-1.6a.61.61,0,0,1-.65-.65q0-1.6,0-3.2a.6.6,0,0,1,.67-.64h1.68a.47.47,0,0,1,.52.5c0,.58,0,1.16,0,1.73h0Q38.1,16.8,38.1,17.61Z"/><path class="cls-2" d="M49.55,13.64a3.21,3.21,0,0,0-.05-.59,1.77,1.77,0,0,0-1.37-1.5,3.33,3.33,0,0,0-.86-.11H42.35c-.12,0-.16,0-.16.16,0,.66,0,1.33,0,2,0,.17,0,.17.18.17h4.4c.4,0,.56.16.56.56,0,.17,0,.17-.17.17H44.37a3.34,3.34,0,0,0-.52,0,2,2,0,0,0-1.11.49,2,2,0,0,0-.56,1.34c0,.71,0,1.42,0,2.12a3.06,3.06,0,0,0,0,.5,1.71,1.71,0,0,0,1.31,1.48,3.22,3.22,0,0,0,.87.12c1.06,0,2.12,0,3.19,0a1.88,1.88,0,0,0,1.76-1.11,2.22,2.22,0,0,0,.23-1c0-.81,0-1.62,0-2.43S49.54,14.43,49.55,13.64Zm-2.24,4.2a.41.41,0,0,1-.32.37.81.81,0,0,1-.23,0H45a.64.64,0,0,1-.37-.11.44.44,0,0,1-.21-.41c0-.22,0-.43,0-.65s.13-.44.45-.44h1.91a.47.47,0,0,1,.53.5A4.1,4.1,0,0,1,47.31,17.84Z"/><path class="cls-2" d="M76.31,16q0-1.16,0-2.32a4.28,4.28,0,0,0,0-.5,1.8,1.8,0,0,0-1.42-1.63,3.34,3.34,0,0,0-.82-.1H69.11c-.12,0-.15,0-.15.15,0,.67,0,1.33,0,2,0,.17,0,.17.17.17h4.41c.4,0,.56.16.55.55,0,.17,0,.17-.18.17h-2.8a3.76,3.76,0,0,0-.51,0A1.77,1.77,0,0,0,69,16a2.92,2.92,0,0,0-.06.62q0,.93,0,1.86a3.17,3.17,0,0,0,0,.45,1.72,1.72,0,0,0,1.3,1.53,3.22,3.22,0,0,0,.9.13h3.16a1.85,1.85,0,0,0,1.16-.37,2.11,2.11,0,0,0,.83-1.73C76.32,17.63,76.31,16.81,76.31,16Zm-2.77,2.26H71.74a.64.64,0,0,1-.47-.22.31.31,0,0,1-.09-.22c0-.24,0-.48,0-.72s.14-.44.46-.45h1.92a.48.48,0,0,1,.52.55c0,.17,0,.34,0,.51C74.09,18.07,73.92,18.24,73.54,18.24Z"/><path class="cls-2" d="M90.63,18.46c0-.25,0-.22-.22-.22H86.08a.32.32,0,0,1-.26-.08.82.82,0,0,1-.24-.51.22.22,0,0,1,.17-.26l4.75-1.86a.19.19,0,0,0,.15-.21c0-.55,0-1.09,0-1.64a3.79,3.79,0,0,0-.05-.62,1.77,1.77,0,0,0-1.43-1.56,3.15,3.15,0,0,0-.71-.08H85.63a4.7,4.7,0,0,0-.67,0A1.78,1.78,0,0,0,83.35,13a5.66,5.66,0,0,0,0,1c0,1.35,0,2.7,0,4.05a5.53,5.53,0,0,0,0,.73,2,2,0,0,0,1.46,1.62,3.57,3.57,0,0,0,.82.09h4.82c.13,0,.16,0,.16-.16C90.63,19.75,90.63,19.11,90.63,18.46Zm-5.08-3.35c0-.22,0-.44,0-.66a.68.68,0,0,1,.69-.7h1.61a.6.6,0,0,1,.37.11.33.33,0,0,1,.12.18.14.14,0,0,1-.1.21l-2.56,1C85.55,15.25,85.54,15.25,85.54,15.11Z"/><path class="cls-3" d="M90.73,24c-.08-.08-.23,0-.35,0s-.16,0-.16.16q0,1.32,0,2.65c0,.17,0,.17-.17.17H85.93a3.88,3.88,0,0,0-.79.08,2,2,0,0,0-1.61,1.31,3,3,0,0,0-.2,1.06c0,1.42,0,2.83,0,4.25a3.25,3.25,0,0,0,.13,1A2,2,0,0,0,84.86,36a3.23,3.23,0,0,0,.92.11h2.37a3.88,3.88,0,0,0,.76-.07,2.07,2.07,0,0,0,1.72-1.55,3.5,3.5,0,0,0,.13-1q0-2.32,0-4.64t0-4.57C90.75,24.19,90.81,24,90.73,24Zm-.52,6.61q0,1.45,0,2.89a3.19,3.19,0,0,1-.06.57,1.63,1.63,0,0,1-1,1.25,2.79,2.79,0,0,1-1.16.26H85.73a2.83,2.83,0,0,1-.95-.21,1.33,1.33,0,0,1-.89-1.19,4,4,0,0,1,0-.5c0-1.42,0-2.84,0-4.26a1.9,1.9,0,0,1,.5-1.33,1.78,1.78,0,0,1,1.25-.58c.23,0,.45,0,.68,0h3.76c.12,0,.16,0,.16.16C90.21,28.59,90.22,29.58,90.22,30.57Z"/><path class="cls-3" d="M76.09,29.37a2.82,2.82,0,0,0-.64-1.8,1.5,1.5,0,0,0-.92-.58,5,5,0,0,0-.89-.08H68.87c-.07,0-.1,0-.09.09a2.54,2.54,0,0,1,0,.29c0,.12,0,.16.16.16h4.81a2,2,0,0,1,.86.15,1.71,1.71,0,0,1,.85,1,3.2,3.2,0,0,1,.12,1.16c0,.17,0,.17-.17.17H71.31a4.62,4.62,0,0,0-.61,0,2.16,2.16,0,0,0-1.34.61A2.22,2.22,0,0,0,68.78,32c-.05.63,0,1.25,0,1.88a2.12,2.12,0,0,0,.42,1.29,2.3,2.3,0,0,0,1.91.9h2.8a2.3,2.3,0,0,0,.39,0A2.05,2.05,0,0,0,76.07,34C76.09,32.43,76.09,30.9,76.09,29.37Zm-.55,4.54a1.9,1.9,0,0,1-.19.83,1.39,1.39,0,0,1-1.11.77,2.25,2.25,0,0,1-.38,0c-1,0-1.93,0-2.89,0a1.88,1.88,0,0,1-1.38-.69,1.25,1.25,0,0,1-.27-.82c0-.65,0-1.29,0-1.94A1.61,1.61,0,0,1,71,30.5c.73,0,1.46,0,2.2,0h2.2c.12,0,.16,0,.16.16C75.54,31.73,75.55,32.82,75.54,33.91Z"/></svg>