<svg id="Layer_1" data-name="Layer 1" xmlns="http://www.w3.org/2000/svg" viewBox="0 0 51.87 76.44"><defs><style>.cls-1{fill:#ffbd0c;}</style></defs><title>Untitled-5</title><path class="cls-1" d="M77,82.29a1.86,1.86,0,0,0-.88-1.75,5.59,5.59,0,0,0-1.34-.71.88.88,0,0,1-.66-1c-.09-1.6-.17-3.21-.36-4.81-.59-5.05-2.33-9.62-6-13.26-1.9-1.88-4-3.61-5.95-5.41-1.08-1-2.19-1.92-3.2-3s-1.13-2,0-3.19a29.18,29.18,0,0,1,2.21-2.12c2.13-1.91,4.33-3.74,6.41-5.7A19.4,19.4,0,0,0,73,31.13a77.43,77.43,0,0,0,1-7.88c.08-.81.21-1.31,1.09-1.62A2.41,2.41,0,0,0,77,18.84a7.09,7.09,0,0,1,0-1.61,2,2,0,0,0-1.22-2.11,9.85,9.85,0,0,0-2.78-1c-3.48-.48-7-1-10.48-1.2a186.37,186.37,0,0,0-29.76.56,17.66,17.66,0,0,0-6.25,1.64,2.2,2.2,0,0,0-1.31,2.14c0,.64.05,1.28,0,1.91a2.21,2.21,0,0,0,1.25,2.19c.37.22.81.33,1.16.57a1.06,1.06,0,0,1,.46.65c.14,1.55.18,3.11.35,4.66a22,22,0,0,0,6.66,14.25c1.67,1.58,3.43,3.05,5.13,4.6,1.25,1.13,2.52,2.24,3.67,3.47a1.62,1.62,0,0,1,0,2.58,34.65,34.65,0,0,1-2.74,2.67c-2,1.85-4.18,3.61-6.17,5.51a20.45,20.45,0,0,0-5.83,10.15,37.14,37.14,0,0,0-1,8.26,1.13,1.13,0,0,1-.8,1.24c-1.93.78-2.16,1.19-2.13,3.29a4.4,4.4,0,0,1,0,.61,2.64,2.64,0,0,0,2.11,3.1,35.29,35.29,0,0,0,5.43,1.23A146.29,146.29,0,0,0,52.13,89c1.92,0,3.84.1,5.74,0,4.53-.29,9.06-.62,13.58-1.09a16.39,16.39,0,0,0,4.14-1.25A2.1,2.1,0,0,0,77,84.28,13.24,13.24,0,0,1,77,82.29Zm-7-3.56c-.1,2.26-1.69,3.05-3.54,3.36-2.76.45-5.55.85-8.34,1A103.83,103.83,0,0,1,42,83,64.29,64.29,0,0,1,35.41,82c-2.06-.4-2.7-1.22-2.95-3.33l-1.54.14c.14-1.69.27-3.34.43-5a18.2,18.2,0,0,1,6-11.87c2.73-2.54,5.51-5,8.25-7.55a4.71,4.71,0,0,0,1.26-5.56,6.1,6.1,0,0,0-1.36-1.81c-2.72-2.55-5.49-5-8.24-7.56a19.16,19.16,0,0,1-6.16-13.89c0-.94-.11-1.87-.16-2.8a196.85,196.85,0,0,0,40.24,0c-.07,1.12-.14,2.23-.21,3.34A18.68,18.68,0,0,1,65.31,39.1c-.81.78-1.59,1.59-2.42,2.34-2.06,1.88-4.13,3.73-6.2,5.59a4.83,4.83,0,0,0,0,7.6Q61,58.49,65.16,62.4A18.6,18.6,0,0,1,71,75.49c.06,1.09.14,2.18.21,3.35Z" transform="translate(-25.14 -12.56)"/><path class="cls-1" d="M66.76,78.12A52.74,52.74,0,0,0,52.28,64a1.9,1.9,0,0,0-2.38,0A54.25,54.25,0,0,0,38.06,74.54c-1,1.23-1.91,2.58-2.82,3.91-.45.67-.33.92.45,1.13.54.15,1.09.26,1.64.35a96.29,96.29,0,0,0,14.87.94c1.8-.08,4.81-.14,7.81-.38a62,62,0,0,0,6.2-.89C67.37,79.39,67.43,79.08,66.76,78.12Z" transform="translate(-25.14 -12.56)"/><path class="cls-1" d="M61,33.09c-2.19.34-4.37.78-6.57.94a42.65,42.65,0,0,1-12.93-.86,1.52,1.52,0,0,0-1.72.45,1.35,1.35,0,0,0,0,1.77,24.48,24.48,0,0,0,3,3.81c2.38,2.1,5,4,7.48,5.95a1.39,1.39,0,0,0,1.83-.09c1.71-1.29,3.44-2.56,5.13-3.87a19.48,19.48,0,0,0,5.16-5.68,6.45,6.45,0,0,0,.35-.8A1.48,1.48,0,0,0,61,33.09Z" transform="translate(-25.14 -12.56)"/></svg>