<svg id="Layer_1" data-name="Layer 1" xmlns="http://www.w3.org/2000/svg" viewBox="0 0 100 100"><defs><style>.cls-1{fill:none;stroke:#000;stroke-linecap:round;stroke-linejoin:round;stroke-width:2px;}</style></defs><title>phone-no_icon</title><path class="cls-1" d="M36.16,25.31c-3.67,1.77-5.74,5.13-7.93,8.29a4.69,4.69,0,0,0-.5,3.44,52.35,52.35,0,0,0,9.46,19.24c6.32,8.14,15.26,12.32,24.74,15.43a4.6,4.6,0,0,0,5-1.12c2-2.15,4.32-4,6.45-6,1.26-1.2,1-2.72.23-4A19,19,0,0,0,65.9,53.3c-1.58-.82-4-.87-5,1-.43.83-1.21,1.47-1.71,2.27-1.94,3.06-4.58,3.94-7.2,1.67A109.27,109.27,0,0,1,41.22,47.49c-2.26-2.6-1.38-5.27,1.68-7.2.7-.44,1.33-1,2-1.49,1.85-1.36,2.4-2.18,1.22-5a14.92,14.92,0,0,0-7.72-8,11.46,11.46,0,0,0-2-.52"/></svg>