<svg id="Layer_1" data-name="Layer 1" xmlns="http://www.w3.org/2000/svg" viewBox="0 0 69.15 46.94"><title>refund_icon</title><path d="M23.05,50.26c3.77,4,7.52,8.27,11,12,1.24,1.34,2.67,2.9.78,4.52s-3.2.1-4.47-1.29c-4.57-5-9.08-10-13.82-14.84-2.17-2.21-1.93-3.72.11-5.82,4.79-4.92,9.37-10,14-15.08,1.18-1.27,2.5-2.56,4.19-.9s.54,3-.66,4.29c-3.52,3.79-7,7.59-11.27,12.17H27.3c12.86,0,28.38,0,41.24,0,6.61,0,11.62,2.79,14.28,8.94,2.54,5.86,1.37,11.31-2.83,16.05A14.15,14.15,0,0,1,69,75c-6,0-5.32,0-11.3,0-1.84,0-3.86-.06-3.79-2.57.06-2.34,2-2.26,3.7-2.27,6.1,0,5.54.08,11.64,0a9.89,9.89,0,0,0,9.53-7A9.71,9.71,0,0,0,74.85,52a11.61,11.61,0,0,0-5.6-1.68c-13.63-.14-29.93-.09-43.57-.06C25,50.29,25.65,50.26,23.05,50.26Z" transform="translate(-15 -28.06)"/></svg>