<svg id="Layer_1" data-name="Layer 1" xmlns="http://www.w3.org/2000/svg" viewBox="0 0 100 42"><defs><style>.cls-1{fill:#f3811f;}.cls-2{fill:#383a41;}</style></defs><title>Untitled-3</title><path class="cls-1" d="M8.63,22.81l.38-1c.29-.8.59-1.59.87-2.39a.29.29,0,0,1,.33-.23h8.16A8.3,8.3,0,0,0,19.76,19a1,1,0,0,0,.85-1,.68.68,0,0,0-.42-.71,9.31,9.31,0,0,0-1-.35,5.54,5.54,0,0,1-1.91-.8,2.15,2.15,0,0,1-1-1.54,3.59,3.59,0,0,1,.1-1.13A8.77,8.77,0,0,1,18,10.08a4.32,4.32,0,0,1,3-1.6c.77-.08,1.54-.1,2.31-.11,2.59,0,5.18,0,7.77,0h.24l-.15.12A11.78,11.78,0,0,0,28,11.58a.35.35,0,0,1-.32.17c-1.66,0-3.31,0-5,0a3,3,0,0,0-.94.16.89.89,0,0,0-.64,1,.85.85,0,0,0,.64.69c.58.18,1.16.34,1.73.53a3,3,0,0,1,1.39.92,2.32,2.32,0,0,1,.53,1.75,6.64,6.64,0,0,1-1.7,3.95,6.07,6.07,0,0,1-3.24,1.78,11.11,11.11,0,0,1-2.46.25H8.63Z"/><path class="cls-1" d="M45.62,14.14h3.87l-.21.59c-.26.72-.53,1.45-.79,2.17a.29.29,0,0,1-.32.23H44.74a.29.29,0,0,0-.33.23c-.63,1.75-1.27,3.5-1.9,5.25a.26.26,0,0,1-.3.21H38.09l.07-.21c1.32-3.62,2.63-7.25,4-10.86a4.75,4.75,0,0,1,3.46-3.2,7.08,7.08,0,0,1,1.59-.17c2.67,0,5.35,0,8,0h.14l0,0-.21.14a12.2,12.2,0,0,0-3.31,3.08.38.38,0,0,1-.28.12H47.33a1,1,0,0,0-1.17.82l-.47,1.33C45.67,14,45.65,14,45.62,14.14Z"/><path class="cls-1" d="M80.73,11.77l-.31,0H78.28c-.17,0-.23,0-.22-.22a3.58,3.58,0,0,0-1.22-3.1s0,0,0,0H91.08c0,.08,0,.15-.06.22-.35,1-.71,1.94-1.06,2.92a.29.29,0,0,1-.33.23H85a.36.36,0,0,0-.4.28q-1.92,5.29-3.84,10.57a.26.26,0,0,1-.29.22H76.71Z"/><path class="cls-2" d="M38.4,33.25l.12-.19c1-1.69,2-3.38,3.06-5.08a.76.76,0,0,1,.73-.45h.77c.19,0,.27.1.25.3q-.18,1.5-.35,3l-.26,2.28s0,.09,0,.19l.14-.22q1.55-2.61,3.1-5.22a.6.6,0,0,1,.57-.35h.73c.17,0,.22.1.14.25s-.16.29-.25.44c-1.26,2-2.53,4-3.78,6a.94.94,0,0,1-.87.5l-1,0c-.2,0-.28-.12-.26-.32.08-.7.16-1.4.23-2.09s.18-1.63.23-2.46l-.12.18c-.85,1.41-1.71,2.82-2.55,4.24a.89.89,0,0,1-.85.49c-.33,0-.67,0-1,0s-.32-.09-.29-.37c.07-.72.15-1.44.22-2.16q.18-1.71.36-3.42c0-.31.07-.62.12-.93a.33.33,0,0,1,.34-.3h1c.16,0,.22.08.19.24-.18,1.32-.36,2.65-.54,4l-.2,1.48Z"/><path class="cls-2" d="M73.11,29.22l-.08.2c-.6,1.68-1.2,3.36-1.81,5a.43.43,0,0,1-.27.25,3.72,3.72,0,0,1-.83,0c-.24,0-.27-.08-.19-.32l1.35-3.72.92-2.53a.8.8,0,0,1,.89-.63h.71c.43,0,.58.14.66.55q.27,1.54.51,3.08c.08.49.13,1,.2,1.54,0-.09.07-.14.09-.2.55-1.54,1.11-3.09,1.65-4.63a.46.46,0,0,1,.44-.35,5.7,5.7,0,0,1,.71,0c.21,0,.25.09.18.29l-2.32,6.36a.74.74,0,0,1-.73.53c-.25,0-.5,0-.75,0a.5.5,0,0,1-.54-.47c-.08-.38-.14-.77-.2-1.15-.16-1-.33-2-.49-3,0-.3-.06-.6-.09-.9Z"/><path class="cls-2" d="M83.26,31.76H82c-.24,0-.27,0-.22-.27,0,0,0-.07,0-.1.19-.66.27-.72,1-.72h1.82c.36,0,.46.13.33.47-.34,1-.69,1.91-1,2.86a.77.77,0,0,1-.52.49,6.46,6.46,0,0,1-3.15.29,1.94,1.94,0,0,1-1.73-2.37A5.62,5.62,0,0,1,82,27.79a4.73,4.73,0,0,1,3.23-.16,2.81,2.81,0,0,1,.49.23.36.36,0,0,1,.19.47,7.92,7.92,0,0,1-.31.77.2.2,0,0,1-.34.08,3.15,3.15,0,0,0-4.48,1A4.4,4.4,0,0,0,80.06,32a1.32,1.32,0,0,0,1.25,1.61,2.33,2.33,0,0,0,1.19-.15c.06,0,.14-.06.16-.12C82.86,32.85,83.05,32.32,83.26,31.76Z"/><path class="cls-2" d="M64.74,34.89c-.31,0-.62-.06-.93-.12A1.43,1.43,0,0,1,62.63,33a11.7,11.7,0,0,1,.47-1.53c.42-1.18.86-2.36,1.28-3.55a.41.41,0,0,1,.39-.31,7.8,7.8,0,0,1,.87,0c.24,0,.27.09.19.31-.49,1.34-1,2.67-1.46,4a3.45,3.45,0,0,0-.2.93.76.76,0,0,0,.71.83,2,2,0,0,0,2-.79,3.46,3.46,0,0,0,.47-.88c.51-1.37,1-2.74,1.5-4.11a.39.39,0,0,1,.35-.31c.31,0,.62,0,.94,0,.16,0,.23.09.17.27-.55,1.49-1.07,3-1.64,4.46A4,4,0,0,1,64.74,34.89Z"/><path class="cls-2" d="M10.7,34.9a8.81,8.81,0,0,1-1.12-.21,1.34,1.34,0,0,1-1-1.54,5.45,5.45,0,0,1,.26-1.09c.49-1.4,1-2.78,1.51-4.18a.43.43,0,0,1,.41-.33,7.91,7.91,0,0,1,.83,0c.27,0,.3.08.21.33-.49,1.35-1,2.7-1.47,4.06a3.13,3.13,0,0,0-.18.83.8.8,0,0,0,.74.88,2.07,2.07,0,0,0,2.27-1.32c.3-.69.53-1.4.79-2.11s.57-1.57.85-2.35a.4.4,0,0,1,.37-.31,8.45,8.45,0,0,1,.89,0c.21,0,.25.08.18.27-.54,1.49-1.06,3-1.64,4.46a3.82,3.82,0,0,1-2.83,2.45C11.47,34.82,11.12,34.84,10.7,34.9Z"/><path class="cls-2" d="M25.77,30.46h2.08c.18,0,.23.08.19.23a6.9,6.9,0,0,1-.25.66.34.34,0,0,1-.35.2H25.57a.26.26,0,0,0-.3.2c-.19.55-.4,1.1-.59,1.65,0,.06,0,.12-.06.21h2.45c.23,0,.27,0,.22.27a1.77,1.77,0,0,1-.08.26c-.2.58-.23.59-.83.59H23.26c-.37,0-.46-.12-.33-.46L25.2,28a.62.62,0,0,1,.66-.47h3.4c.21,0,.24,0,.2.25a1.52,1.52,0,0,1,0,.18c-.21.67-.24.69-.94.69h-1.9a.23.23,0,0,0-.26.18c-.16.47-.34.94-.51,1.41C25.8,30.32,25.79,30.37,25.77,30.46Z"/><path class="cls-2" d="M49.37,30.46h2.08c.17,0,.24.07.19.22a4.28,4.28,0,0,1-.28.71.41.41,0,0,1-.31.15c-.63,0-1.27,0-1.9,0a.22.22,0,0,0-.26.18c-.2.57-.41,1.14-.62,1.71l-.05.17h2.47c.21,0,.26.05.21.26,0,.05,0,.11,0,.16-.21.67-.25.7-.94.7h-3c-.38,0-.46-.12-.33-.48L48.82,28a.63.63,0,0,1,.68-.47h3.38c.21,0,.25,0,.21.25a1.48,1.48,0,0,1,0,.16c-.2.67-.26.72-.95.72h-1.9a.23.23,0,0,0-.26.18C49.77,29.38,49.58,29.9,49.37,30.46Z"/><path class="cls-2" d="M57.58,34.84a2.7,2.7,0,0,1-1.37-.27c-.37-.19-.42-.31-.29-.7a4,4,0,0,1,.23-.56c.12-.23.24-.25.45-.09a2.15,2.15,0,0,0,2,.39,1.31,1.31,0,0,0,.89-.82.56.56,0,0,0-.15-.68,4.29,4.29,0,0,0-.53-.36c-.24-.15-.5-.27-.73-.44a1.28,1.28,0,0,1-.54-1.48,3.16,3.16,0,0,1,2.75-2.36,3.23,3.23,0,0,1,1.56.16c.46.18.5.27.34.73a4.22,4.22,0,0,1-.19.48c-.11.23-.21.25-.43.11a1.9,1.9,0,0,0-1.48-.36,1.17,1.17,0,0,0-.91.71.58.58,0,0,0,.2.76c.19.14.4.25.6.37s.43.24.63.37a1.26,1.26,0,0,1,.54,1.51,3.39,3.39,0,0,1-2.67,2.45,3.18,3.18,0,0,1-.47.08C57.86,34.85,57.72,34.84,57.58,34.84Z"/><path class="cls-2" d="M53.13,34.78l-.45,0c-.18,0-.23-.11-.17-.29.23-.62.46-1.25.69-1.88.57-1.56,1.14-3.12,1.7-4.68a.42.42,0,0,1,.38-.33,8.21,8.21,0,0,1,.91,0c.21,0,.24.09.17.29L54,34.46a.38.38,0,0,1-.33.27Z"/><path class="cls-2" d="M12.9,25.55c.59,0,.69.15.53.64s-.54.81-1.31.69a.25.25,0,0,1-.22-.33,3,3,0,0,1,.27-.67A.78.78,0,0,1,12.9,25.55Z"/><path class="cls-2" d="M15.32,25.55c.61,0,.71.16.54.65s-.59.8-1.32.67a.24.24,0,0,1-.21-.32,3.14,3.14,0,0,1,.25-.65A.77.77,0,0,1,15.32,25.55Z"/><path class="cls-1" d="M76.85,10.73a2.45,2.45,0,0,0-1.48-1.84A5.65,5.65,0,0,0,73,8.39c-1.76,0-3.52,0-5.28,0a.29.29,0,0,0-.33.23L62.49,22.13l-.24.68h4.2a.28.28,0,0,0,.31-.23q.86-2.31,1.74-4.62l.12-.27c0,.13.07.2.09.28.36,1.52.73,3,1.08,4.55,0,.21.12.29.35.29,1.38,0,2.76,0,4.13,0h.26a29,29,0,0,0-2-6.16c.35-.17.7-.31,1-.48a6,6,0,0,0,3.1-3.47A4,4,0,0,0,76.85,10.73Zm-4.1,1.68A2.7,2.7,0,0,1,71,14.68a4.47,4.47,0,0,1-1.08.18c-.27,0-.54,0-.84,0,0-.1.05-.17.08-.24.38-1,.77-2.05,1.14-3.08a.27.27,0,0,1,.31-.22c.42,0,.84,0,1.25.06C72.49,11.46,72.87,11.72,72.75,12.41Z"/><path class="cls-1" d="M64.21,11.27A3.31,3.31,0,0,0,62,8.5a6.43,6.43,0,0,0-3.82-.14A8.62,8.62,0,0,0,53.88,11a13.69,13.69,0,0,0-3,5.26,7.56,7.56,0,0,0-.41,3.65A3.44,3.44,0,0,0,52,22.33a5.37,5.37,0,0,0,2.85.74c.49-.05,1-.08,1.47-.16A7.84,7.84,0,0,0,61.11,20a15.7,15.7,0,0,0,2.68-5.1A7.51,7.51,0,0,0,64.21,11.27Zm-4.29,2.55a18.07,18.07,0,0,1-1.79,4.45,5.08,5.08,0,0,1-.67.87,2,2,0,0,1-1.59.66,3,3,0,0,1-.37,0,1,1,0,0,1-.94-1.13,5.72,5.72,0,0,1,.29-1.78,14.87,14.87,0,0,1,1.51-3.62,4.85,4.85,0,0,1,1.21-1.39,2.21,2.21,0,0,1,1.71-.44.92.92,0,0,1,.85,1A6.13,6.13,0,0,1,59.92,13.81Z"/><path class="cls-1" d="M40.19,11.44a3.34,3.34,0,0,0-1.94-2.82,6,6,0,0,0-3.7-.33,8.24,8.24,0,0,0-4.27,2.25,13.31,13.31,0,0,0-3.35,5.36,8.14,8.14,0,0,0-.54,3.88,3.42,3.42,0,0,0,1.85,2.71,5.26,5.26,0,0,0,2.57.54,7.64,7.64,0,0,0,2.49-.38,8.39,8.39,0,0,0,4.09-3.1,16.1,16.1,0,0,0,2.17-4.14A8.45,8.45,0,0,0,40.19,11.44Zm-4.11,1.14a5.82,5.82,0,0,1-.34,1.75,17.76,17.76,0,0,1-1.64,3.93,4.89,4.89,0,0,1-.84,1,2.11,2.11,0,0,1-2,.45,1,1,0,0,1-.77-.9,4.24,4.24,0,0,1,.17-1.58,14.94,14.94,0,0,1,1.63-4,4.63,4.63,0,0,1,1.25-1.41,2.19,2.19,0,0,1,1.66-.39.92.92,0,0,1,.83,1C36.08,12.44,36.08,12.51,36.08,12.58Z"/><path class="cls-2" d="M22,27.77a2.32,2.32,0,0,0-.75-.17c-.79,0-1.59,0-2.38,0a.63.63,0,0,0-.63.46L16,34.28c-.12.33,0,.45.33.45.65,0,1.31,0,2,0a5.55,5.55,0,0,0,1.11-.13,3.1,3.1,0,0,0,2.44-2.15,1.79,1.79,0,0,0,.06-.76c-.07-.46-.4-.69-.87-.82l.2-.1A2.4,2.4,0,0,0,22.68,29,1,1,0,0,0,22,27.77Zm-1.73,4.81a1.38,1.38,0,0,1-1.15,1,11,11,0,0,1-1.5,0c.24-.65.47-1.29.71-1.93a.2.2,0,0,1,.16-.09c.37,0,.75,0,1.12,0A.67.67,0,0,1,20.32,32.58Zm.79-3.21a1.43,1.43,0,0,1-1.37,1.14H18.8l.51-1.39c.18-.49.18-.5.7-.49a4.61,4.61,0,0,1,.62,0A.53.53,0,0,1,21.11,29.38Z"/><path class="cls-2" d="M34.94,27.71a2.12,2.12,0,0,0-.59-.12c-.83,0-1.65,0-2.48,0a.63.63,0,0,0-.63.46l-2.35,6.46c-.06.17,0,.25.15.25.32,0,.64,0,1,0a.38.38,0,0,0,.36-.3c.26-.75.54-1.49.81-2.23.15-.41.15-.41.59-.4s.73.2.77.69c.05.66.09,1.32.11,2,0,.21.11.29.29.29s.51,0,.77,0c.45,0,.54-.11.52-.56s-.07-1.07-.1-1.6a1.42,1.42,0,0,0-.54-1.21l.28-.1a2.89,2.89,0,0,0,1.89-2.14A1.11,1.11,0,0,0,34.94,27.71Zm-.78,1.67a1.46,1.46,0,0,1-.89,1.17,3.68,3.68,0,0,1-1.55.16c0-.09,0-.16.07-.22.2-.55.41-1.09.59-1.64a.24.24,0,0,1,.28-.19c.34,0,.68,0,1,.06A.52.52,0,0,1,34.16,29.38Z"/></svg>