<svg id="Layer_1" data-name="Layer 1" xmlns="http://www.w3.org/2000/svg" viewBox="0 0 100 100"><title>technical-contact_icon</title><path d="M53,25a25.69,25.69,0,0,1,2.78.55c5.57,1.73,9.17,5.36,10.43,11.11a22.1,22.1,0,0,1,.26,3.62c0,.31,0,.49.42.58a2.4,2.4,0,0,1,1.7,2.41,41.84,41.84,0,0,1-.23,4.21,2.37,2.37,0,0,1-2.67,2.25.6.6,0,0,0-.47.22,13.44,13.44,0,0,1-4.36,3.76,1.19,1.19,0,0,0-.38.41c-.42.67-.8,1.36-1.26,2a2.14,2.14,0,0,0-.42,1.37c0,.95.07,1.89.09,2.84a2,2,0,0,0,.89,1.7,15.86,15.86,0,0,0,2.3,1.26c1.88.78,3.8,1.46,5.67,2.24a17.75,17.75,0,0,1,4.66,2.75c2.8,2.36,3.67,5.46,3.32,9-.11,1.08-.58,1.47-1.67,1.64a4,4,0,0,0-.4.1H30.26a2.92,2.92,0,0,0-.35-.1c-1.2-.18-1.65-.6-1.74-1.8-.32-4,.93-7.29,4.36-9.6a35.72,35.72,0,0,1,7.66-3.58c1.07-.4,2.12-.84,3.14-1.34a2.68,2.68,0,0,0,1.74-2.64,5,5,0,0,1,.05-.68,5.54,5.54,0,0,0-1.07-4.19,9.4,9.4,0,0,1-1.77-5.43,3.6,3.6,0,0,0-.43-1.48A8,8,0,0,1,41,42.4a9.73,9.73,0,0,0,.31-3,11.91,11.91,0,0,1,.65-4.51,9.08,9.08,0,0,1,7.45-6.29,13.83,13.83,0,0,1,6.27.24c3.78,1.06,5.9,3.66,6.77,7.4a19.86,19.86,0,0,1,.24,4.67,2.32,2.32,0,0,0,.19.91A6.33,6.33,0,0,1,63,45.51a7.28,7.28,0,0,1-1.14,3.09.53.53,0,0,0-.09.24c-.09.8-.17,1.59-.26,2.49a10.6,10.6,0,0,0,2.29-2.26.67.67,0,0,0,.08-.35q.18-3.4.34-6.79a1.25,1.25,0,0,1,.47-1.11.52.52,0,0,0,.15-.36,12.9,12.9,0,0,0-25.59-3,26,26,0,0,0-.14,3c0,.11,0,.28.1.33.46.29.46.76.48,1.22.12,2.16.23,4.32.36,6.47a1,1,0,0,1-.78,1c-1.84.53-3.49.1-3.76-2.28-.14-1.22-.17-2.45-.21-3.68a2.57,2.57,0,0,1,2.13-2.84c0-.36,0-.74,0-1.12.05-6,2.86-10.24,8.05-13a13.19,13.19,0,0,1,5-1.47,3.19,3.19,0,0,0,.41-.09Zm5,29.92c-1.12.22-2.17.41-3.22.65a1,1,0,0,0-.58.4A2.22,2.22,0,0,1,52,57a2,2,0,0,1-1.68-1.86A2.1,2.1,0,0,1,54,53.63a.72.72,0,0,0,.55.25c1.5-.36,3-.75,4.47-1.17a.85.85,0,0,0,.49-.54c.19-.82.34-1.65.45-2.48a5.53,5.53,0,0,1,.69-2.45,6.68,6.68,0,0,0,.8-4.07,3.41,3.41,0,0,0-.25-.8,3.18,3.18,0,0,1-.25-.8,39.29,39.29,0,0,0-.17-4.67,7.45,7.45,0,0,0-5.75-6.48,12.64,12.64,0,0,0-4.65-.27A7.85,7.85,0,0,0,43,37.72c-.1,1.31,0,2.63,0,3.95,0,.16,0,.37-.05.46a2.56,2.56,0,0,0-.45,2.24,6.76,6.76,0,0,0,1.06,3.38,1.51,1.51,0,0,1,.3.79,10.67,10.67,0,0,0,2.06,6.41,10.62,10.62,0,0,1,.62.91,1,1,0,0,1,.18.48c0,1.21,0,2.42,0,3.63A4.38,4.38,0,0,1,44,64.13c-1.06.51-2.15,1-3.25,1.36a42,42,0,0,0-6.71,3,8.09,8.09,0,0,0-4.22,7.13c-.06,1.88-.15,1.66,1.56,1.66q20.67,0,41.33,0a5.78,5.78,0,0,0,1.1-.07.56.56,0,0,0,.37-.37c.21-2.84-.42-5.4-2.71-7.28a14,14,0,0,0-2.92-1.87c-1.92-.89-3.91-1.65-5.88-2.44a14.79,14.79,0,0,1-3.75-1.87,3.52,3.52,0,0,1-1.52-2.54c-.08-1.12-.14-2.24-.17-3.36a2.92,2.92,0,0,1,.72-2.34A1.22,1.22,0,0,0,58,54.92Z"/></svg>