<svg id="Layer_1" data-name="Layer 1" xmlns="http://www.w3.org/2000/svg" viewBox="0 0 69.96 73.42"><defs><style>path, .cls-1{fill:#803cd6;}.cls-2{fill: white; stroke: #803cd6;}.cls-1{stroke-linecap:round;stroke-width:2.03px;}.cls-2{stroke-width:1.3px;}</style></defs><title>unsuccessful-01</title><path d="M55.69,4.76A4.4,4.4,0,0,0,51,.13c-10.31,0-20.62,0-30.93,0-.85,0-1,.3-1,1,0,.31,0,.61,0,.92H49.24A4.27,4.27,0,0,1,53.5,6.33v35l1.21-.06c.81,0,1-.26,1-1C55.69,26.68,55.7,18.32,55.69,4.76Z"/><path d="M44.52,68.31H6.81A4.27,4.27,0,0,1,2.55,64V21.86H1.12c-.8,0-1,.21-1,1,0,7.17,0,14.33,0,21.5s.05,14.06,0,21.1a4.85,4.85,0,0,0,4.94,5c10.34-.1,28.48,0,38.83,0,.73,0,1.06-.08.76-.92A3.28,3.28,0,0,1,44.52,68.31Z"/><path d="M15.91,2.07,1.15,19.17c.54,0,.84.05,1.13.05,3.08,0,6.15,0,9.23,0a4.3,4.3,0,0,0,4.61-4.64c0-4,0-8,0-12C16.11,2.44,16.23,2.2,15.91,2.07ZM14.63,14.52a2.74,2.74,0,0,1-2.87,3H6l-.71,0L14.5,6.37c.2.09.12.24.13.36C14.63,9.32,14.64,11.92,14.63,14.52Z"/><line class="cls-1" x1="20.2" y1="27.54" x2="36.94" y2="44.29"/><line class="cls-1" x1="36.94" y1="27.54" x2="20.2" y2="44.29"/><path d="M58.07,49.81l-1.83.11q.61-.51.2-1a2.77,2.77,0,0,0-1.5-.78,9.42,9.42,0,0,0-1.59-.21,11.79,11.79,0,0,0-1.78,0l1.81,2.13-1.31.09L50.3,48.07l-.37,0-.85.12,1.71,2-1.32.08-1.58-1.86a4.41,4.41,0,0,0-2.47,1,.63.63,0,0,0,0,.86,2.76,2.76,0,0,0,1.68.79l-1.91.26a3,3,0,0,1-1.27-.79q-1.2-1.41,1.86-2.38.62-.2,1.56-.4L47,47.38l1.32-.08.28.33.83-.12.38,0L49.42,47,50.73,47l.31.36a14.32,14.32,0,0,1,5.19.42,3.76,3.76,0,0,1,1.76,1A.76.76,0,0,1,58.07,49.81Z"/><circle class="cls-2" cx="58.88" cy="62.23" r="10.5"/><path d="M61.72,56.48,61.56,58A3.88,3.88,0,0,0,59,57.69a4.86,4.86,0,0,0-2.4,1.13,4.27,4.27,0,0,0-.94,1.29,3.45,3.45,0,0,0-.4,1.48l6-1.18-.1,1.11-5.91,1.16q0,.17,0,.32.08.61.11.73l5.67-1.11L61,63.72l-5.24,1A3.3,3.3,0,0,0,57.87,67a4.49,4.49,0,0,0,2.27.12,4.19,4.19,0,0,0,2.47-1.28l.22,1.63a6.66,6.66,0,0,1-2.37.93q-4,.78-5.78-1.92A7.17,7.17,0,0,1,54,65.09l-1.35.26.11-1.11.92-.18q-.07-.33-.12-.71,0-.16,0-.33l-1.15.23.11-1.11,1-.2a5.56,5.56,0,0,1,2.35-4.26,7.48,7.48,0,0,1,3-1.31A5.41,5.41,0,0,1,61.72,56.48Z"/><path d="M40.88,63A12.42,12.42,0,0,0,49,65.78a3.3,3.3,0,0,1-.56-1.69,15.73,15.73,0,0,1-4.93-1.26,6.72,6.72,0,0,1-2.69-1.94,1.55,1.55,0,0,1-.11-2c.1-.21.18-.34.42-.14a12.19,12.19,0,0,0,6.75,2.59c0-.19,0,0,0-.58a10.56,10.56,0,0,1,.08-1.23,15.28,15.28,0,0,1-4.45-1.21,6.74,6.74,0,0,1-2.69-1.94c-.52-.68-.46-1.1-.06-1.93.1-.2.17-.35.42-.15,2.28,1.83,5.25,2.23,8.05,2.49.42-1,.43-.7,1.14-1.53a17.76,17.76,0,0,1-6.87-1.4A7.44,7.44,0,0,1,41,52.3a2.27,2.27,0,0,1,0-3.49,8.44,8.44,0,0,1,3.81-2.17,20.09,20.09,0,0,1,11.39-.14,9.67,9.67,0,0,1,4,2c1.08,1,1.37,2,.85,3a10.45,10.45,0,0,1,1.11.18c0-.14,0-.28,0-.42a4,4,0,0,0-1.65-3.4,11.06,11.06,0,0,0-6.11-2.38,10.68,10.68,0,0,1-1.57-.16H52.5c-.06.07-.15.05-.23.06s-.17,0-.23-.06H49.49c-.06.07-.15.05-.23.06s-.17,0-.23-.06h-.46a3.62,3.62,0,0,1-.91.12,11.37,11.37,0,0,0-5.72,1.73,4.54,4.54,0,0,0-2.5,3.16A7.33,7.33,0,0,0,39.65,54a1.54,1.54,0,0,1,0,1.07,3.89,3.89,0,0,0,0,3.19,1.9,1.9,0,0,1,0,1.07,3,3,0,0,0,0,1.89A4.65,4.65,0,0,0,40.88,63Z"/></svg>
