<svg id="Layer_1" data-name="Layer 1" xmlns="http://www.w3.org/2000/svg" viewBox="0 0 100 100"><defs><style>.cls-1{fill:none;stroke:#000;stroke-linecap:round;stroke-miterlimit:10;stroke-width:2px;}</style></defs><title>website-link_icon</title><path d="M87.13,42.18q-1.22,3.73-2.43,7.46t-2.38,7.42a.6.6,0,0,1-.64.49H78.59c-.41,0-.59-.2-.69-.58-.78-2.94-1.58-5.88-2.38-8.82,0-.09-.06-.17-.13-.37L74,53c-.36,1.35-.73,2.71-1.07,4.06a.6.6,0,0,1-.67.51q-1.54,0-3.08,0a.62.62,0,0,1-.68-.51q-1.2-3.85-2.43-7.7Q65,45.95,63.93,42.56c-.25-.77-.21-.83.6-.83s1.72,0,2.58,0c.61,0,.83.22,1,.78.82,3,1.67,5.93,2.52,8.89a1.76,1.76,0,0,0,.14.25c.1-.33.19-.58.26-.84.72-2.77,1.45-5.53,2.14-8.3.14-.57.38-.82,1-.78.88,0,1.76,0,2.63,0a.8.8,0,0,1,.92.73c.69,2.81,1.4,5.62,2.11,8.42a1.16,1.16,0,0,0,.21.58c.22,0,.2-.23.24-.38.85-2.92,1.72-5.84,2.54-8.77a.68.68,0,0,1,.79-.59c1.18,0,2.36,0,3.53,0Z"/><path d="M24,47.89l-1.22,4.69c-.39,1.48-.78,3-1.16,4.44a.61.61,0,0,1-.68.52c-1,0-2,0-3,0a.68.68,0,0,1-.77-.56c-.5-1.61-1-3.21-1.52-4.81l-3-9.56c-.27-.85-.25-.89.63-.89s1.76,0,2.64,0c.51,0,.72.19.85.67.83,3,1.69,6,2.54,8.95,0,.07.05.13.13.3.15-.49.27-.87.38-1.26.7-2.66,1.4-5.31,2.07-8a.76.76,0,0,1,.89-.68c.9,0,1.8,0,2.69,0a.75.75,0,0,1,.89.69c.53,2.16,1.08,4.31,1.63,6.47.23.89.47,1.77.71,2.7a1,1,0,0,0,.29-.59c.84-2.89,1.69-5.77,2.51-8.67.12-.41.29-.6.72-.59,1,0,2,0,3,0,.59,0,.66.1.47.67L32.87,51c-.64,2-1.29,3.94-1.9,5.92-.14.45-.34.65-.82.64q-1.43,0-2.86,0a.67.67,0,0,1-.78-.6c-.78-3-1.59-5.92-2.38-8.87C24.12,48,24.09,48,24,47.89Z"/><path d="M54.44,51.48c.27-.89.54-1.77.8-2.66q1-3.31,1.93-6.62a.54.54,0,0,1,.55-.46H61c.53,0,.43.33.33.66-.64,2-1.28,4-1.92,6-.93,2.86-1.87,5.72-2.78,8.58a.71.71,0,0,1-.79.6c-1,0-1.91,0-2.86,0-.48,0-.68-.2-.8-.66-.79-3-1.61-6-2.46-9.12-.18.63-.34,1.12-.47,1.63q-1,3.79-2,7.59a.63.63,0,0,1-.71.55c-1,0-2,0-3,0a.71.71,0,0,1-.8-.59c-.73-2.35-1.49-4.7-2.24-7.05l-2.34-7.37c-.24-.74-.19-.81.57-.81.92,0,1.83,0,2.75,0,.48,0,.68.18.81.64.84,3,1.71,6,2.57,9.05a.79.79,0,0,0,.08.14,3.51,3.51,0,0,0,.44-1.29c.69-2.62,1.38-5.24,2-7.86a.77.77,0,0,1,.91-.68c.9,0,1.8,0,2.69,0a.77.77,0,0,1,.9.69q.75,3,1.52,6.09c.25,1,.52,2,.78,3Z"/><path class="cls-1" d="M77.86,37.24a30.61,30.61,0,0,0-56.16,0"/><path class="cls-1" d="M22.06,62.38a30.61,30.61,0,0,0,55.43,0"/></svg>